{"glyphs":{"0":{"ha":876,"x_min":76,"x_max":842,"o":"m 373 -14 q 191 47 260 -14 q 99 224 121 109 q 103 505 76 340 q 192 785 130 669 q 343 963 254 901 q 545 1024 433 1024 q 725 963 656 1024 q 818 786 795 902 q 814 507 842 671 q 726 224 787 340 q 575 47 665 108 q 373 -14 486 -14 m 391 99 q 526 148 466 99 q 627 287 585 196 q 690 507 669 378 q 700 724 711 633 q 645 863 688 814 q 526 912 602 912 q 394 865 454 912 q 292 727 334 818 q 227 504 249 635 q 218 286 206 376 q 274 147 230 195 q 391 99 317 99 z "},"1":{"ha":566,"x_min":121,"x_max":548,"o":"m 548 1010 l 380 0 l 254 0 l 402 891 l 395 891 l 121 710 l 144 848 l 391 1010 l 548 1010 z "},"2":{"ha":847,"x_min":41,"x_max":804,"o":"m 41 0 l 57 93 l 452 457 q 565 566 519 519 q 636 654 610 612 q 669 743 661 696 q 661 834 677 796 q 607 892 644 871 q 517 912 570 912 q 411 889 460 912 q 329 823 362 865 q 287 724 296 781 l 164 724 q 230 881 179 813 q 357 986 281 948 q 524 1024 433 1024 q 679 986 614 1024 q 773 884 743 948 q 790 741 804 820 q 765 660 783 699 q 714 576 747 620 q 629 479 682 533 q 500 357 576 426 l 239 121 l 238 113 l 703 113 l 685 0 l 41 0 z "},"3":{"ha":857,"x_min":54,"x_max":812,"o":"m 372 -14 q 200 20 273 -14 q 91 114 127 54 q 64 255 54 175 l 195 255 q 214 172 191 207 q 281 118 237 137 q 382 100 325 100 q 498 121 445 100 q 587 183 551 143 q 631 275 622 222 q 620 372 640 330 q 550 438 599 414 q 427 462 502 462 l 345 462 l 363 574 l 446 574 q 552 595 504 574 q 632 654 600 616 q 673 745 664 692 q 666 833 682 796 q 613 891 650 871 q 521 912 576 912 q 420 893 469 912 q 337 840 372 875 q 293 756 303 805 l 169 756 q 239 896 185 836 q 370 990 292 956 q 536 1024 448 1024 q 693 986 630 1024 q 784 887 756 949 q 800 753 812 825 q 731 608 786 667 q 595 525 675 548 l 593 517 q 697 473 657 507 q 753 388 737 439 q 758 274 768 337 q 689 126 744 191 q 552 24 634 61 q 372 -14 469 -14 z "},"4":{"ha":899,"x_min":54,"x_max":808,"o":"m 54 205 l 71 311 l 629 1010 l 707 1010 l 681 849 l 628 849 l 211 327 l 210 319 l 808 319 l 789 205 l 54 205 m 495 0 l 534 237 l 543 286 l 663 1010 l 785 1010 l 618 0 l 495 0 z "},"5":{"ha":823,"x_min":57,"x_max":799,"o":"m 340 -14 q 186 21 251 -14 q 89 117 121 56 q 66 255 57 178 l 191 255 q 230 144 186 189 q 352 100 274 100 q 466 128 412 100 q 558 207 520 156 q 606 323 595 257 q 597 440 616 389 q 534 519 578 490 q 429 548 491 548 q 330 533 384 548 q 242 495 277 519 l 124 510 l 267 1010 l 799 1010 l 780 897 l 357 897 l 273 602 l 278 602 q 363 645 313 628 q 466 661 414 661 q 624 617 558 661 q 719 497 689 574 q 731 321 748 420 q 659 149 715 225 q 520 30 603 73 q 340 -14 437 -14 z "},"6":{"ha":859,"x_min":73,"x_max":833,"o":"m 383 -14 q 259 9 320 -14 q 153 87 198 33 q 91 234 109 141 q 96 467 73 327 q 160 704 119 600 q 259 879 201 808 q 390 987 317 950 q 548 1024 463 1024 q 697 990 633 1024 q 797 896 762 956 q 831 756 833 836 l 705 756 q 660 868 699 825 q 545 910 621 910 q 404 865 468 910 q 294 733 339 819 q 228 526 248 648 l 236 526 q 313 600 272 570 q 399 645 353 630 q 496 661 446 661 q 651 617 583 661 q 751 499 718 574 q 768 326 785 423 q 700 154 753 231 q 567 32 648 77 q 383 -14 486 -14 m 385 100 q 500 130 445 100 q 594 211 555 159 q 644 325 633 262 q 637 437 654 387 q 577 518 619 488 q 474 549 536 549 q 384 530 428 549 q 304 480 340 512 q 244 409 268 449 q 212 323 220 368 q 221 213 203 264 q 281 131 239 162 q 385 100 323 100 z "},"7":{"ha":787,"x_min":66,"x_max":825,"o":"m 66 0 l 663 889 l 664 897 l 153 897 l 172 1010 l 825 1010 l 805 890 l 210 0 l 66 0 z "},"8":{"ha":857,"x_min":50,"x_max":812,"o":"m 370 -14 q 193 23 267 -14 q 85 123 119 59 q 64 269 50 186 q 110 388 75 334 q 195 478 144 442 q 302 525 245 515 l 303 530 q 200 612 233 549 q 180 755 168 675 q 242 894 193 833 q 366 989 292 955 q 530 1024 441 1024 q 683 989 618 1024 q 781 894 749 954 q 800 756 812 833 q 763 655 791 702 q 694 576 735 608 q 603 530 653 543 l 602 525 q 694 478 655 515 q 750 387 732 441 q 757 267 768 332 q 689 122 743 185 q 553 22 635 58 q 370 -14 471 -14 m 376 98 q 496 120 442 98 q 586 182 551 142 q 630 277 621 222 q 619 375 639 332 q 555 443 599 418 q 448 467 511 467 q 332 444 387 467 q 240 377 277 420 q 192 277 202 334 q 200 184 182 224 q 263 121 218 144 q 376 98 307 98 m 456 575 q 556 597 510 575 q 634 657 603 618 q 673 747 665 696 q 666 835 682 798 q 613 892 650 872 q 522 913 576 913 q 421 893 468 913 q 344 836 375 873 q 304 747 313 799 q 311 656 295 695 q 364 596 327 618 q 456 575 401 575 z "},"9":{"ha":860,"x_min":68,"x_max":828,"o":"m 355 -14 q 205 20 270 -14 q 104 115 140 54 q 70 257 68 176 l 197 257 q 241 144 203 189 q 357 100 279 100 q 498 145 433 100 q 609 277 563 191 q 675 486 654 363 l 667 486 q 590 413 632 444 q 500 367 547 382 q 401 351 452 351 q 246 394 313 351 q 148 513 180 437 q 133 686 117 589 q 200 855 149 777 q 333 979 251 932 q 521 1024 415 1026 q 645 1000 585 1023 q 749 922 705 976 q 811 775 793 867 q 805 545 828 683 q 742 308 783 412 q 644 132 701 204 q 514 23 587 60 q 355 -14 441 -14 m 433 463 q 520 481 477 463 q 598 529 563 498 q 657 601 633 560 q 690 686 682 641 q 681 796 700 745 q 617 879 661 847 q 511 911 574 911 q 397 881 451 911 q 306 800 343 851 q 258 684 269 749 q 267 574 249 625 q 328 493 286 524 q 433 463 370 463 z "},"\u0000":{"ha":814,"x_min":0,"x_max":0,"o":""},"A":{"ha":958,"x_min":-28,"x_max":860,"o":"m -28 0 l 507 1010 l 656 1010 l 860 0 l 730 0 l 615 600 q 593 734 606 648 q 564 950 579 821 l 588 950 q 492 741 533 827 q 422 600 451 655 l 115 0 l -28 0 m 203 282 l 222 395 l 741 395 l 722 282 l 203 282 z "},"Ä":{"ha":958,"x_min":-28,"x_max":860,"o":"m -28 0 l 507 1010 l 656 1010 l 860 0 l 730 0 l 615 600 q 593 734 606 648 q 564 950 579 821 l 588 950 q 492 741 533 827 q 422 600 451 655 l 115 0 l -28 0 m 203 282 l 222 395 l 741 395 l 722 282 l 203 282 m 747 1135 q 694 1158 713 1135 q 680 1215 674 1182 q 713 1272 685 1249 q 774 1295 741 1295 q 826 1272 807 1295 q 840 1215 846 1249 q 807 1158 835 1182 q 747 1135 780 1135 m 461 1135 q 408 1158 428 1135 q 394 1215 389 1182 q 427 1272 399 1249 q 488 1295 455 1295 q 541 1272 522 1295 q 555 1215 560 1249 q 522 1158 549 1182 q 461 1135 494 1135 z "},"Ã":{"ha":958,"x_min":-28,"x_max":860,"o":"m -28 0 l 507 1010 l 656 1010 l 860 0 l 730 0 l 615 600 q 593 734 606 648 q 564 950 579 821 l 588 950 q 492 741 533 827 q 422 600 451 655 l 115 0 l -28 0 m 203 282 l 222 395 l 741 395 l 722 282 l 203 282 m 694 1143 q 647 1151 669 1143 q 604 1171 624 1160 q 568 1191 585 1182 q 539 1199 552 1199 q 509 1182 520 1199 q 494 1145 498 1164 l 408 1145 q 455 1247 421 1208 q 542 1286 488 1286 q 589 1278 568 1286 q 628 1258 610 1269 q 663 1238 646 1246 q 696 1229 679 1229 q 724 1242 713 1229 q 743 1284 734 1255 l 826 1284 q 778 1180 813 1218 q 694 1143 743 1143 z "},"À":{"ha":958,"x_min":-28,"x_max":860,"o":"m -28 0 l 507 1010 l 656 1010 l 860 0 l 730 0 l 615 600 q 593 734 606 648 q 564 950 579 821 l 588 950 q 492 741 533 827 q 422 600 451 655 l 115 0 l -28 0 m 203 282 l 222 395 l 741 395 l 722 282 l 203 282 m 551 1109 l 454 1309 l 590 1309 l 651 1109 l 551 1109 z "},"Á":{"ha":958,"x_min":-28,"x_max":860,"o":"m -28 0 l 507 1010 l 656 1010 l 860 0 l 730 0 l 615 600 q 593 734 606 648 q 564 950 579 821 l 588 950 q 492 741 533 827 q 422 600 451 655 l 115 0 l -28 0 m 203 282 l 222 395 l 741 395 l 722 282 l 203 282 m 543 1122 l 669 1309 l 806 1309 l 643 1122 l 543 1122 z "},"Â":{"ha":958,"x_min":-28,"x_max":860,"o":"m -28 0 l 507 1010 l 656 1010 l 860 0 l 730 0 l 615 600 q 593 734 606 648 q 564 950 579 821 l 588 950 q 492 741 533 827 q 422 600 451 655 l 115 0 l -28 0 m 203 282 l 222 395 l 741 395 l 722 282 l 203 282 m 504 1122 l 384 1122 l 385 1128 l 574 1309 l 690 1309 l 821 1128 l 819 1122 l 698 1122 l 622 1240 l 504 1122 z "},"Å":{"ha":958,"x_min":-28,"x_max":860,"o":"m -28 0 l 507 1010 l 656 1010 l 860 0 l 730 0 l 615 600 q 593 734 606 648 q 564 950 579 821 l 588 950 q 492 741 533 827 q 422 600 451 655 l 115 0 l -28 0 m 203 282 l 222 395 l 741 395 l 722 282 l 203 282 m 596 1045 q 506 1069 545 1045 q 450 1135 468 1094 q 440 1223 432 1175 q 476 1305 448 1268 q 547 1363 505 1341 q 637 1385 589 1385 q 728 1361 690 1385 q 784 1296 766 1337 q 794 1208 802 1256 q 758 1125 787 1162 q 686 1066 728 1088 q 596 1045 644 1045 m 603 1131 q 666 1154 637 1131 q 702 1213 695 1178 q 688 1275 709 1249 q 631 1300 668 1300 q 567 1276 596 1300 q 532 1216 538 1251 q 547 1156 526 1181 q 603 1131 567 1131 z "},"Ǻ":{"ha":958,"x_min":-28,"x_max":860,"o":"m -28 0 l 507 1010 l 656 1010 l 860 0 l 730 0 l 615 600 q 593 734 606 648 q 564 950 579 821 l 588 950 q 492 741 533 827 q 422 600 451 655 l 115 0 l -28 0 m 203 282 l 222 395 l 741 395 l 722 282 l 203 282 m 600 1417 l 719 1539 l 842 1539 l 694 1417 l 600 1417 m 596 1045 q 506 1069 545 1045 q 450 1135 468 1094 q 440 1223 432 1175 q 476 1305 448 1268 q 547 1363 505 1341 q 637 1385 589 1385 q 728 1361 690 1385 q 784 1296 766 1337 q 794 1208 802 1256 q 758 1125 787 1162 q 686 1066 728 1088 q 596 1045 644 1045 m 603 1131 q 666 1154 637 1131 q 702 1213 695 1178 q 688 1275 709 1249 q 631 1300 668 1300 q 567 1276 596 1300 q 532 1216 538 1251 q 547 1156 526 1181 q 603 1131 567 1131 z "},"":{"ha":958,"x_min":-28,"x_max":863,"o":"m -28 0 l 507 1010 l 656 1010 l 860 0 l 730 0 l 615 600 q 593 734 606 648 q 564 950 579 821 l 588 950 q 492 741 533 827 q 422 600 451 655 l 115 0 l -28 0 m 203 282 l 222 395 l 741 395 l 722 282 l 203 282 m 596 1045 q 506 1069 545 1045 q 450 1135 468 1094 q 440 1223 432 1175 q 476 1305 448 1268 q 547 1363 505 1341 q 637 1385 589 1385 q 728 1361 690 1385 q 784 1296 766 1337 q 794 1208 802 1256 q 758 1125 787 1162 q 686 1066 728 1088 q 596 1045 644 1045 m 603 1131 q 666 1154 637 1131 q 702 1213 695 1178 q 688 1275 709 1249 q 631 1300 668 1300 q 567 1276 596 1300 q 532 1216 538 1251 q 547 1156 526 1181 q 603 1131 567 1131 m 734 -296 q 627 -262 670 -296 q 595 -163 585 -229 q 641 -71 604 -115 q 741 11 679 -26 l 860 0 q 768 -66 806 -34 q 723 -139 730 -98 q 731 -179 718 -165 q 770 -193 743 -193 q 808 -187 791 -193 q 837 -174 825 -181 l 863 -262 q 808 -284 840 -273 q 734 -296 776 -296 z "},"Ā":{"ha":958,"x_min":-28,"x_max":860,"o":"m -28 0 l 507 1010 l 656 1010 l 860 0 l 730 0 l 615 600 q 593 734 606 648 q 564 950 579 821 l 588 950 q 492 741 533 827 q 422 600 451 655 l 115 0 l -28 0 m 203 282 l 222 395 l 741 395 l 722 282 l 203 282 m 814 1263 l 798 1167 l 422 1167 l 438 1263 l 814 1263 z "},"Ă":{"ha":958,"x_min":-28,"x_max":860,"o":"m -28 0 l 507 1010 l 656 1010 l 860 0 l 730 0 l 615 600 q 593 734 606 648 q 564 950 579 821 l 588 950 q 492 741 533 827 q 422 600 451 655 l 115 0 l -28 0 m 203 282 l 222 395 l 741 395 l 722 282 l 203 282 m 600 1117 q 505 1143 545 1117 q 446 1212 465 1168 q 436 1309 427 1255 l 526 1309 q 543 1233 518 1262 q 615 1204 568 1204 q 673 1217 646 1204 q 717 1254 699 1230 q 740 1309 735 1278 l 829 1309 q 787 1212 821 1255 q 705 1142 753 1168 q 600 1117 656 1117 z "},"Ą":{"ha":958,"x_min":-28,"x_max":863,"o":"m -28 0 l 507 1010 l 656 1010 l 860 0 l 730 0 l 615 600 q 593 734 606 648 q 564 950 579 821 l 588 950 q 492 741 533 827 q 422 600 451 655 l 115 0 l -28 0 m 203 282 l 222 395 l 741 395 l 722 282 l 203 282 m 734 -296 q 627 -262 670 -296 q 595 -163 585 -229 q 641 -71 604 -115 q 741 11 679 -26 l 860 0 q 768 -66 806 -34 q 723 -139 730 -98 q 731 -179 718 -165 q 770 -193 743 -193 q 808 -187 791 -193 q 837 -174 825 -181 l 863 -262 q 808 -284 840 -273 q 734 -296 776 -296 z "},"Ǎ":{"ha":958,"x_min":-28,"x_max":860,"o":"m -28 0 l 507 1010 l 656 1010 l 860 0 l 730 0 l 615 600 q 593 734 606 648 q 564 950 579 821 l 588 950 q 492 741 533 827 q 422 600 451 655 l 115 0 l -28 0 m 203 282 l 222 395 l 741 395 l 722 282 l 203 282 m 535 1309 l 613 1190 l 729 1309 l 850 1309 l 849 1303 l 659 1122 l 543 1122 l 414 1303 l 415 1309 l 535 1309 z "},"Ǟ":{"ha":958,"x_min":-28,"x_max":863,"o":"m -28 0 l 507 1010 l 656 1010 l 860 0 l 730 0 l 615 600 q 593 734 606 648 q 564 950 579 821 l 588 950 q 492 741 533 827 q 422 600 451 655 l 115 0 l -28 0 m 203 282 l 222 395 l 741 395 l 722 282 l 203 282 m 747 1116 q 694 1139 714 1116 q 680 1196 675 1163 q 713 1253 686 1230 q 774 1276 741 1276 q 827 1253 808 1276 q 841 1196 846 1230 q 808 1139 836 1163 q 747 1116 781 1116 m 462 1116 q 409 1139 429 1116 q 395 1196 389 1163 q 428 1253 400 1230 q 489 1276 456 1276 q 542 1253 522 1276 q 555 1196 561 1230 q 523 1139 550 1163 q 462 1116 495 1116 m 863 1460 l 847 1373 l 471 1373 l 488 1460 l 863 1460 z "},"Ǡ":{"ha":958,"x_min":-28,"x_max":863,"o":"m -28 0 l 507 1010 l 656 1010 l 860 0 l 730 0 l 615 600 q 593 734 606 648 q 564 950 579 821 l 588 950 q 492 741 533 827 q 422 600 451 655 l 115 0 l -28 0 m 203 282 l 222 395 l 741 395 l 722 282 l 203 282 m 603 1116 q 547 1139 568 1116 q 532 1196 526 1163 q 566 1254 537 1230 q 630 1277 595 1277 q 686 1254 665 1277 q 702 1196 707 1230 q 667 1139 696 1163 q 603 1116 638 1116 m 863 1460 l 847 1373 l 471 1373 l 488 1460 l 863 1460 z "},"Ȁ":{"ha":958,"x_min":-28,"x_max":860,"o":"m -28 0 l 507 1010 l 656 1010 l 860 0 l 730 0 l 615 600 q 593 734 606 648 q 564 950 579 821 l 588 950 q 492 741 533 827 q 422 600 451 655 l 115 0 l -28 0 m 203 282 l 222 395 l 741 395 l 722 282 l 203 282 m 661 1109 l 580 1309 l 715 1309 l 762 1109 l 661 1109 m 439 1109 l 323 1309 l 459 1309 l 540 1109 l 439 1109 z "},"Ȃ":{"ha":958,"x_min":-28,"x_max":860,"o":"m -28 0 l 507 1010 l 656 1010 l 860 0 l 730 0 l 615 600 q 593 734 606 648 q 564 950 579 821 l 588 950 q 492 741 533 827 q 422 600 451 655 l 115 0 l -28 0 m 203 282 l 222 395 l 741 395 l 722 282 l 203 282 m 635 1326 q 738 1299 695 1326 q 799 1225 780 1272 q 808 1122 818 1179 l 719 1122 q 697 1203 728 1172 q 621 1235 667 1235 q 533 1203 574 1235 q 484 1122 493 1172 l 395 1122 q 439 1225 404 1179 q 525 1299 473 1272 q 635 1326 576 1326 z "},"Ȧ":{"ha":958,"x_min":-28,"x_max":860,"o":"m -28 0 l 507 1010 l 656 1010 l 860 0 l 730 0 l 615 600 q 593 734 606 648 q 564 950 579 821 l 588 950 q 492 741 533 827 q 422 600 451 655 l 115 0 l -28 0 m 203 282 l 222 395 l 741 395 l 722 282 l 203 282 m 604 1135 q 548 1158 569 1135 q 532 1215 527 1182 q 567 1273 538 1249 q 631 1296 596 1296 q 687 1273 666 1296 q 703 1215 708 1249 q 668 1158 697 1182 q 604 1135 639 1135 z "},"Ḁ":{"ha":958,"x_min":-28,"x_max":860,"o":"m -28 0 l 507 1010 l 656 1010 l 860 0 l 730 0 l 615 600 q 593 734 606 648 q 564 950 579 821 l 588 950 q 492 741 533 827 q 422 600 451 655 l 115 0 l -28 0 m 203 282 l 222 395 l 741 395 l 722 282 l 203 282 m 365 -358 q 282 -337 317 -358 q 231 -282 248 -317 q 222 -204 214 -247 q 258 -127 229 -162 q 329 -72 287 -92 q 418 -51 371 -51 q 500 -72 465 -51 q 551 -127 534 -92 q 560 -204 568 -162 q 524 -282 553 -247 q 454 -337 496 -317 q 365 -358 412 -358 m 378 -281 q 439 -258 412 -281 q 472 -203 467 -236 q 457 -150 477 -171 q 404 -128 437 -128 q 343 -150 371 -128 q 311 -203 316 -172 q 324 -258 304 -235 q 378 -281 344 -281 z "},"Ạ":{"ha":958,"x_min":-28,"x_max":860,"o":"m -28 0 l 507 1010 l 656 1010 l 860 0 l 730 0 l 615 600 q 593 734 606 648 q 564 950 579 821 l 588 950 q 492 741 533 827 q 422 600 451 655 l 115 0 l -28 0 m 203 282 l 222 395 l 741 395 l 722 282 l 203 282 m 371 -286 q 315 -262 336 -286 q 300 -205 294 -238 q 334 -148 305 -171 q 398 -124 363 -124 q 454 -148 433 -124 q 470 -205 475 -171 q 435 -262 465 -238 q 371 -286 406 -286 z "},"Ả":{"ha":958,"x_min":-28,"x_max":860,"o":"m -28 0 l 507 1010 l 656 1010 l 860 0 l 730 0 l 615 600 q 593 734 606 648 q 564 950 579 821 l 588 950 q 492 741 533 827 q 422 600 451 655 l 115 0 l -28 0 m 203 282 l 222 395 l 741 395 l 722 282 l 203 282 m 640 1109 l 548 1109 l 611 1202 q 617 1223 621 1217 q 601 1229 614 1229 l 507 1229 l 519 1309 l 614 1309 q 680 1298 654 1309 q 714 1268 705 1287 q 717 1223 724 1249 q 686 1168 710 1198 l 640 1109 z "},"Ấ":{"ha":958,"x_min":-28,"x_max":998,"o":"m -28 0 l 507 1010 l 656 1010 l 860 0 l 730 0 l 615 600 q 593 734 606 648 q 564 950 579 821 l 588 950 q 492 741 533 827 q 422 600 451 655 l 115 0 l -28 0 m 203 282 l 222 395 l 741 395 l 722 282 l 203 282 m 506 1103 l 386 1103 l 387 1109 l 576 1290 l 692 1290 l 823 1109 l 821 1103 l 700 1103 l 624 1221 l 506 1103 m 736 1348 l 862 1535 l 998 1535 l 836 1348 l 736 1348 z "},"Ầ":{"ha":958,"x_min":-28,"x_max":868,"o":"m -28 0 l 507 1010 l 656 1010 l 860 0 l 730 0 l 615 600 q 593 734 606 648 q 564 950 579 821 l 588 950 q 492 741 533 827 q 422 600 451 655 l 115 0 l -28 0 m 203 282 l 222 395 l 741 395 l 722 282 l 203 282 m 506 1103 l 386 1103 l 387 1109 l 576 1290 l 692 1290 l 823 1109 l 821 1103 l 700 1103 l 624 1221 l 506 1103 m 768 1348 l 669 1535 l 805 1535 l 868 1348 l 768 1348 z "},"Ẩ":{"ha":958,"x_min":-28,"x_max":901,"o":"m -28 0 l 507 1010 l 656 1010 l 860 0 l 730 0 l 615 600 q 593 734 606 648 q 564 950 579 821 l 588 950 q 492 741 533 827 q 422 600 451 655 l 115 0 l -28 0 m 203 282 l 222 395 l 741 395 l 722 282 l 203 282 m 506 1103 l 386 1103 l 387 1109 l 576 1290 l 692 1290 l 823 1109 l 821 1103 l 700 1103 l 624 1221 l 506 1103 m 817 1335 l 725 1335 l 788 1428 q 794 1449 798 1442 q 778 1455 791 1455 l 684 1455 l 696 1535 l 791 1535 q 857 1524 831 1535 q 891 1494 882 1513 q 894 1449 901 1474 q 863 1394 887 1423 l 817 1335 z "},"Ẫ":{"ha":958,"x_min":-28,"x_max":867,"o":"m -28 0 l 507 1010 l 656 1010 l 860 0 l 730 0 l 615 600 q 593 734 606 648 q 564 950 579 821 l 588 950 q 492 741 533 827 q 422 600 451 655 l 115 0 l -28 0 m 203 282 l 222 395 l 741 395 l 722 282 l 203 282 m 506 1103 l 386 1103 l 387 1109 l 576 1290 l 692 1290 l 823 1109 l 821 1103 l 700 1103 l 624 1221 l 506 1103 m 735 1367 q 687 1375 710 1367 q 645 1395 665 1383 q 609 1414 625 1406 q 580 1423 593 1423 q 550 1406 561 1423 q 534 1369 538 1388 l 449 1369 q 495 1471 462 1432 q 583 1510 529 1510 q 630 1501 609 1510 q 669 1481 651 1493 q 703 1461 687 1470 q 736 1453 720 1453 q 765 1466 754 1453 q 783 1508 775 1479 l 867 1508 q 819 1404 854 1442 q 735 1367 784 1367 z "},"Ậ":{"ha":958,"x_min":-28,"x_max":860,"o":"m -28 0 l 507 1010 l 656 1010 l 860 0 l 730 0 l 615 600 q 593 734 606 648 q 564 950 579 821 l 588 950 q 492 741 533 827 q 422 600 451 655 l 115 0 l -28 0 m 203 282 l 222 395 l 741 395 l 722 282 l 203 282 m 504 1122 l 384 1122 l 385 1128 l 574 1309 l 690 1309 l 821 1128 l 819 1122 l 698 1122 l 622 1240 l 504 1122 m 371 -286 q 315 -262 336 -286 q 300 -205 294 -238 q 334 -148 305 -171 q 398 -124 363 -124 q 454 -148 433 -124 q 470 -205 475 -171 q 435 -262 465 -238 q 371 -286 406 -286 z "},"Ắ":{"ha":958,"x_min":-28,"x_max":860,"o":"m -28 0 l 507 1010 l 656 1010 l 860 0 l 730 0 l 615 600 q 593 734 606 648 q 564 950 579 821 l 588 950 q 492 741 533 827 q 422 600 451 655 l 115 0 l -28 0 m 203 282 l 222 395 l 741 395 l 722 282 l 203 282 m 600 1098 q 505 1124 545 1098 q 446 1193 465 1149 q 436 1290 427 1236 l 526 1290 q 543 1214 518 1243 q 615 1185 568 1185 q 673 1198 646 1185 q 717 1235 699 1211 q 740 1290 735 1259 l 829 1290 q 787 1193 821 1236 q 705 1123 753 1149 q 600 1098 656 1098 m 592 1348 l 718 1535 l 854 1535 l 692 1348 l 592 1348 z "},"Ằ":{"ha":958,"x_min":-28,"x_max":860,"o":"m -28 0 l 507 1010 l 656 1010 l 860 0 l 730 0 l 615 600 q 593 734 606 648 q 564 950 579 821 l 588 950 q 492 741 533 827 q 422 600 451 655 l 115 0 l -28 0 m 203 282 l 222 395 l 741 395 l 722 282 l 203 282 m 597 1098 q 502 1124 543 1098 q 443 1193 462 1149 q 433 1290 424 1236 l 522 1290 q 540 1214 515 1243 q 612 1185 565 1185 q 669 1198 643 1185 q 714 1235 696 1211 q 736 1290 732 1259 l 826 1290 q 784 1193 817 1236 q 702 1123 751 1149 q 597 1098 653 1098 m 688 1349 l 589 1349 l 490 1534 l 625 1534 l 688 1349 z "},"Ẳ":{"ha":958,"x_min":-28,"x_max":860,"o":"m -28 0 l 507 1010 l 656 1010 l 860 0 l 730 0 l 615 600 q 593 734 606 648 q 564 950 579 821 l 588 950 q 492 741 533 827 q 422 600 451 655 l 115 0 l -28 0 m 203 282 l 222 395 l 741 395 l 722 282 l 203 282 m 600 1098 q 505 1124 545 1098 q 446 1193 465 1149 q 436 1290 427 1236 l 526 1290 q 543 1214 518 1243 q 615 1185 568 1185 q 673 1198 646 1185 q 717 1235 699 1211 q 740 1290 735 1259 l 829 1290 q 787 1193 821 1236 q 705 1123 753 1149 q 600 1098 656 1098 m 682 1335 l 590 1335 l 653 1428 q 660 1449 663 1442 q 643 1455 656 1455 l 549 1455 l 562 1535 l 656 1535 q 722 1524 696 1535 q 756 1494 747 1513 q 759 1449 766 1474 q 728 1394 752 1423 l 682 1335 z "},"Ẵ":{"ha":958,"x_min":-28,"x_max":869,"o":"m -28 0 l 507 1010 l 656 1010 l 860 0 l 730 0 l 615 600 q 593 734 606 648 q 564 950 579 821 l 588 950 q 492 741 533 827 q 422 600 451 655 l 115 0 l -28 0 m 203 282 l 222 395 l 741 395 l 722 282 l 203 282 m 598 1099 q 504 1125 544 1099 q 446 1193 465 1150 q 436 1289 427 1236 l 523 1289 q 540 1213 515 1242 q 612 1183 565 1183 q 669 1197 643 1183 q 713 1234 696 1211 q 736 1289 731 1258 l 823 1289 q 781 1193 814 1236 q 700 1125 748 1150 q 598 1099 652 1099 m 738 1366 q 690 1374 713 1366 q 648 1394 667 1383 q 612 1414 628 1405 q 583 1422 595 1422 q 552 1405 564 1422 q 537 1369 541 1388 l 452 1369 q 498 1470 465 1431 q 585 1510 532 1510 q 633 1501 612 1510 q 672 1481 654 1492 q 706 1461 690 1470 q 739 1452 722 1452 q 767 1465 757 1452 q 786 1507 778 1478 l 869 1507 q 822 1403 857 1441 q 738 1366 787 1366 z "},"Ặ":{"ha":958,"x_min":-28,"x_max":860,"o":"m -28 0 l 507 1010 l 656 1010 l 860 0 l 730 0 l 615 600 q 593 734 606 648 q 564 950 579 821 l 588 950 q 492 741 533 827 q 422 600 451 655 l 115 0 l -28 0 m 203 282 l 222 395 l 741 395 l 722 282 l 203 282 m 600 1117 q 505 1143 545 1117 q 446 1212 465 1168 q 436 1309 427 1255 l 526 1309 q 543 1233 518 1262 q 615 1204 568 1204 q 673 1217 646 1204 q 717 1254 699 1230 q 740 1309 735 1278 l 829 1309 q 787 1212 821 1255 q 705 1142 753 1168 q 600 1117 656 1117 m 371 -286 q 315 -262 336 -286 q 300 -205 294 -238 q 334 -148 305 -171 q 398 -124 363 -124 q 454 -148 433 -124 q 470 -205 475 -171 q 435 -262 465 -238 q 371 -286 406 -286 z "},"Α":{"ha":958,"x_min":-28,"x_max":860,"o":"m -28 0 l 507 1010 l 656 1010 l 860 0 l 730 0 l 615 600 q 593 734 606 648 q 564 950 579 821 l 588 950 q 492 741 533 827 q 422 600 451 655 l 115 0 l -28 0 m 203 282 l 222 395 l 741 395 l 722 282 l 203 282 z "},"Ά":{"ha":958,"x_min":-28,"x_max":860,"o":"m -28 0 l 507 1010 l 656 1010 l 860 0 l 730 0 l 615 600 q 593 734 606 648 q 564 950 579 821 l 588 950 q 492 741 533 827 q 422 600 451 655 l 115 0 l -28 0 m 203 282 l 222 395 l 741 395 l 722 282 l 203 282 m 176 811 l 232 1010 l 363 1010 l 260 811 l 176 811 z "},"Ἀ":{"ha":991,"x_min":5,"x_max":892,"o":"m 5 0 l 539 1010 l 688 1010 l 892 0 l 762 0 l 648 600 q 625 734 639 648 q 596 950 612 821 l 621 950 q 525 741 566 827 q 455 600 484 655 l 147 0 l 5 0 m 236 282 l 254 395 l 773 395 l 755 282 l 236 282 m 193 827 l 184 827 l 192 876 l 201 876 q 255 888 235 876 q 278 924 274 900 q 266 956 281 945 q 216 966 250 966 l 191 966 l 203 1039 l 228 1039 q 344 1013 309 1039 q 371 935 380 987 q 318 854 362 881 q 193 827 273 827 z "},"Ἁ":{"ha":991,"x_min":5,"x_max":892,"o":"m 5 0 l 539 1010 l 688 1010 l 892 0 l 762 0 l 648 600 q 625 734 639 648 q 596 950 612 821 l 621 950 q 525 741 566 827 q 455 600 484 655 l 147 0 l 5 0 m 236 282 l 254 395 l 773 395 l 755 282 l 236 282 m 319 805 q 203 832 239 805 q 176 913 167 859 q 229 991 184 966 q 354 1017 274 1017 l 379 1017 l 367 945 l 342 945 q 288 934 307 945 q 266 903 269 924 q 277 866 262 878 q 327 854 292 854 l 336 854 l 328 805 l 319 805 z "},"Ἂ":{"ha":1185,"x_min":155,"x_max":1086,"o":"m 199 0 l 733 1010 l 882 1010 l 1086 0 l 956 0 l 842 600 q 819 734 833 648 q 790 950 806 821 l 814 950 q 719 741 760 827 q 649 600 677 655 l 341 0 l 199 0 m 430 282 l 448 395 l 967 395 l 949 282 l 430 282 m 163 805 l 155 805 l 163 854 l 172 854 q 225 866 206 854 q 249 903 245 878 q 237 934 252 924 q 186 945 221 945 l 161 945 l 174 1017 l 199 1017 q 315 991 279 1017 q 342 913 351 966 q 289 832 333 859 q 163 805 244 805 m 552 811 l 467 811 l 431 1010 l 562 1010 l 552 811 z "},"Ἃ":{"ha":1200,"x_min":147,"x_max":1102,"o":"m 214 0 l 749 1010 l 898 1010 l 1102 0 l 972 0 l 857 600 q 835 734 848 648 q 806 950 821 821 l 830 950 q 734 741 775 827 q 665 600 693 655 l 357 0 l 214 0 m 446 282 l 464 395 l 983 395 l 964 282 l 446 282 m 299 805 q 183 832 219 805 q 156 913 147 859 q 210 991 165 966 q 334 1017 254 1017 l 359 1017 l 347 945 l 322 945 q 269 934 288 945 q 246 903 250 924 q 257 866 242 878 q 307 854 273 854 l 316 854 l 308 805 l 299 805 m 568 811 l 483 811 l 447 1010 l 578 1010 l 568 811 z "},"Ἄ":{"ha":1189,"x_min":155,"x_max":1090,"o":"m 203 0 l 737 1010 l 886 1010 l 1090 0 l 960 0 l 846 600 q 823 734 837 648 q 794 950 810 821 l 819 950 q 723 741 764 827 q 653 600 682 655 l 345 0 l 203 0 m 434 282 l 452 395 l 971 395 l 953 282 l 434 282 m 163 805 l 155 805 l 163 854 l 172 854 q 225 866 206 854 q 249 903 245 878 q 237 934 252 924 q 186 945 221 945 l 161 945 l 174 1017 l 199 1017 q 315 991 279 1017 q 342 913 351 966 q 289 832 333 859 q 163 805 244 805 m 408 811 l 465 1010 l 595 1010 l 493 811 l 408 811 z "},"Ἅ":{"ha":1194,"x_min":147,"x_max":1095,"o":"m 208 0 l 742 1010 l 891 1010 l 1095 0 l 965 0 l 850 600 q 828 734 842 648 q 799 950 814 821 l 823 950 q 727 741 768 827 q 658 600 686 655 l 350 0 l 208 0 m 439 282 l 457 395 l 976 395 l 958 282 l 439 282 m 299 805 q 183 832 219 805 q 156 913 147 859 q 210 991 165 966 q 334 1017 254 1017 l 359 1017 l 347 945 l 322 945 q 269 934 288 945 q 246 903 250 924 q 257 866 242 878 q 307 854 273 854 l 316 854 l 308 805 l 299 805 m 413 811 l 469 1010 l 600 1010 l 498 811 l 413 811 z "},"Ἆ":{"ha":1076,"x_min":90,"x_max":978,"o":"m 90 0 l 625 1010 l 774 1010 l 978 0 l 848 0 l 733 600 q 711 734 724 648 q 682 950 697 821 l 706 950 q 610 741 651 827 q 541 600 569 655 l 233 0 l 90 0 m 321 282 l 340 395 l 859 395 l 840 282 l 321 282 m 269 814 l 260 814 l 269 863 l 277 863 q 331 876 312 863 q 355 912 351 888 q 342 944 358 933 q 292 954 327 954 l 267 954 l 279 1027 l 304 1027 q 421 1001 385 1027 q 448 923 456 975 q 394 842 439 869 q 269 814 350 814 m 473 1095 q 425 1104 448 1095 q 382 1123 402 1112 q 347 1143 363 1135 q 317 1152 330 1152 q 287 1134 298 1152 q 272 1098 276 1117 l 186 1098 q 233 1200 199 1160 q 320 1239 267 1239 q 368 1230 347 1239 q 407 1210 389 1221 q 441 1190 425 1199 q 474 1181 457 1181 q 502 1195 492 1181 q 521 1236 513 1208 l 604 1236 q 556 1133 591 1171 q 473 1095 522 1095 z "},"Ἇ":{"ha":1076,"x_min":90,"x_max":978,"o":"m 90 0 l 625 1010 l 774 1010 l 978 0 l 848 0 l 733 600 q 711 734 724 648 q 682 950 697 821 l 706 950 q 610 741 651 827 q 541 600 569 655 l 233 0 l 90 0 m 321 282 l 340 395 l 859 395 l 840 282 l 321 282 m 404 804 q 288 831 324 804 q 261 912 252 858 q 315 990 270 964 q 439 1016 359 1016 l 465 1016 l 452 943 l 427 943 q 374 933 393 943 q 351 901 355 922 q 362 865 347 877 q 412 852 378 852 l 421 852 l 413 804 l 404 804 m 471 1084 q 424 1093 446 1084 q 381 1113 401 1101 q 345 1132 361 1124 q 316 1141 329 1141 q 286 1123 297 1141 q 271 1087 275 1106 l 185 1087 q 232 1189 198 1149 q 319 1228 265 1228 q 366 1219 345 1228 q 405 1199 387 1211 q 439 1179 423 1188 q 473 1171 456 1171 q 501 1184 490 1171 q 519 1225 511 1197 l 603 1225 q 555 1122 590 1160 q 471 1084 520 1084 z "},"Ᾰ":{"ha":958,"x_min":-28,"x_max":860,"o":"m -28 0 l 507 1010 l 656 1010 l 860 0 l 730 0 l 615 600 q 593 734 606 648 q 564 950 579 821 l 588 950 q 492 741 533 827 q 422 600 451 655 l 115 0 l -28 0 m 203 282 l 222 395 l 741 395 l 722 282 l 203 282 m 600 1117 q 505 1143 545 1117 q 446 1212 465 1168 q 436 1309 427 1255 l 526 1309 q 543 1233 518 1262 q 615 1204 568 1204 q 673 1217 646 1204 q 717 1254 699 1230 q 740 1309 735 1278 l 829 1309 q 787 1212 821 1255 q 705 1142 753 1168 q 600 1117 656 1117 z "},"Ᾱ":{"ha":958,"x_min":-28,"x_max":860,"o":"m -28 0 l 507 1010 l 656 1010 l 860 0 l 730 0 l 615 600 q 593 734 606 648 q 564 950 579 821 l 588 950 q 492 741 533 827 q 422 600 451 655 l 115 0 l -28 0 m 203 282 l 222 395 l 741 395 l 722 282 l 203 282 m 814 1263 l 798 1167 l 422 1167 l 438 1263 l 814 1263 z "},"Ὰ":{"ha":958,"x_min":-28,"x_max":860,"o":"m -28 0 l 507 1010 l 656 1010 l 860 0 l 730 0 l 615 600 q 593 734 606 648 q 564 950 579 821 l 588 950 q 492 741 533 827 q 422 600 451 655 l 115 0 l -28 0 m 203 282 l 222 395 l 741 395 l 722 282 l 203 282 m 340 857 l 255 857 l 219 1057 l 350 1057 l 340 857 z "},"Ⱥ":{"ha":958,"x_min":-28,"x_max":905,"o":"m 905 1138 l 245 -129 l 133 -129 l 793 1138 l 905 1138 m -28 0 l 507 1010 l 656 1010 l 860 0 l 730 0 l 615 600 q 593 734 606 648 q 564 950 579 821 l 588 950 q 492 741 533 827 q 422 600 451 655 l 115 0 l -28 0 m 203 282 l 222 395 l 741 395 l 722 282 l 203 282 z "},"Ά":{"ha":991,"x_min":5,"x_max":892,"o":"m 5 0 l 539 1010 l 688 1010 l 892 0 l 762 0 l 648 600 q 625 734 639 648 q 596 950 612 821 l 621 950 q 525 741 566 827 q 455 600 484 655 l 147 0 l 5 0 m 236 282 l 254 395 l 773 395 l 755 282 l 236 282 m 208 811 l 264 1010 l 395 1010 l 293 811 l 208 811 z "},"А":{"ha":958,"x_min":-28,"x_max":860,"o":"m -28 0 l 507 1010 l 656 1010 l 860 0 l 730 0 l 615 600 q 593 734 606 648 q 564 950 579 821 l 588 950 q 492 741 533 827 q 422 600 451 655 l 115 0 l -28 0 m 203 282 l 222 395 l 741 395 l 722 282 l 203 282 z "},"Ӑ":{"ha":958,"x_min":-28,"x_max":860,"o":"m -28 0 l 507 1010 l 656 1010 l 860 0 l 730 0 l 615 600 q 593 734 606 648 q 564 950 579 821 l 588 950 q 492 741 533 827 q 422 600 451 655 l 115 0 l -28 0 m 203 282 l 222 395 l 741 395 l 722 282 l 203 282 m 600 1117 q 505 1143 545 1117 q 446 1212 465 1168 q 436 1309 427 1255 l 526 1309 q 543 1233 518 1262 q 615 1204 568 1204 q 673 1217 646 1204 q 717 1254 699 1230 q 740 1309 735 1278 l 829 1309 q 787 1212 821 1255 q 705 1142 753 1168 q 600 1117 656 1117 z "},"Ӓ":{"ha":958,"x_min":-28,"x_max":860,"o":"m -28 0 l 507 1010 l 656 1010 l 860 0 l 730 0 l 615 600 q 593 734 606 648 q 564 950 579 821 l 588 950 q 492 741 533 827 q 422 600 451 655 l 115 0 l -28 0 m 203 282 l 222 395 l 741 395 l 722 282 l 203 282 m 747 1135 q 694 1158 713 1135 q 680 1215 674 1182 q 713 1272 685 1249 q 774 1295 741 1295 q 826 1272 807 1295 q 840 1215 846 1249 q 807 1158 835 1182 q 747 1135 780 1135 m 461 1135 q 408 1158 428 1135 q 394 1215 389 1182 q 427 1272 399 1249 q 488 1295 455 1295 q 541 1272 522 1295 q 555 1215 560 1249 q 522 1158 549 1182 q 461 1135 494 1135 z "},"ᾈ":{"ha":991,"x_min":5,"x_max":892,"o":"m 5 0 l 539 1010 l 688 1010 l 892 0 l 762 0 l 648 600 q 625 734 639 648 q 596 950 612 821 l 621 950 q 525 741 566 827 q 455 600 484 655 l 147 0 l 5 0 m 236 282 l 254 395 l 773 395 l 755 282 l 236 282 m 454 -335 q 373 -303 397 -335 q 359 -209 349 -271 l 380 -80 l 490 -80 l 469 -208 q 470 -248 464 -235 q 494 -260 476 -260 q 511 -259 505 -260 q 524 -257 517 -258 l 513 -327 q 485 -333 502 -331 q 454 -335 468 -335 m 193 827 l 184 827 l 192 876 l 201 876 q 255 888 235 876 q 278 924 274 900 q 266 956 281 945 q 216 966 250 966 l 191 966 l 203 1039 l 228 1039 q 344 1013 309 1039 q 371 935 380 987 q 318 854 362 881 q 193 827 273 827 z "},"ᾉ":{"ha":991,"x_min":5,"x_max":892,"o":"m 5 0 l 539 1010 l 688 1010 l 892 0 l 762 0 l 648 600 q 625 734 639 648 q 596 950 612 821 l 621 950 q 525 741 566 827 q 455 600 484 655 l 147 0 l 5 0 m 236 282 l 254 395 l 773 395 l 755 282 l 236 282 m 454 -335 q 373 -303 397 -335 q 359 -209 349 -271 l 380 -80 l 490 -80 l 469 -208 q 470 -248 464 -235 q 494 -260 476 -260 q 511 -259 505 -260 q 524 -257 517 -258 l 513 -327 q 485 -333 502 -331 q 454 -335 468 -335 m 319 805 q 203 832 239 805 q 176 913 167 859 q 229 991 184 966 q 354 1017 274 1017 l 379 1017 l 367 945 l 342 945 q 288 934 307 945 q 266 903 269 924 q 277 866 262 878 q 327 854 292 854 l 336 854 l 328 805 l 319 805 z "},"ᾊ":{"ha":1185,"x_min":155,"x_max":1086,"o":"m 199 0 l 733 1010 l 882 1010 l 1086 0 l 956 0 l 842 600 q 819 734 833 648 q 790 950 806 821 l 814 950 q 719 741 760 827 q 649 600 677 655 l 341 0 l 199 0 m 430 282 l 448 395 l 967 395 l 949 282 l 430 282 m 648 -335 q 567 -303 591 -335 q 553 -209 543 -271 l 574 -80 l 684 -80 l 663 -208 q 664 -248 658 -235 q 688 -260 670 -260 q 705 -259 699 -260 q 718 -257 711 -258 l 707 -327 q 679 -333 696 -331 q 648 -335 662 -335 m 163 805 l 155 805 l 163 854 l 172 854 q 225 866 206 854 q 249 903 245 878 q 237 934 252 924 q 186 945 221 945 l 161 945 l 174 1017 l 199 1017 q 315 991 279 1017 q 342 913 351 966 q 289 832 333 859 q 163 805 244 805 m 552 811 l 467 811 l 431 1010 l 562 1010 l 552 811 z "},"ᾋ":{"ha":1200,"x_min":147,"x_max":1102,"o":"m 214 0 l 749 1010 l 898 1010 l 1102 0 l 972 0 l 857 600 q 835 734 848 648 q 806 950 821 821 l 830 950 q 734 741 775 827 q 665 600 693 655 l 357 0 l 214 0 m 446 282 l 464 395 l 983 395 l 964 282 l 446 282 m 663 -335 q 583 -303 607 -335 q 568 -209 558 -271 l 589 -80 l 699 -80 l 678 -208 q 680 -248 673 -235 q 704 -260 686 -260 q 720 -259 714 -260 q 734 -257 726 -258 l 722 -327 q 694 -333 711 -331 q 663 -335 677 -335 m 299 805 q 183 832 219 805 q 156 913 147 859 q 210 991 165 966 q 334 1017 254 1017 l 359 1017 l 347 945 l 322 945 q 269 934 288 945 q 246 903 250 924 q 257 866 242 878 q 307 854 273 854 l 316 854 l 308 805 l 299 805 m 568 811 l 483 811 l 447 1010 l 578 1010 l 568 811 z "},"ᾌ":{"ha":1189,"x_min":155,"x_max":1090,"o":"m 203 0 l 737 1010 l 886 1010 l 1090 0 l 960 0 l 846 600 q 823 734 837 648 q 794 950 810 821 l 819 950 q 723 741 764 827 q 653 600 682 655 l 345 0 l 203 0 m 434 282 l 452 395 l 971 395 l 953 282 l 434 282 m 163 805 l 155 805 l 163 854 l 172 854 q 225 866 206 854 q 249 903 245 878 q 237 934 252 924 q 186 945 221 945 l 161 945 l 174 1017 l 199 1017 q 315 991 279 1017 q 342 913 351 966 q 289 832 333 859 q 163 805 244 805 m 408 811 l 465 1010 l 595 1010 l 493 811 l 408 811 m 652 -335 q 571 -303 595 -335 q 557 -209 547 -271 l 578 -80 l 688 -80 l 667 -208 q 668 -248 662 -235 q 692 -260 674 -260 q 709 -259 703 -260 q 722 -257 715 -258 l 711 -327 q 683 -333 700 -331 q 652 -335 666 -335 z "},"ᾍ":{"ha":1194,"x_min":147,"x_max":1095,"o":"m 208 0 l 742 1010 l 891 1010 l 1095 0 l 965 0 l 850 600 q 828 734 842 648 q 799 950 814 821 l 823 950 q 727 741 768 827 q 658 600 686 655 l 350 0 l 208 0 m 439 282 l 457 395 l 976 395 l 958 282 l 439 282 m 656 -335 q 576 -303 600 -335 q 562 -209 551 -271 l 583 -80 l 692 -80 l 671 -208 q 673 -248 667 -235 q 697 -260 679 -260 q 713 -259 707 -260 q 727 -257 720 -258 l 715 -327 q 688 -333 705 -331 q 656 -335 671 -335 m 299 805 q 183 832 219 805 q 156 913 147 859 q 210 991 165 966 q 334 1017 254 1017 l 359 1017 l 347 945 l 322 945 q 269 934 288 945 q 246 903 250 924 q 257 866 242 878 q 307 854 273 854 l 316 854 l 308 805 l 299 805 m 413 811 l 469 1010 l 600 1010 l 498 811 l 413 811 z "},"ᾎ":{"ha":1076,"x_min":90,"x_max":978,"o":"m 90 0 l 625 1010 l 774 1010 l 978 0 l 848 0 l 733 600 q 711 734 724 648 q 682 950 697 821 l 706 950 q 610 741 651 827 q 541 600 569 655 l 233 0 l 90 0 m 321 282 l 340 395 l 859 395 l 840 282 l 321 282 m 269 814 l 260 814 l 269 863 l 277 863 q 331 876 312 863 q 355 912 351 888 q 342 944 358 933 q 292 954 327 954 l 267 954 l 279 1027 l 304 1027 q 421 1001 385 1027 q 448 923 456 975 q 394 842 439 869 q 269 814 350 814 m 473 1095 q 425 1104 448 1095 q 382 1123 402 1112 q 347 1143 363 1135 q 317 1152 330 1152 q 287 1134 298 1152 q 272 1098 276 1117 l 186 1098 q 233 1200 199 1160 q 320 1239 267 1239 q 368 1230 347 1239 q 407 1210 389 1221 q 441 1190 425 1199 q 474 1181 457 1181 q 502 1195 492 1181 q 521 1236 513 1208 l 604 1236 q 556 1133 591 1171 q 473 1095 522 1095 m 539 -335 q 458 -303 483 -335 q 444 -209 434 -271 l 465 -80 l 575 -80 l 554 -208 q 555 -248 549 -235 q 580 -260 562 -260 q 596 -259 590 -260 q 610 -257 602 -258 l 598 -327 q 570 -333 587 -331 q 539 -335 553 -335 z "},"ᾏ":{"ha":1076,"x_min":90,"x_max":978,"o":"m 90 0 l 625 1010 l 774 1010 l 978 0 l 848 0 l 733 600 q 711 734 724 648 q 682 950 697 821 l 706 950 q 610 741 651 827 q 541 600 569 655 l 233 0 l 90 0 m 321 282 l 340 395 l 859 395 l 840 282 l 321 282 m 539 -335 q 458 -303 483 -335 q 444 -209 434 -271 l 465 -80 l 575 -80 l 554 -208 q 555 -248 549 -235 q 580 -260 562 -260 q 596 -259 590 -260 q 610 -257 602 -258 l 598 -327 q 570 -333 587 -331 q 539 -335 553 -335 m 404 804 q 288 831 324 804 q 261 912 252 858 q 315 990 270 964 q 439 1016 359 1016 l 465 1016 l 452 943 l 427 943 q 374 933 393 943 q 351 901 355 922 q 362 865 347 877 q 412 852 378 852 l 421 852 l 413 804 l 404 804 m 471 1084 q 424 1093 446 1084 q 381 1113 401 1101 q 345 1132 361 1124 q 316 1141 329 1141 q 286 1123 297 1141 q 271 1087 275 1106 l 185 1087 q 232 1189 198 1149 q 319 1228 265 1228 q 366 1219 345 1228 q 405 1199 387 1211 q 439 1179 423 1188 q 473 1171 456 1171 q 501 1184 490 1171 q 519 1225 511 1197 l 603 1225 q 555 1122 590 1160 q 471 1084 520 1084 z "},"ᾼ":{"ha":958,"x_min":-28,"x_max":860,"o":"m -28 0 l 507 1010 l 656 1010 l 860 0 l 730 0 l 615 600 q 593 734 606 648 q 564 950 579 821 l 588 950 q 492 741 533 827 q 422 600 451 655 l 115 0 l -28 0 m 203 282 l 222 395 l 741 395 l 722 282 l 203 282 m 421 -335 q 340 -303 365 -335 q 326 -209 316 -271 l 347 -80 l 457 -80 l 436 -208 q 437 -248 431 -235 q 462 -260 444 -260 q 478 -259 472 -260 q 492 -257 484 -258 l 480 -327 q 452 -333 469 -331 q 421 -335 435 -335 z "},"Λ":{"ha":958,"x_min":-28,"x_max":860,"o":"m -28 0 l 507 1010 l 656 1010 l 860 0 l 730 0 l 615 600 q 593 734 606 648 q 564 950 579 821 l 588 950 q 492 741 533 827 q 422 600 451 655 l 115 0 l -28 0 z "},"Æ":{"ha":1381,"x_min":-28,"x_max":1386,"o":"m -28 0 l 625 1010 l 1386 1010 l 1367 897 l 882 897 l 827 563 l 1280 563 l 1261 449 l 808 449 l 752 113 l 1245 113 l 1226 0 l 604 0 l 753 895 l 680 895 l 114 0 l -28 0 m 252 282 l 270 395 l 735 395 l 717 282 l 252 282 z "},"Ǣ":{"ha":1381,"x_min":-28,"x_max":1386,"o":"m -28 0 l 625 1010 l 1386 1010 l 1367 897 l 882 897 l 827 563 l 1280 563 l 1261 449 l 808 449 l 752 113 l 1245 113 l 1226 0 l 604 0 l 753 895 l 680 895 l 114 0 l -28 0 m 252 282 l 270 395 l 735 395 l 717 282 l 252 282 m 1234 1263 l 1218 1167 l 842 1167 l 859 1263 l 1234 1263 z "},"Ǽ":{"ha":1381,"x_min":-28,"x_max":1386,"o":"m -28 0 l 625 1010 l 1386 1010 l 1367 897 l 882 897 l 827 563 l 1280 563 l 1261 449 l 808 449 l 752 113 l 1245 113 l 1226 0 l 604 0 l 753 895 l 680 895 l 114 0 l -28 0 m 252 282 l 270 395 l 735 395 l 717 282 l 252 282 m 964 1122 l 1090 1309 l 1226 1309 l 1063 1122 l 964 1122 z "},"Ӕ":{"ha":1381,"x_min":-28,"x_max":1386,"o":"m -28 0 l 625 1010 l 1386 1010 l 1367 897 l 882 897 l 827 563 l 1280 563 l 1261 449 l 808 449 l 752 113 l 1245 113 l 1226 0 l 604 0 l 753 895 l 680 895 l 114 0 l -28 0 m 252 282 l 270 395 l 735 395 l 717 282 l 252 282 z "},"B":{"ha":909,"x_min":59,"x_max":863,"o":"m 59 0 l 227 1010 l 581 1010 q 750 974 686 1010 q 838 874 813 937 q 850 737 863 812 q 811 633 841 675 q 738 566 781 591 q 647 528 695 541 l 647 521 q 737 487 694 518 q 802 400 779 456 q 811 263 824 343 q 755 128 799 187 q 631 34 711 68 q 433 0 552 0 l 59 0 m 207 113 l 441 113 q 620 163 561 113 q 690 281 679 213 q 679 371 698 331 q 617 435 659 411 q 512 458 574 458 l 264 458 l 207 113 m 282 567 l 501 567 q 603 589 555 567 q 685 652 651 612 q 728 747 719 692 q 702 853 739 810 q 567 897 666 897 l 337 897 l 282 567 z "},"Ḃ":{"ha":909,"x_min":59,"x_max":863,"o":"m 59 0 l 227 1010 l 581 1010 q 750 974 686 1010 q 838 874 813 937 q 850 737 863 812 q 811 633 841 675 q 738 566 781 591 q 647 528 695 541 l 647 521 q 737 487 694 518 q 802 400 779 456 q 811 263 824 343 q 755 128 799 187 q 631 34 711 68 q 433 0 552 0 l 59 0 m 207 113 l 441 113 q 620 163 561 113 q 690 281 679 213 q 679 371 698 331 q 617 435 659 411 q 512 458 574 458 l 264 458 l 207 113 m 282 567 l 501 567 q 603 589 555 567 q 685 652 651 612 q 728 747 719 692 q 702 853 739 810 q 567 897 666 897 l 337 897 l 282 567 m 561 1135 q 505 1158 526 1135 q 490 1215 484 1182 q 524 1273 495 1249 q 588 1296 553 1296 q 644 1273 623 1296 q 660 1215 665 1249 q 625 1158 654 1182 q 561 1135 596 1135 z "},"Ḅ":{"ha":909,"x_min":59,"x_max":863,"o":"m 59 0 l 227 1010 l 581 1010 q 750 974 686 1010 q 838 874 813 937 q 850 737 863 812 q 811 633 841 675 q 738 566 781 591 q 647 528 695 541 l 647 521 q 737 487 694 518 q 802 400 779 456 q 811 263 824 343 q 755 128 799 187 q 631 34 711 68 q 433 0 552 0 l 59 0 m 207 113 l 441 113 q 620 163 561 113 q 690 281 679 213 q 679 371 698 331 q 617 435 659 411 q 512 458 574 458 l 264 458 l 207 113 m 282 567 l 501 567 q 603 589 555 567 q 685 652 651 612 q 728 747 719 692 q 702 853 739 810 q 567 897 666 897 l 337 897 l 282 567 m 334 -286 q 278 -262 299 -286 q 262 -205 257 -238 q 297 -148 268 -171 q 361 -124 326 -124 q 417 -148 396 -124 q 433 -205 438 -171 q 398 -262 427 -238 q 334 -286 369 -286 z "},"Ḇ":{"ha":909,"x_min":59,"x_max":863,"o":"m 59 0 l 227 1010 l 581 1010 q 750 974 686 1010 q 838 874 813 937 q 850 737 863 812 q 811 633 841 675 q 738 566 781 591 q 647 528 695 541 l 647 521 q 737 487 694 518 q 802 400 779 456 q 811 263 824 343 q 755 128 799 187 q 631 34 711 68 q 433 0 552 0 l 59 0 m 207 113 l 441 113 q 620 163 561 113 q 690 281 679 213 q 679 371 698 331 q 617 435 659 411 q 512 458 574 458 l 264 458 l 207 113 m 282 567 l 501 567 q 603 589 555 567 q 685 652 651 612 q 728 747 719 692 q 702 853 739 810 q 567 897 666 897 l 337 897 l 282 567 m 541 -157 l 525 -253 l 149 -253 l 165 -157 l 541 -157 z "},"Ƀ":{"ha":909,"x_min":-9,"x_max":863,"o":"m 59 0 l 227 1010 l 581 1010 q 750 974 686 1010 q 838 874 813 937 q 850 737 863 812 q 811 633 841 675 q 738 566 781 591 q 647 528 695 541 l 647 521 q 737 487 694 518 q 802 400 779 456 q 811 263 824 343 q 755 128 799 187 q 631 34 711 68 q 433 0 552 0 l 59 0 m 207 113 l 441 113 q 620 163 561 113 q 690 281 679 213 q 679 371 698 331 q 617 435 659 411 q 512 458 574 458 l 264 458 l 207 113 m 282 567 l 501 567 q 603 589 555 567 q 685 652 651 612 q 728 747 719 692 q 702 853 739 810 q 567 897 666 897 l 337 897 l 282 567 m -9 241 l 5 332 l 444 332 l 429 241 l -9 241 z "},"Ɓ":{"ha":1099,"x_min":102,"x_max":1053,"o":"m 102 755 l 111 806 q 186 958 127 906 q 353 1010 246 1010 l 416 1010 l 397 897 l 335 897 q 264 875 290 897 q 231 804 239 853 l 223 755 l 102 755 m 249 0 l 416 1010 l 770 1010 q 940 974 876 1010 q 1028 874 1003 937 q 1040 737 1053 812 q 1001 633 1031 675 q 928 566 970 591 q 837 528 885 541 l 837 521 q 927 487 884 518 q 991 400 969 456 q 1001 263 1014 343 q 945 128 989 187 q 821 34 901 68 q 623 0 742 0 l 249 0 m 397 113 l 631 113 q 810 163 751 113 q 880 281 869 213 q 868 371 888 331 q 807 435 849 411 q 702 458 764 458 l 454 458 l 397 113 m 472 567 l 691 567 q 793 589 745 567 q 875 652 841 612 q 918 747 909 692 q 892 853 928 810 q 757 897 856 897 l 527 897 l 472 567 z "},"В":{"ha":909,"x_min":59,"x_max":863,"o":"m 59 0 l 227 1010 l 581 1010 q 750 974 686 1010 q 838 874 813 937 q 850 737 863 812 q 811 633 841 675 q 738 566 781 591 q 647 528 695 541 l 647 521 q 737 487 694 518 q 802 400 779 456 q 811 263 824 343 q 755 128 799 187 q 631 34 711 68 q 433 0 552 0 l 59 0 m 207 113 l 441 113 q 620 163 561 113 q 690 281 679 213 q 679 371 698 331 q 617 435 659 411 q 512 458 574 458 l 264 458 l 207 113 m 282 567 l 501 567 q 603 589 555 567 q 685 652 651 612 q 728 747 719 692 q 702 853 739 810 q 567 897 666 897 l 337 897 l 282 567 z "},"Β":{"ha":909,"x_min":59,"x_max":863,"o":"m 59 0 l 227 1010 l 581 1010 q 750 974 686 1010 q 838 874 813 937 q 850 737 863 812 q 811 633 841 675 q 738 566 781 591 q 647 528 695 541 l 647 521 q 737 487 694 518 q 802 400 779 456 q 811 263 824 343 q 755 128 799 187 q 631 34 711 68 q 433 0 552 0 l 59 0 m 207 113 l 441 113 q 620 163 561 113 q 690 281 679 213 q 679 371 698 331 q 617 435 659 411 q 512 458 574 458 l 264 458 l 207 113 m 282 567 l 501 567 q 603 589 555 567 q 685 652 651 612 q 728 747 719 692 q 702 853 739 810 q 567 897 666 897 l 337 897 l 282 567 z "},"C":{"ha":1014,"x_min":94,"x_max":990,"o":"m 473 -14 q 273 35 359 -14 q 141 175 188 84 q 94 393 94 267 q 132 626 94 513 q 239 828 169 739 q 408 971 309 918 q 630 1024 507 1024 q 773 1002 708 1024 q 887 937 839 979 q 963 832 936 894 q 990 692 989 771 l 861 692 q 841 783 859 744 q 790 850 822 823 q 716 891 758 877 q 625 905 674 905 q 455 861 530 905 q 327 745 380 818 q 247 581 275 671 q 219 397 219 490 q 252 237 219 302 q 344 139 286 172 q 478 106 402 106 q 579 120 530 106 q 671 161 628 134 q 747 227 714 188 q 800 318 781 267 l 929 318 q 857 180 903 241 q 751 75 812 119 q 620 9 690 32 q 473 -14 549 -14 z "},"Ƈ":{"ha":1014,"x_min":94,"x_max":1213,"o":"m 872 692 l 918 970 q 991 1100 932 1057 q 1143 1143 1050 1143 q 1184 1141 1166 1143 q 1213 1137 1203 1139 l 1196 1036 q 1175 1038 1186 1037 q 1157 1038 1164 1038 q 1069 1021 1098 1038 q 1036 970 1041 1004 l 990 692 l 872 692 m 473 -14 q 273 35 359 -14 q 141 175 188 84 q 94 393 94 267 q 132 626 94 513 q 239 828 169 739 q 408 971 309 918 q 630 1024 507 1024 q 773 1002 708 1024 q 887 937 839 979 q 963 832 936 894 q 990 692 989 771 l 861 692 q 841 783 859 744 q 790 850 822 823 q 716 891 758 877 q 625 905 674 905 q 455 861 530 905 q 327 745 380 818 q 247 581 275 671 q 219 397 219 490 q 252 237 219 302 q 344 139 286 172 q 478 106 402 106 q 579 120 530 106 q 671 161 628 134 q 747 227 714 188 q 800 318 781 267 l 929 318 q 857 180 903 241 q 751 75 812 119 q 620 9 690 32 q 473 -14 549 -14 z "},"Ç":{"ha":1014,"x_min":94,"x_max":990,"o":"m 473 -14 q 273 35 359 -14 q 141 175 188 84 q 94 393 94 267 q 132 626 94 513 q 239 828 169 739 q 408 971 309 918 q 630 1024 507 1024 q 773 1002 708 1024 q 887 937 839 979 q 963 832 936 894 q 990 692 989 771 l 861 692 q 841 783 859 744 q 790 850 822 823 q 716 891 758 877 q 625 905 674 905 q 455 861 530 905 q 327 745 380 818 q 247 581 275 671 q 219 397 219 490 q 252 237 219 302 q 344 139 286 172 q 478 106 402 106 q 579 120 530 106 q 671 161 628 134 q 747 227 714 188 q 800 318 781 267 l 929 318 q 857 180 903 241 q 751 75 812 119 q 620 9 690 32 q 473 -14 549 -14 m 344 -291 l 355 -220 l 435 -220 q 489 -210 473 -220 q 509 -176 505 -200 q 501 -141 513 -151 q 450 -131 489 -131 l 395 -131 l 441 25 l 505 25 l 500 -7 l 490 -66 q 582 -94 555 -68 q 600 -174 609 -119 q 549 -262 591 -234 q 425 -291 508 -291 l 344 -291 z "},"Ć":{"ha":1014,"x_min":94,"x_max":990,"o":"m 473 -14 q 273 35 359 -14 q 141 175 188 84 q 94 393 94 267 q 132 626 94 513 q 239 828 169 739 q 408 971 309 918 q 630 1024 507 1024 q 773 1002 708 1024 q 887 937 839 979 q 963 832 936 894 q 990 692 989 771 l 861 692 q 841 783 859 744 q 790 850 822 823 q 716 891 758 877 q 625 905 674 905 q 455 861 530 905 q 327 745 380 818 q 247 581 275 671 q 219 397 219 490 q 252 237 219 302 q 344 139 286 172 q 478 106 402 106 q 579 120 530 106 q 671 161 628 134 q 747 227 714 188 q 800 318 781 267 l 929 318 q 857 180 903 241 q 751 75 812 119 q 620 9 690 32 q 473 -14 549 -14 m 595 1122 l 722 1309 l 858 1309 l 695 1122 l 595 1122 z "},"Ĉ":{"ha":1014,"x_min":94,"x_max":990,"o":"m 473 -14 q 273 35 359 -14 q 141 175 188 84 q 94 393 94 267 q 132 626 94 513 q 239 828 169 739 q 408 971 309 918 q 630 1024 507 1024 q 773 1002 708 1024 q 887 937 839 979 q 963 832 936 894 q 990 692 989 771 l 861 692 q 841 783 859 744 q 790 850 822 823 q 716 891 758 877 q 625 905 674 905 q 455 861 530 905 q 327 745 380 818 q 247 581 275 671 q 219 397 219 490 q 252 237 219 302 q 344 139 286 172 q 478 106 402 106 q 579 120 530 106 q 671 161 628 134 q 747 227 714 188 q 800 318 781 267 l 929 318 q 857 180 903 241 q 751 75 812 119 q 620 9 690 32 q 473 -14 549 -14 m 556 1122 l 436 1122 l 437 1128 l 627 1309 l 743 1309 l 873 1128 l 871 1122 l 750 1122 l 674 1240 l 556 1122 z "},"Ċ":{"ha":1014,"x_min":94,"x_max":990,"o":"m 473 -14 q 273 35 359 -14 q 141 175 188 84 q 94 393 94 267 q 132 626 94 513 q 239 828 169 739 q 408 971 309 918 q 630 1024 507 1024 q 773 1002 708 1024 q 887 937 839 979 q 963 832 936 894 q 990 692 989 771 l 861 692 q 841 783 859 744 q 790 850 822 823 q 716 891 758 877 q 625 905 674 905 q 455 861 530 905 q 327 745 380 818 q 247 581 275 671 q 219 397 219 490 q 252 237 219 302 q 344 139 286 172 q 478 106 402 106 q 579 120 530 106 q 671 161 628 134 q 747 227 714 188 q 800 318 781 267 l 929 318 q 857 180 903 241 q 751 75 812 119 q 620 9 690 32 q 473 -14 549 -14 m 656 1135 q 600 1158 621 1135 q 585 1215 579 1182 q 619 1273 590 1249 q 683 1296 648 1296 q 739 1273 718 1296 q 755 1215 760 1249 q 720 1158 749 1182 q 656 1135 691 1135 z "},"Č":{"ha":1014,"x_min":94,"x_max":990,"o":"m 473 -14 q 273 35 359 -14 q 141 175 188 84 q 94 393 94 267 q 132 626 94 513 q 239 828 169 739 q 408 971 309 918 q 630 1024 507 1024 q 773 1002 708 1024 q 887 937 839 979 q 963 832 936 894 q 990 692 989 771 l 861 692 q 841 783 859 744 q 790 850 822 823 q 716 891 758 877 q 625 905 674 905 q 455 861 530 905 q 327 745 380 818 q 247 581 275 671 q 219 397 219 490 q 252 237 219 302 q 344 139 286 172 q 478 106 402 106 q 579 120 530 106 q 671 161 628 134 q 747 227 714 188 q 800 318 781 267 l 929 318 q 857 180 903 241 q 751 75 812 119 q 620 9 690 32 q 473 -14 549 -14 m 587 1309 l 665 1190 l 781 1309 l 903 1309 l 901 1303 l 711 1122 l 595 1122 l 466 1303 l 467 1309 l 587 1309 z "},"Ḉ":{"ha":1014,"x_min":94,"x_max":990,"o":"m 473 -14 q 273 35 359 -14 q 141 175 188 84 q 94 393 94 267 q 132 626 94 513 q 239 828 169 739 q 408 971 309 918 q 630 1024 507 1024 q 773 1002 708 1024 q 887 937 839 979 q 963 832 936 894 q 990 692 989 771 l 861 692 q 841 783 859 744 q 790 850 822 823 q 716 891 758 877 q 625 905 674 905 q 455 861 530 905 q 327 745 380 818 q 247 581 275 671 q 219 397 219 490 q 252 237 219 302 q 344 139 286 172 q 478 106 402 106 q 579 120 530 106 q 671 161 628 134 q 747 227 714 188 q 800 318 781 267 l 929 318 q 857 180 903 241 q 751 75 812 119 q 620 9 690 32 q 473 -14 549 -14 m 344 -291 l 355 -220 l 435 -220 q 489 -210 473 -220 q 509 -176 505 -200 q 501 -141 513 -151 q 450 -131 489 -131 l 395 -131 l 441 25 l 505 25 l 500 -7 l 490 -66 q 582 -94 555 -68 q 600 -174 609 -119 q 549 -262 591 -234 q 425 -291 508 -291 l 344 -291 m 595 1122 l 722 1309 l 858 1309 l 695 1122 l 595 1122 z "},"Ȼ":{"ha":1014,"x_min":94,"x_max":990,"o":"m 145 -129 l 804 1138 l 916 1138 l 258 -129 l 145 -129 m 473 -14 q 273 35 359 -14 q 141 175 188 84 q 94 393 94 267 q 132 626 94 513 q 239 828 169 739 q 408 971 309 918 q 630 1024 507 1024 q 773 1002 708 1024 q 887 937 839 979 q 963 832 936 894 q 990 692 989 771 l 861 692 q 841 783 859 744 q 790 850 822 823 q 716 891 758 877 q 625 905 674 905 q 455 861 530 905 q 327 745 380 818 q 247 581 275 671 q 219 397 219 490 q 252 237 219 302 q 344 139 286 172 q 478 106 402 106 q 579 120 530 106 q 671 161 628 134 q 747 227 714 188 q 800 318 781 267 l 929 318 q 857 180 903 241 q 751 75 812 119 q 620 9 690 32 q 473 -14 549 -14 z "},"Ɔ":{"ha":1014,"x_min":66,"x_max":962,"o":"m 583 1024 q 783 975 698 1024 q 915 835 868 926 q 962 617 962 744 q 924 385 962 498 q 817 182 887 272 q 648 39 747 92 q 426 -14 549 -14 q 282 9 348 -14 q 169 74 217 31 q 93 178 120 117 q 66 318 66 240 l 195 318 q 215 227 197 267 q 266 161 234 188 q 340 120 298 134 q 431 106 382 106 q 601 149 526 106 q 729 266 676 193 q 809 430 781 339 q 837 614 837 520 q 804 774 837 709 q 712 872 770 839 q 578 905 654 905 q 477 891 526 905 q 385 850 428 877 q 309 783 342 823 q 256 692 275 744 l 127 692 q 199 831 153 770 q 305 935 244 892 q 436 1001 366 979 q 583 1024 507 1024 z "},"Ϲ":{"ha":1014,"x_min":94,"x_max":990,"o":"m 473 -14 q 273 35 359 -14 q 141 175 188 84 q 94 393 94 267 q 132 626 94 513 q 239 828 169 739 q 408 971 309 918 q 630 1024 507 1024 q 773 1002 708 1024 q 887 937 839 979 q 963 832 936 894 q 990 692 989 771 l 861 692 q 841 783 859 744 q 790 850 822 823 q 716 891 758 877 q 625 905 674 905 q 455 861 530 905 q 327 745 380 818 q 247 581 275 671 q 219 397 219 490 q 252 237 219 302 q 344 139 286 172 q 478 106 402 106 q 579 120 530 106 q 671 161 628 134 q 747 227 714 188 q 800 318 781 267 l 929 318 q 857 180 903 241 q 751 75 812 119 q 620 9 690 32 q 473 -14 549 -14 z "},"D":{"ha":1002,"x_min":59,"x_max":967,"o":"m 397 0 l 130 0 l 149 114 l 385 114 q 598 161 509 114 q 742 297 687 209 q 816 507 796 386 q 811 716 836 629 q 714 850 785 804 q 527 897 644 897 l 273 897 l 292 1010 l 538 1010 q 785 950 686 1010 q 926 776 884 889 q 941 506 967 663 q 844 234 914 347 q 662 60 774 121 q 397 0 549 0 m 355 1010 l 188 0 l 59 0 l 227 1010 l 355 1010 z "},"Ɗ":{"ha":1192,"x_min":102,"x_max":1157,"o":"m 102 755 l 111 806 q 186 958 127 906 q 353 1010 246 1010 l 416 1010 l 397 897 l 335 897 q 264 875 290 897 q 231 804 239 853 l 223 755 l 102 755 m 587 0 l 320 0 l 338 114 l 574 114 q 788 161 699 114 q 931 297 877 209 q 1006 507 986 386 q 1001 716 1026 629 q 904 850 975 804 q 717 897 833 897 l 463 897 l 482 1010 l 728 1010 q 975 950 876 1010 q 1116 776 1074 889 q 1131 506 1157 663 q 1034 234 1104 347 q 851 60 964 121 q 587 0 739 0 m 545 1010 l 378 0 l 249 0 l 416 1010 l 545 1010 z "},"Ď":{"ha":1002,"x_min":59,"x_max":967,"o":"m 397 0 l 130 0 l 149 114 l 385 114 q 598 161 509 114 q 742 297 687 209 q 816 507 796 386 q 811 716 836 629 q 714 850 785 804 q 527 897 644 897 l 273 897 l 292 1010 l 538 1010 q 785 950 686 1010 q 926 776 884 889 q 941 506 967 663 q 844 234 914 347 q 662 60 774 121 q 397 0 549 0 m 355 1010 l 188 0 l 59 0 l 227 1010 l 355 1010 m 476 1309 l 554 1190 l 670 1309 l 791 1309 l 790 1303 l 600 1122 l 484 1122 l 355 1303 l 356 1309 l 476 1309 z "},"Ḋ":{"ha":1002,"x_min":59,"x_max":967,"o":"m 397 0 l 130 0 l 149 114 l 385 114 q 598 161 509 114 q 742 297 687 209 q 816 507 796 386 q 811 716 836 629 q 714 850 785 804 q 527 897 644 897 l 273 897 l 292 1010 l 538 1010 q 785 950 686 1010 q 926 776 884 889 q 941 506 967 663 q 844 234 914 347 q 662 60 774 121 q 397 0 549 0 m 355 1010 l 188 0 l 59 0 l 227 1010 l 355 1010 m 545 1135 q 489 1158 510 1135 q 473 1215 468 1182 q 508 1273 479 1249 q 572 1296 537 1296 q 628 1273 607 1296 q 644 1215 649 1249 q 609 1158 638 1182 q 545 1135 580 1135 z "},"Ḍ":{"ha":1002,"x_min":59,"x_max":967,"o":"m 397 0 l 130 0 l 149 114 l 385 114 q 598 161 509 114 q 742 297 687 209 q 816 507 796 386 q 811 716 836 629 q 714 850 785 804 q 527 897 644 897 l 273 897 l 292 1010 l 538 1010 q 785 950 686 1010 q 926 776 884 889 q 941 506 967 663 q 844 234 914 347 q 662 60 774 121 q 397 0 549 0 m 355 1010 l 188 0 l 59 0 l 227 1010 l 355 1010 m 318 -286 q 262 -262 283 -286 q 247 -205 241 -238 q 281 -148 252 -171 q 345 -124 311 -124 q 401 -148 380 -124 q 417 -205 422 -171 q 382 -262 412 -238 q 318 -286 353 -286 z "},"Ḏ":{"ha":1002,"x_min":59,"x_max":967,"o":"m 397 0 l 130 0 l 149 114 l 385 114 q 598 161 509 114 q 742 297 687 209 q 816 507 796 386 q 811 716 836 629 q 714 850 785 804 q 527 897 644 897 l 273 897 l 292 1010 l 538 1010 q 785 950 686 1010 q 926 776 884 889 q 941 506 967 663 q 844 234 914 347 q 662 60 774 121 q 397 0 549 0 m 355 1010 l 188 0 l 59 0 l 227 1010 l 355 1010 m 526 -157 l 509 -253 l 134 -253 l 150 -157 l 526 -157 z "},"Ḑ":{"ha":1002,"x_min":59,"x_max":967,"o":"m 397 0 l 130 0 l 149 114 l 385 114 q 598 161 509 114 q 742 297 687 209 q 816 507 796 386 q 811 716 836 629 q 714 850 785 804 q 527 897 644 897 l 273 897 l 292 1010 l 538 1010 q 785 950 686 1010 q 926 776 884 889 q 941 506 967 663 q 844 234 914 347 q 662 60 774 121 q 397 0 549 0 m 355 1010 l 188 0 l 59 0 l 227 1010 l 355 1010 m 189 -334 l 287 -80 l 412 -80 l 284 -334 l 189 -334 z "},"Ḓ":{"ha":1002,"x_min":59,"x_max":967,"o":"m 397 0 l 130 0 l 149 114 l 385 114 q 598 161 509 114 q 742 297 687 209 q 816 507 796 386 q 811 716 836 629 q 714 850 785 804 q 527 897 644 897 l 273 897 l 292 1010 l 538 1010 q 785 950 686 1010 q 926 776 884 889 q 941 506 967 663 q 844 234 914 347 q 662 60 774 121 q 397 0 549 0 m 355 1010 l 188 0 l 59 0 l 227 1010 l 355 1010 m 220 -298 l 100 -298 l 102 -292 l 291 -111 l 407 -111 l 537 -292 l 536 -298 l 414 -298 l 338 -180 l 220 -298 z "},"Ɖ":{"ha":1020,"x_min":29,"x_max":985,"o":"m 415 0 l 149 0 l 167 114 l 403 114 q 616 161 527 114 q 760 297 705 209 q 834 507 814 386 q 829 716 854 629 q 733 850 804 804 q 545 897 662 897 l 292 897 l 311 1010 l 557 1010 q 804 950 705 1010 q 944 776 903 889 q 959 506 985 663 q 862 234 932 347 q 680 60 792 121 q 415 0 568 0 m 374 1010 l 206 0 l 77 0 l 245 1010 l 374 1010 m 29 453 l 46 557 l 570 557 l 553 453 l 29 453 z "},"ǲ":{"ha":1769,"x_min":59,"x_max":1732,"o":"m 397 0 l 130 0 l 149 114 l 385 114 q 598 161 509 114 q 742 297 687 209 q 816 507 796 386 q 811 716 836 629 q 714 850 785 804 q 527 897 644 897 l 273 897 l 292 1010 l 538 1010 q 785 950 686 1010 q 926 776 884 889 q 941 506 967 663 q 844 234 914 347 q 662 60 774 121 q 397 0 549 0 m 355 1010 l 188 0 l 59 0 l 227 1010 l 355 1010 m 1024 0 l 1040 91 l 1550 637 l 1551 645 l 1145 645 l 1163 758 l 1732 758 l 1716 661 l 1219 121 l 1218 113 l 1638 113 l 1620 0 l 1024 0 z "},"ǅ":{"ha":1769,"x_min":59,"x_max":1732,"o":"m 397 0 l 130 0 l 149 114 l 385 114 q 598 161 509 114 q 742 297 687 209 q 816 507 796 386 q 811 716 836 629 q 714 850 785 804 q 527 897 644 897 l 273 897 l 292 1010 l 538 1010 q 785 950 686 1010 q 926 776 884 889 q 941 506 967 663 q 844 234 914 347 q 662 60 774 121 q 397 0 549 0 m 355 1010 l 188 0 l 59 0 l 227 1010 l 355 1010 m 1024 0 l 1040 91 l 1550 637 l 1551 645 l 1145 645 l 1163 758 l 1732 758 l 1716 661 l 1219 121 l 1218 113 l 1638 113 l 1620 0 l 1024 0 m 1392 1057 l 1470 938 l 1586 1057 l 1708 1057 l 1706 1050 l 1516 869 l 1400 869 l 1271 1050 l 1272 1057 l 1392 1057 z "},"E":{"ha":836,"x_min":59,"x_max":842,"o":"m 59 0 l 227 1010 l 842 1010 l 823 897 l 336 897 l 282 567 l 736 567 l 717 454 l 262 454 l 206 113 l 699 113 l 681 0 l 59 0 z "},"È":{"ha":836,"x_min":59,"x_max":842,"o":"m 59 0 l 227 1010 l 842 1010 l 823 897 l 336 897 l 282 567 l 736 567 l 717 454 l 262 454 l 206 113 l 699 113 l 681 0 l 59 0 m 506 1109 l 408 1309 l 545 1309 l 606 1109 l 506 1109 z "},"É":{"ha":836,"x_min":59,"x_max":842,"o":"m 59 0 l 227 1010 l 842 1010 l 823 897 l 336 897 l 282 567 l 736 567 l 717 454 l 262 454 l 206 113 l 699 113 l 681 0 l 59 0 m 498 1122 l 624 1309 l 760 1309 l 597 1122 l 498 1122 z "},"Ê":{"ha":836,"x_min":59,"x_max":842,"o":"m 59 0 l 227 1010 l 842 1010 l 823 897 l 336 897 l 282 567 l 736 567 l 717 454 l 262 454 l 206 113 l 699 113 l 681 0 l 59 0 m 458 1122 l 338 1122 l 340 1128 l 529 1309 l 645 1309 l 775 1128 l 774 1122 l 652 1122 l 576 1240 l 458 1122 z "},"Ë":{"ha":836,"x_min":59,"x_max":842,"o":"m 59 0 l 227 1010 l 842 1010 l 823 897 l 336 897 l 282 567 l 736 567 l 717 454 l 262 454 l 206 113 l 699 113 l 681 0 l 59 0 m 701 1135 q 648 1158 668 1135 q 634 1215 629 1182 q 667 1272 640 1249 q 728 1295 695 1295 q 781 1272 762 1295 q 795 1215 800 1249 q 762 1158 789 1182 q 701 1135 734 1135 m 416 1135 q 363 1158 382 1135 q 349 1215 343 1182 q 382 1272 354 1249 q 443 1295 410 1295 q 495 1272 476 1295 q 509 1215 515 1249 q 476 1158 504 1182 q 416 1135 449 1135 z "},"Ē":{"ha":836,"x_min":59,"x_max":842,"o":"m 59 0 l 227 1010 l 842 1010 l 823 897 l 336 897 l 282 567 l 736 567 l 717 454 l 262 454 l 206 113 l 699 113 l 681 0 l 59 0 m 768 1263 l 752 1167 l 376 1167 l 393 1263 l 768 1263 z "},"Ĕ":{"ha":836,"x_min":59,"x_max":842,"o":"m 59 0 l 227 1010 l 842 1010 l 823 897 l 336 897 l 282 567 l 736 567 l 717 454 l 262 454 l 206 113 l 699 113 l 681 0 l 59 0 m 555 1117 q 459 1143 500 1117 q 400 1212 419 1168 q 391 1309 382 1255 l 480 1309 q 498 1233 473 1262 q 570 1204 523 1204 q 627 1217 601 1204 q 672 1254 654 1230 q 694 1309 690 1278 l 784 1309 q 742 1212 775 1255 q 659 1142 708 1168 q 555 1117 610 1117 z "},"Ė":{"ha":836,"x_min":59,"x_max":842,"o":"m 59 0 l 227 1010 l 842 1010 l 823 897 l 336 897 l 282 567 l 736 567 l 717 454 l 262 454 l 206 113 l 699 113 l 681 0 l 59 0 m 558 1135 q 503 1158 524 1135 q 487 1215 481 1182 q 522 1273 492 1249 q 585 1296 551 1296 q 642 1273 621 1296 q 657 1215 663 1249 q 623 1158 652 1182 q 558 1135 593 1135 z "},"Ę":{"ha":836,"x_min":59,"x_max":842,"o":"m 59 0 l 227 1010 l 842 1010 l 823 897 l 336 897 l 282 567 l 736 567 l 717 454 l 262 454 l 206 113 l 699 113 l 681 0 l 59 0 m 555 -296 q 448 -262 490 -296 q 418 -164 407 -228 q 464 -71 426 -116 q 563 11 501 -26 l 681 0 q 590 -66 629 -33 q 544 -140 551 -98 q 552 -180 540 -166 q 591 -193 564 -193 q 627 -188 610 -193 q 658 -174 644 -182 l 684 -262 q 629 -284 661 -273 q 555 -296 597 -296 z "},"Ě":{"ha":836,"x_min":59,"x_max":842,"o":"m 59 0 l 227 1010 l 842 1010 l 823 897 l 336 897 l 282 567 l 736 567 l 717 454 l 262 454 l 206 113 l 699 113 l 681 0 l 59 0 m 490 1309 l 568 1190 l 684 1309 l 805 1309 l 804 1303 l 613 1122 l 497 1122 l 368 1303 l 370 1309 l 490 1309 z "},"Ȅ":{"ha":836,"x_min":59,"x_max":842,"o":"m 59 0 l 227 1010 l 842 1010 l 823 897 l 336 897 l 282 567 l 736 567 l 717 454 l 262 454 l 206 113 l 699 113 l 681 0 l 59 0 m 616 1109 l 534 1309 l 670 1309 l 716 1109 l 616 1109 m 394 1109 l 277 1309 l 414 1309 l 494 1109 l 394 1109 z "},"Ȇ":{"ha":836,"x_min":59,"x_max":842,"o":"m 59 0 l 227 1010 l 842 1010 l 823 897 l 336 897 l 282 567 l 736 567 l 717 454 l 262 454 l 206 113 l 699 113 l 681 0 l 59 0 m 590 1326 q 692 1299 650 1326 q 753 1225 734 1272 q 763 1122 772 1179 l 673 1122 q 652 1203 682 1172 q 575 1235 622 1235 q 488 1203 528 1235 q 439 1122 448 1172 l 349 1122 q 393 1225 359 1179 q 479 1299 428 1272 q 590 1326 530 1326 z "},"Ȩ":{"ha":836,"x_min":59,"x_max":842,"o":"m 59 0 l 227 1010 l 842 1010 l 823 897 l 336 897 l 282 567 l 736 567 l 717 454 l 262 454 l 206 113 l 699 113 l 681 0 l 59 0 m 248 -283 l 260 -212 l 340 -212 q 393 -202 377 -212 q 414 -168 410 -193 q 406 -134 418 -144 q 355 -123 393 -123 l 299 -123 l 345 33 l 410 33 l 404 0 l 395 -58 q 486 -86 459 -61 q 505 -166 513 -112 q 454 -255 495 -227 q 329 -283 412 -283 l 248 -283 z "},"Ḕ":{"ha":836,"x_min":59,"x_max":842,"o":"m 59 0 l 227 1010 l 842 1010 l 823 897 l 336 897 l 282 567 l 736 567 l 717 454 l 262 454 l 206 113 l 699 113 l 681 0 l 59 0 m 766 1244 l 749 1148 l 374 1148 l 390 1244 l 766 1244 m 549 1348 l 450 1535 l 586 1535 l 649 1348 l 549 1348 z "},"Ḗ":{"ha":836,"x_min":59,"x_max":842,"o":"m 59 0 l 227 1010 l 842 1010 l 823 897 l 336 897 l 282 567 l 736 567 l 717 454 l 262 454 l 206 113 l 699 113 l 681 0 l 59 0 m 766 1244 l 749 1148 l 374 1148 l 390 1244 l 766 1244 m 547 1348 l 673 1535 l 809 1535 l 646 1348 l 547 1348 z "},"Ḙ":{"ha":836,"x_min":59,"x_max":842,"o":"m 59 0 l 227 1010 l 842 1010 l 823 897 l 336 897 l 282 567 l 736 567 l 717 454 l 262 454 l 206 113 l 699 113 l 681 0 l 59 0 m 228 -298 l 108 -298 l 109 -292 l 298 -111 l 414 -111 l 545 -292 l 543 -298 l 422 -298 l 346 -180 l 228 -298 z "},"Ḛ":{"ha":836,"x_min":59,"x_max":842,"o":"m 59 0 l 227 1010 l 842 1010 l 823 897 l 336 897 l 282 567 l 736 567 l 717 454 l 262 454 l 206 113 l 699 113 l 681 0 l 59 0 m 417 -277 q 369 -269 392 -277 q 327 -249 347 -260 q 291 -230 307 -238 q 262 -221 275 -221 q 232 -238 243 -221 q 216 -275 220 -256 l 131 -275 q 177 -173 144 -212 q 264 -134 211 -134 q 312 -142 291 -134 q 351 -162 333 -151 q 385 -182 369 -174 q 418 -191 401 -191 q 447 -178 436 -191 q 465 -136 457 -165 l 549 -136 q 501 -240 536 -202 q 417 -277 466 -277 z "},"Ḝ":{"ha":836,"x_min":59,"x_max":842,"o":"m 59 0 l 227 1010 l 842 1010 l 823 897 l 336 897 l 282 567 l 736 567 l 717 454 l 262 454 l 206 113 l 699 113 l 681 0 l 59 0 m 248 -283 l 260 -212 l 340 -212 q 393 -202 377 -212 q 414 -168 410 -193 q 406 -134 418 -144 q 355 -123 393 -123 l 299 -123 l 345 33 l 410 33 l 404 0 l 395 -58 q 486 -86 459 -61 q 505 -166 513 -112 q 454 -255 495 -227 q 329 -283 412 -283 l 248 -283 m 555 1117 q 459 1143 500 1117 q 400 1212 419 1168 q 391 1309 382 1255 l 480 1309 q 498 1233 473 1262 q 570 1204 523 1204 q 627 1217 601 1204 q 672 1254 654 1230 q 694 1309 690 1278 l 784 1309 q 742 1212 775 1255 q 659 1142 708 1168 q 555 1117 610 1117 z "},"Ẹ":{"ha":836,"x_min":59,"x_max":842,"o":"m 59 0 l 227 1010 l 842 1010 l 823 897 l 336 897 l 282 567 l 736 567 l 717 454 l 262 454 l 206 113 l 699 113 l 681 0 l 59 0 m 326 -286 q 270 -262 291 -286 q 254 -205 249 -238 q 289 -148 260 -171 q 353 -124 318 -124 q 409 -148 388 -124 q 425 -205 430 -171 q 390 -262 419 -238 q 326 -286 361 -286 z "},"Ẻ":{"ha":836,"x_min":59,"x_max":842,"o":"m 59 0 l 227 1010 l 842 1010 l 823 897 l 336 897 l 282 567 l 736 567 l 717 454 l 262 454 l 206 113 l 699 113 l 681 0 l 59 0 m 594 1109 l 503 1109 l 566 1202 q 572 1223 575 1217 q 555 1229 569 1229 l 461 1229 l 474 1309 l 568 1309 q 634 1298 609 1309 q 669 1268 660 1287 q 671 1223 678 1249 q 641 1168 665 1198 l 594 1109 z "},"Ẽ":{"ha":836,"x_min":59,"x_max":842,"o":"m 59 0 l 227 1010 l 842 1010 l 823 897 l 336 897 l 282 567 l 736 567 l 717 454 l 262 454 l 206 113 l 699 113 l 681 0 l 59 0 m 649 1143 q 601 1151 624 1143 q 559 1171 578 1160 q 523 1191 539 1182 q 494 1199 507 1199 q 464 1182 475 1199 q 448 1145 452 1164 l 363 1145 q 409 1247 376 1208 q 496 1286 443 1286 q 544 1278 523 1286 q 583 1258 565 1269 q 617 1238 601 1246 q 650 1229 633 1229 q 679 1242 668 1229 q 697 1284 689 1255 l 781 1284 q 733 1180 768 1218 q 649 1143 698 1143 z "},"Ế":{"ha":836,"x_min":59,"x_max":953,"o":"m 59 0 l 227 1010 l 842 1010 l 823 897 l 336 897 l 282 567 l 736 567 l 717 454 l 262 454 l 206 113 l 699 113 l 681 0 l 59 0 m 460 1103 l 340 1103 l 342 1109 l 531 1290 l 647 1290 l 777 1109 l 776 1103 l 654 1103 l 578 1221 l 460 1103 m 690 1348 l 817 1535 l 953 1535 l 790 1348 l 690 1348 z "},"Ề":{"ha":836,"x_min":59,"x_max":842,"o":"m 59 0 l 227 1010 l 842 1010 l 823 897 l 336 897 l 282 567 l 736 567 l 717 454 l 262 454 l 206 113 l 699 113 l 681 0 l 59 0 m 460 1103 l 340 1103 l 342 1109 l 531 1290 l 647 1290 l 777 1109 l 776 1103 l 654 1103 l 578 1221 l 460 1103 m 723 1348 l 623 1535 l 760 1535 l 823 1348 l 723 1348 z "},"Ể":{"ha":836,"x_min":59,"x_max":855,"o":"m 59 0 l 227 1010 l 842 1010 l 823 897 l 336 897 l 282 567 l 736 567 l 717 454 l 262 454 l 206 113 l 699 113 l 681 0 l 59 0 m 460 1103 l 340 1103 l 342 1109 l 531 1290 l 647 1290 l 777 1109 l 776 1103 l 654 1103 l 578 1221 l 460 1103 m 771 1335 l 680 1335 l 743 1428 q 749 1449 752 1442 q 732 1455 746 1455 l 638 1455 l 651 1535 l 745 1535 q 811 1524 786 1535 q 846 1494 837 1513 q 848 1449 855 1474 q 818 1394 842 1423 l 771 1335 z "},"Ễ":{"ha":836,"x_min":59,"x_max":842,"o":"m 59 0 l 227 1010 l 842 1010 l 823 897 l 336 897 l 282 567 l 736 567 l 717 454 l 262 454 l 206 113 l 699 113 l 681 0 l 59 0 m 460 1103 l 340 1103 l 342 1109 l 531 1290 l 647 1290 l 777 1109 l 776 1103 l 654 1103 l 578 1221 l 460 1103 m 690 1367 q 642 1375 665 1367 q 600 1395 619 1383 q 564 1414 580 1406 q 534 1423 547 1423 q 504 1406 515 1423 q 489 1369 493 1388 l 404 1369 q 450 1471 416 1432 q 537 1510 484 1510 q 585 1501 564 1510 q 624 1481 606 1493 q 658 1461 642 1470 q 691 1453 674 1453 q 719 1466 709 1453 q 738 1508 730 1479 l 821 1508 q 773 1404 808 1442 q 690 1367 739 1367 z "},"Ệ":{"ha":836,"x_min":59,"x_max":842,"o":"m 59 0 l 227 1010 l 842 1010 l 823 897 l 336 897 l 282 567 l 736 567 l 717 454 l 262 454 l 206 113 l 699 113 l 681 0 l 59 0 m 458 1122 l 338 1122 l 340 1128 l 529 1309 l 645 1309 l 775 1128 l 774 1122 l 652 1122 l 576 1240 l 458 1122 m 326 -286 q 270 -262 291 -286 q 254 -205 249 -238 q 289 -148 260 -171 q 353 -124 318 -124 q 409 -148 388 -124 q 425 -205 430 -171 q 390 -262 419 -238 q 326 -286 361 -286 z "},"Ɇ":{"ha":836,"x_min":59,"x_max":842,"o":"m 134 -129 l 711 1138 l 823 1138 l 247 -129 l 134 -129 m 59 0 l 227 1010 l 842 1010 l 823 897 l 336 897 l 282 567 l 736 567 l 717 454 l 262 454 l 206 113 l 699 113 l 681 0 l 59 0 z "},"Ǝ":{"ha":836,"x_min":35,"x_max":819,"o":"m 819 1010 l 651 0 l 35 0 l 54 113 l 541 113 l 595 444 l 142 444 l 161 557 l 615 557 l 671 897 l 178 897 l 197 1010 l 819 1010 z "},"Ε":{"ha":836,"x_min":59,"x_max":842,"o":"m 59 0 l 227 1010 l 842 1010 l 823 897 l 336 897 l 282 567 l 736 567 l 717 454 l 262 454 l 206 113 l 699 113 l 681 0 l 59 0 z "},"Έ":{"ha":1027,"x_min":139,"x_max":1034,"o":"m 251 0 l 418 1010 l 1034 1010 l 1015 897 l 528 897 l 474 567 l 928 567 l 909 454 l 454 454 l 398 113 l 891 113 l 873 0 l 251 0 m 139 811 l 195 1010 l 326 1010 l 224 811 l 139 811 z "},"Ἐ":{"ha":1071,"x_min":158,"x_max":1078,"o":"m 294 0 l 462 1010 l 1078 1010 l 1059 897 l 572 897 l 517 567 l 971 567 l 952 454 l 498 454 l 441 113 l 935 113 l 916 0 l 294 0 m 167 827 l 158 827 l 166 876 l 175 876 q 229 888 210 876 q 252 924 248 900 q 240 956 256 945 q 190 966 224 966 l 165 966 l 177 1039 l 202 1039 q 318 1013 283 1039 q 345 935 354 987 q 292 854 336 881 q 167 827 248 827 z "},"Ἑ":{"ha":1077,"x_min":147,"x_max":1084,"o":"m 300 0 l 468 1010 l 1084 1010 l 1065 897 l 578 897 l 524 567 l 977 567 l 958 454 l 504 454 l 448 113 l 941 113 l 922 0 l 300 0 m 299 805 q 183 832 219 805 q 156 913 147 859 q 210 991 165 966 q 334 1017 254 1017 l 359 1017 l 347 945 l 322 945 q 269 934 288 945 q 246 903 250 924 q 257 866 242 878 q 307 854 273 854 l 316 854 l 308 805 l 299 805 z "},"Ἒ":{"ha":1290,"x_min":155,"x_max":1297,"o":"m 514 0 l 682 1010 l 1297 1010 l 1278 897 l 791 897 l 737 567 l 1191 567 l 1172 454 l 718 454 l 661 113 l 1154 113 l 1136 0 l 514 0 m 163 805 l 155 805 l 163 854 l 172 854 q 225 866 206 854 q 249 903 245 878 q 237 934 252 924 q 186 945 221 945 l 161 945 l 174 1017 l 199 1017 q 315 991 279 1017 q 342 913 351 966 q 289 832 333 859 q 163 805 244 805 m 552 811 l 467 811 l 431 1010 l 562 1010 l 552 811 z "},"Ἓ":{"ha":1306,"x_min":147,"x_max":1313,"o":"m 530 0 l 697 1010 l 1313 1010 l 1294 897 l 807 897 l 753 567 l 1206 567 l 1187 454 l 733 454 l 677 113 l 1170 113 l 1152 0 l 530 0 m 299 805 q 183 832 219 805 q 156 913 147 859 q 210 991 165 966 q 334 1017 254 1017 l 359 1017 l 347 945 l 322 945 q 269 934 288 945 q 246 903 250 924 q 257 866 242 878 q 307 854 273 854 l 316 854 l 308 805 l 299 805 m 568 811 l 483 811 l 447 1010 l 578 1010 l 568 811 z "},"Ἔ":{"ha":1295,"x_min":155,"x_max":1301,"o":"m 518 0 l 686 1010 l 1301 1010 l 1282 897 l 795 897 l 741 567 l 1195 567 l 1176 454 l 722 454 l 665 113 l 1158 113 l 1140 0 l 518 0 m 163 805 l 155 805 l 163 854 l 172 854 q 225 866 206 854 q 249 903 245 878 q 237 934 252 924 q 186 945 221 945 l 161 945 l 174 1017 l 199 1017 q 315 991 279 1017 q 342 913 351 966 q 289 832 333 859 q 163 805 244 805 m 408 811 l 465 1010 l 595 1010 l 493 811 l 408 811 z "},"Ἕ":{"ha":1299,"x_min":147,"x_max":1306,"o":"m 523 0 l 690 1010 l 1306 1010 l 1287 897 l 800 897 l 746 567 l 1200 567 l 1181 454 l 726 454 l 670 113 l 1163 113 l 1145 0 l 523 0 m 299 805 q 183 832 219 805 q 156 913 147 859 q 210 991 165 966 q 334 1017 254 1017 l 359 1017 l 347 945 l 322 945 q 269 934 288 945 q 246 903 250 924 q 257 866 242 878 q 307 854 273 854 l 316 854 l 308 805 l 299 805 m 413 811 l 469 1010 l 600 1010 l 498 811 l 413 811 z "},"Ὲ":{"ha":958,"x_min":113,"x_max":964,"o":"m 181 0 l 349 1010 l 964 1010 l 945 897 l 458 897 l 404 567 l 858 567 l 839 454 l 385 454 l 328 113 l 821 113 l 803 0 l 181 0 m 233 857 l 149 857 l 113 1057 l 243 1057 l 233 857 z "},"Έ":{"ha":1027,"x_min":139,"x_max":1034,"o":"m 251 0 l 418 1010 l 1034 1010 l 1015 897 l 528 897 l 474 567 l 928 567 l 909 454 l 454 454 l 398 113 l 891 113 l 873 0 l 251 0 m 139 811 l 195 1010 l 326 1010 l 224 811 l 139 811 z "},"Е":{"ha":836,"x_min":59,"x_max":842,"o":"m 59 0 l 227 1010 l 842 1010 l 823 897 l 336 897 l 282 567 l 736 567 l 717 454 l 262 454 l 206 113 l 699 113 l 681 0 l 59 0 z "},"Ѐ":{"ha":836,"x_min":59,"x_max":842,"o":"m 59 0 l 227 1010 l 842 1010 l 823 897 l 336 897 l 282 567 l 736 567 l 717 454 l 262 454 l 206 113 l 699 113 l 681 0 l 59 0 m 506 1109 l 408 1309 l 545 1309 l 606 1109 l 506 1109 z "},"Ё":{"ha":836,"x_min":59,"x_max":842,"o":"m 59 0 l 227 1010 l 842 1010 l 823 897 l 336 897 l 282 567 l 736 567 l 717 454 l 262 454 l 206 113 l 699 113 l 681 0 l 59 0 m 701 1135 q 648 1158 668 1135 q 634 1215 629 1182 q 667 1272 640 1249 q 728 1295 695 1295 q 781 1272 762 1295 q 795 1215 800 1249 q 762 1158 789 1182 q 701 1135 734 1135 m 416 1135 q 363 1158 382 1135 q 349 1215 343 1182 q 382 1272 354 1249 q 443 1295 410 1295 q 495 1272 476 1295 q 509 1215 515 1249 q 476 1158 504 1182 q 416 1135 449 1135 z "},"Ӗ":{"ha":836,"x_min":59,"x_max":842,"o":"m 59 0 l 227 1010 l 842 1010 l 823 897 l 336 897 l 282 567 l 736 567 l 717 454 l 262 454 l 206 113 l 699 113 l 681 0 l 59 0 m 555 1117 q 459 1143 500 1117 q 400 1212 419 1168 q 391 1309 382 1255 l 480 1309 q 498 1233 473 1262 q 570 1204 523 1204 q 627 1217 601 1204 q 672 1254 654 1230 q 694 1309 690 1278 l 784 1309 q 742 1212 775 1255 q 659 1142 708 1168 q 555 1117 610 1117 z "},"F":{"ha":820,"x_min":59,"x_max":838,"o":"m 59 0 l 227 1010 l 838 1010 l 819 897 l 336 897 l 279 550 l 715 550 l 696 437 l 260 437 l 188 0 l 59 0 z "},"Ƒ":{"ha":820,"x_min":-127,"x_max":838,"o":"m -127 -283 l -109 -176 q -88 -178 -98 -178 q -70 -179 -77 -179 q 12 -162 -12 -179 q 41 -111 35 -144 l 73 87 l 202 87 l 168 -116 q 96 -245 154 -201 q -58 -290 38 -290 q -99 -288 -80 -290 q -127 -283 -117 -286 m 59 0 l 227 1010 l 838 1010 l 819 897 l 336 897 l 279 550 l 715 550 l 696 437 l 260 437 l 188 0 l 59 0 z "},"Ḟ":{"ha":820,"x_min":59,"x_max":838,"o":"m 59 0 l 227 1010 l 838 1010 l 819 897 l 336 897 l 279 550 l 715 550 l 696 437 l 260 437 l 188 0 l 59 0 m 553 1135 q 497 1158 518 1135 q 481 1215 476 1182 q 516 1273 487 1249 q 580 1296 545 1296 q 636 1273 615 1296 q 652 1215 657 1249 q 617 1158 646 1182 q 553 1135 588 1135 z "},"Ⅎ":{"ha":820,"x_min":24,"x_max":803,"o":"m 803 1010 l 635 0 l 24 0 l 43 113 l 526 113 l 583 460 l 147 460 l 165 574 l 602 574 l 674 1010 l 803 1010 z "},"G":{"ha":1036,"x_min":94,"x_max":994,"o":"m 477 -14 q 273 35 359 -14 q 141 175 187 84 q 94 391 94 265 q 131 624 94 511 q 237 827 168 737 q 405 971 306 918 q 627 1024 503 1024 q 775 1000 708 1024 q 891 932 842 976 q 966 828 939 888 q 994 694 993 767 l 861 694 q 835 781 854 743 q 787 848 817 820 q 715 890 757 876 q 622 905 674 905 q 454 861 528 905 q 327 745 380 818 q 247 581 275 671 q 219 397 219 491 q 292 180 219 254 q 482 106 366 106 q 643 143 570 106 q 764 248 715 180 q 828 407 813 316 l 864 395 l 564 395 l 583 508 l 970 508 l 951 393 q 894 225 936 300 q 789 97 852 150 q 646 15 726 43 q 477 -14 567 -14 z "},"Ǥ":{"ha":1036,"x_min":94,"x_max":994,"o":"m 477 -14 q 273 35 359 -14 q 141 175 187 84 q 94 391 94 265 q 131 624 94 511 q 237 827 168 737 q 405 971 306 918 q 627 1024 503 1024 q 775 1000 708 1024 q 891 932 842 976 q 966 828 939 888 q 994 694 993 767 l 861 694 q 835 781 854 743 q 787 848 817 820 q 715 890 757 876 q 622 905 674 905 q 454 861 528 905 q 327 745 380 818 q 247 581 275 671 q 219 397 219 491 q 292 180 219 254 q 482 106 366 106 q 643 143 570 106 q 764 248 715 180 q 828 407 813 316 l 864 395 l 564 395 l 583 508 l 970 508 l 951 393 q 894 225 936 300 q 789 97 852 150 q 646 15 726 43 q 477 -14 567 -14 m 535 221 l 550 311 l 988 311 l 973 221 l 535 221 z "},"Ɠ":{"ha":1036,"x_min":94,"x_max":1216,"o":"m 918 724 l 924 969 q 957 1069 925 1031 q 1039 1124 988 1107 q 1147 1142 1089 1142 q 1188 1140 1169 1142 q 1216 1136 1206 1139 l 1200 1035 q 1179 1037 1190 1036 q 1160 1038 1168 1038 q 1074 1021 1103 1038 q 1039 969 1044 1004 l 994 694 l 918 724 m 477 -14 q 273 35 359 -14 q 141 175 187 84 q 94 391 94 265 q 131 624 94 511 q 237 827 168 737 q 405 971 306 918 q 627 1024 503 1024 q 775 1000 708 1024 q 891 932 842 976 q 966 828 939 888 q 994 694 993 767 l 861 694 q 835 781 854 743 q 787 848 817 820 q 715 890 757 876 q 622 905 674 905 q 454 861 528 905 q 327 745 380 818 q 247 581 275 671 q 219 397 219 491 q 292 180 219 254 q 482 106 366 106 q 643 143 570 106 q 764 248 715 180 q 828 407 813 316 l 864 395 l 564 395 l 583 508 l 970 508 l 951 393 q 894 225 936 300 q 789 97 852 150 q 646 15 726 43 q 477 -14 567 -14 z "},"Ĝ":{"ha":1036,"x_min":94,"x_max":994,"o":"m 477 -14 q 273 35 359 -14 q 141 175 187 84 q 94 391 94 265 q 131 624 94 511 q 237 827 168 737 q 405 971 306 918 q 627 1024 503 1024 q 775 1000 708 1024 q 891 932 842 976 q 966 828 939 888 q 994 694 993 767 l 861 694 q 835 781 854 743 q 787 848 817 820 q 715 890 757 876 q 622 905 674 905 q 454 861 528 905 q 327 745 380 818 q 247 581 275 671 q 219 397 219 491 q 292 180 219 254 q 482 106 366 106 q 643 143 570 106 q 764 248 715 180 q 828 407 813 316 l 864 395 l 564 395 l 583 508 l 970 508 l 951 393 q 894 225 936 300 q 789 97 852 150 q 646 15 726 43 q 477 -14 567 -14 m 552 1122 l 432 1122 l 433 1128 l 623 1309 l 739 1309 l 869 1128 l 867 1122 l 746 1122 l 670 1240 l 552 1122 z "},"Ğ":{"ha":1036,"x_min":94,"x_max":994,"o":"m 477 -14 q 273 35 359 -14 q 141 175 187 84 q 94 391 94 265 q 131 624 94 511 q 237 827 168 737 q 405 971 306 918 q 627 1024 503 1024 q 775 1000 708 1024 q 891 932 842 976 q 966 828 939 888 q 994 694 993 767 l 861 694 q 835 781 854 743 q 787 848 817 820 q 715 890 757 876 q 622 905 674 905 q 454 861 528 905 q 327 745 380 818 q 247 581 275 671 q 219 397 219 491 q 292 180 219 254 q 482 106 366 106 q 643 143 570 106 q 764 248 715 180 q 828 407 813 316 l 864 395 l 564 395 l 583 508 l 970 508 l 951 393 q 894 225 936 300 q 789 97 852 150 q 646 15 726 43 q 477 -14 567 -14 m 648 1117 q 553 1143 593 1117 q 494 1212 513 1168 q 484 1309 475 1255 l 574 1309 q 591 1233 566 1262 q 663 1204 616 1204 q 721 1217 694 1204 q 765 1254 747 1230 q 788 1309 783 1278 l 878 1309 q 835 1212 869 1255 q 753 1142 802 1168 q 648 1117 704 1117 z "},"Ġ":{"ha":1036,"x_min":94,"x_max":994,"o":"m 477 -14 q 273 35 359 -14 q 141 175 187 84 q 94 391 94 265 q 131 624 94 511 q 237 827 168 737 q 405 971 306 918 q 627 1024 503 1024 q 775 1000 708 1024 q 891 932 842 976 q 966 828 939 888 q 994 694 993 767 l 861 694 q 835 781 854 743 q 787 848 817 820 q 715 890 757 876 q 622 905 674 905 q 454 861 528 905 q 327 745 380 818 q 247 581 275 671 q 219 397 219 491 q 292 180 219 254 q 482 106 366 106 q 643 143 570 106 q 764 248 715 180 q 828 407 813 316 l 864 395 l 564 395 l 583 508 l 970 508 l 951 393 q 894 225 936 300 q 789 97 852 150 q 646 15 726 43 q 477 -14 567 -14 m 652 1135 q 596 1158 617 1135 q 581 1215 575 1182 q 615 1273 586 1249 q 679 1296 644 1296 q 735 1273 714 1296 q 751 1215 756 1249 q 716 1158 745 1182 q 652 1135 687 1135 z "},"Ģ":{"ha":1036,"x_min":94,"x_max":994,"o":"m 477 -14 q 273 35 359 -14 q 141 175 187 84 q 94 391 94 265 q 131 624 94 511 q 237 827 168 737 q 405 971 306 918 q 627 1024 503 1024 q 775 1000 708 1024 q 891 932 842 976 q 966 828 939 888 q 994 694 993 767 l 861 694 q 835 781 854 743 q 787 848 817 820 q 715 890 757 876 q 622 905 674 905 q 454 861 528 905 q 327 745 380 818 q 247 581 275 671 q 219 397 219 491 q 292 180 219 254 q 482 106 366 106 q 643 143 570 106 q 764 248 715 180 q 828 407 813 316 l 864 395 l 564 395 l 583 508 l 970 508 l 951 393 q 894 225 936 300 q 789 97 852 150 q 646 15 726 43 q 477 -14 567 -14 m 288 -334 l 385 -80 l 511 -80 l 382 -334 l 288 -334 z "},"Ǧ":{"ha":1036,"x_min":94,"x_max":994,"o":"m 477 -14 q 273 35 359 -14 q 141 175 187 84 q 94 391 94 265 q 131 624 94 511 q 237 827 168 737 q 405 971 306 918 q 627 1024 503 1024 q 775 1000 708 1024 q 891 932 842 976 q 966 828 939 888 q 994 694 993 767 l 861 694 q 835 781 854 743 q 787 848 817 820 q 715 890 757 876 q 622 905 674 905 q 454 861 528 905 q 327 745 380 818 q 247 581 275 671 q 219 397 219 491 q 292 180 219 254 q 482 106 366 106 q 643 143 570 106 q 764 248 715 180 q 828 407 813 316 l 864 395 l 564 395 l 583 508 l 970 508 l 951 393 q 894 225 936 300 q 789 97 852 150 q 646 15 726 43 q 477 -14 567 -14 m 583 1309 l 661 1190 l 777 1309 l 899 1309 l 897 1303 l 707 1122 l 591 1122 l 462 1303 l 463 1309 l 583 1309 z "},"Ǵ":{"ha":1036,"x_min":94,"x_max":994,"o":"m 477 -14 q 273 35 359 -14 q 141 175 187 84 q 94 391 94 265 q 131 624 94 511 q 237 827 168 737 q 405 971 306 918 q 627 1024 503 1024 q 775 1000 708 1024 q 891 932 842 976 q 966 828 939 888 q 994 694 993 767 l 861 694 q 835 781 854 743 q 787 848 817 820 q 715 890 757 876 q 622 905 674 905 q 454 861 528 905 q 327 745 380 818 q 247 581 275 671 q 219 397 219 491 q 292 180 219 254 q 482 106 366 106 q 643 143 570 106 q 764 248 715 180 q 828 407 813 316 l 864 395 l 564 395 l 583 508 l 970 508 l 951 393 q 894 225 936 300 q 789 97 852 150 q 646 15 726 43 q 477 -14 567 -14 m 591 1122 l 718 1309 l 854 1309 l 691 1122 l 591 1122 z "},"Ḡ":{"ha":1036,"x_min":94,"x_max":994,"o":"m 477 -14 q 273 35 359 -14 q 141 175 187 84 q 94 391 94 265 q 131 624 94 511 q 237 827 168 737 q 405 971 306 918 q 627 1024 503 1024 q 775 1000 708 1024 q 891 932 842 976 q 966 828 939 888 q 994 694 993 767 l 861 694 q 835 781 854 743 q 787 848 817 820 q 715 890 757 876 q 622 905 674 905 q 454 861 528 905 q 327 745 380 818 q 247 581 275 671 q 219 397 219 491 q 292 180 219 254 q 482 106 366 106 q 643 143 570 106 q 764 248 715 180 q 828 407 813 316 l 864 395 l 564 395 l 583 508 l 970 508 l 951 393 q 894 225 936 300 q 789 97 852 150 q 646 15 726 43 q 477 -14 567 -14 m 862 1263 l 846 1167 l 470 1167 l 486 1263 l 862 1263 z "},"":{"ha":1036,"x_min":77,"x_max":994,"o":"m 458 -14 q 241 50 330 -14 q 114 229 152 113 q 103 505 77 345 q 171 721 123 625 q 290 884 220 817 q 448 988 361 952 q 633 1024 536 1024 q 780 1000 715 1024 q 893 932 846 976 q 966 827 941 888 q 994 694 992 766 l 861 694 q 834 781 854 743 q 784 848 815 820 q 710 890 753 876 q 614 905 668 905 q 446 859 526 905 q 308 725 366 814 q 229 506 250 636 q 235 287 207 376 q 331 152 264 197 q 490 106 397 106 q 651 144 580 106 q 769 253 722 182 q 831 421 816 323 l 881 421 l 866 327 q 826 205 857 266 q 745 96 795 145 q 622 16 694 46 q 458 -14 551 -14 m 785 0 l 795 191 l 830 395 l 563 395 l 581 508 l 970 508 l 886 0 l 785 0 z "},"":{"ha":1036,"x_min":77,"x_max":994,"o":"m 458 -14 q 241 50 330 -14 q 114 229 152 113 q 103 505 77 345 q 171 721 123 625 q 290 884 220 817 q 448 988 361 952 q 633 1024 536 1024 q 780 1000 715 1024 q 893 932 846 976 q 966 827 941 888 q 994 694 992 766 l 861 694 q 834 781 854 743 q 784 848 815 820 q 710 890 753 876 q 614 905 668 905 q 446 859 526 905 q 308 725 366 814 q 229 506 250 636 q 235 287 207 376 q 331 152 264 197 q 490 106 397 106 q 651 144 580 106 q 769 253 722 182 q 831 421 816 323 l 881 421 l 866 327 q 826 205 857 266 q 745 96 795 145 q 622 16 694 46 q 458 -14 551 -14 m 785 0 l 795 191 l 830 395 l 563 395 l 581 508 l 970 508 l 886 0 l 785 0 m 535 221 l 550 311 l 988 311 l 973 221 l 535 221 z "},"":{"ha":1036,"x_min":77,"x_max":1215,"o":"m 918 724 l 923 969 q 956 1069 924 1031 q 1038 1124 987 1107 q 1146 1142 1088 1142 q 1187 1140 1168 1142 q 1215 1136 1206 1139 l 1199 1035 q 1178 1037 1189 1036 q 1160 1038 1167 1038 q 1073 1021 1102 1038 q 1038 969 1044 1004 l 994 694 l 918 724 m 458 -14 q 241 50 330 -14 q 114 229 152 113 q 103 505 77 345 q 171 721 123 625 q 290 884 220 817 q 448 988 361 952 q 633 1024 536 1024 q 780 1000 715 1024 q 893 932 846 976 q 966 827 941 888 q 994 694 992 766 l 861 694 q 834 781 854 743 q 784 848 815 820 q 710 890 753 876 q 614 905 668 905 q 446 859 526 905 q 308 725 366 814 q 229 506 250 636 q 235 287 207 376 q 331 152 264 197 q 490 106 397 106 q 651 144 580 106 q 769 253 722 182 q 831 421 816 323 l 881 421 l 866 327 q 826 205 857 266 q 745 96 795 145 q 622 16 694 46 q 458 -14 551 -14 m 785 0 l 795 191 l 830 395 l 563 395 l 581 508 l 970 508 l 886 0 l 785 0 z "},"":{"ha":1042,"x_min":77,"x_max":994,"o":"m 458 -14 q 241 50 330 -14 q 114 229 152 113 q 103 505 77 345 q 171 721 123 625 q 290 884 220 817 q 448 988 361 952 q 633 1024 536 1024 q 780 1000 715 1024 q 893 932 846 976 q 966 827 941 888 q 994 694 992 766 l 861 694 q 834 781 854 743 q 784 848 815 820 q 710 890 753 876 q 614 905 668 905 q 446 859 526 905 q 308 725 366 814 q 229 506 250 636 q 235 287 207 376 q 331 152 264 197 q 490 106 397 106 q 651 144 580 106 q 769 253 722 182 q 831 421 816 323 l 881 421 l 866 327 q 826 205 857 266 q 745 96 795 145 q 622 16 694 46 q 458 -14 551 -14 m 785 0 l 795 191 l 830 395 l 563 395 l 581 508 l 970 508 l 886 0 l 785 0 m 552 1122 l 432 1122 l 433 1128 l 623 1309 l 739 1309 l 869 1128 l 867 1122 l 746 1122 l 670 1240 l 552 1122 z "},"":{"ha":1042,"x_min":77,"x_max":994,"o":"m 458 -14 q 241 50 330 -14 q 114 229 152 113 q 103 505 77 345 q 171 721 123 625 q 290 884 220 817 q 448 988 361 952 q 633 1024 536 1024 q 780 1000 715 1024 q 893 932 846 976 q 966 827 941 888 q 994 694 992 766 l 861 694 q 834 781 854 743 q 784 848 815 820 q 710 890 753 876 q 614 905 668 905 q 446 859 526 905 q 308 725 366 814 q 229 506 250 636 q 235 287 207 376 q 331 152 264 197 q 490 106 397 106 q 651 144 580 106 q 769 253 722 182 q 831 421 816 323 l 881 421 l 866 327 q 826 205 857 266 q 745 96 795 145 q 622 16 694 46 q 458 -14 551 -14 m 785 0 l 795 191 l 830 395 l 563 395 l 581 508 l 970 508 l 886 0 l 785 0 m 648 1117 q 553 1143 593 1117 q 494 1212 513 1168 q 484 1309 475 1255 l 574 1309 q 591 1233 566 1262 q 663 1204 616 1204 q 721 1217 694 1204 q 765 1254 747 1230 q 788 1309 783 1278 l 878 1309 q 835 1212 869 1255 q 753 1142 802 1168 q 648 1117 704 1117 z "},"":{"ha":1036,"x_min":77,"x_max":994,"o":"m 458 -14 q 241 50 330 -14 q 114 229 152 113 q 103 505 77 345 q 171 721 123 625 q 290 884 220 817 q 448 988 361 952 q 633 1024 536 1024 q 780 1000 715 1024 q 893 932 846 976 q 966 827 941 888 q 994 694 992 766 l 861 694 q 834 781 854 743 q 784 848 815 820 q 710 890 753 876 q 614 905 668 905 q 446 859 526 905 q 308 725 366 814 q 229 506 250 636 q 235 287 207 376 q 331 152 264 197 q 490 106 397 106 q 651 144 580 106 q 769 253 722 182 q 831 421 816 323 l 881 421 l 866 327 q 826 205 857 266 q 745 96 795 145 q 622 16 694 46 q 458 -14 551 -14 m 785 0 l 795 191 l 830 395 l 563 395 l 581 508 l 970 508 l 886 0 l 785 0 m 652 1135 q 596 1158 617 1135 q 581 1215 575 1182 q 615 1273 586 1249 q 679 1296 644 1296 q 735 1273 714 1296 q 751 1215 756 1249 q 716 1158 745 1182 q 652 1135 687 1135 z "},"":{"ha":1042,"x_min":77,"x_max":994,"o":"m 458 -14 q 241 50 330 -14 q 114 229 152 113 q 103 505 77 345 q 171 721 123 625 q 290 884 220 817 q 448 988 361 952 q 633 1024 536 1024 q 780 1000 715 1024 q 893 932 846 976 q 966 827 941 888 q 994 694 992 766 l 861 694 q 834 781 854 743 q 784 848 815 820 q 710 890 753 876 q 614 905 668 905 q 446 859 526 905 q 308 725 366 814 q 229 506 250 636 q 235 287 207 376 q 331 152 264 197 q 490 106 397 106 q 651 144 580 106 q 769 253 722 182 q 831 421 816 323 l 881 421 l 866 327 q 826 205 857 266 q 745 96 795 145 q 622 16 694 46 q 458 -14 551 -14 m 785 0 l 795 191 l 830 395 l 563 395 l 581 508 l 970 508 l 886 0 l 785 0 m 288 -334 l 385 -80 l 511 -80 l 382 -334 l 288 -334 z "},"":{"ha":1042,"x_min":77,"x_max":994,"o":"m 458 -14 q 241 50 330 -14 q 114 229 152 113 q 103 505 77 345 q 171 721 123 625 q 290 884 220 817 q 448 988 361 952 q 633 1024 536 1024 q 780 1000 715 1024 q 893 932 846 976 q 966 827 941 888 q 994 694 992 766 l 861 694 q 834 781 854 743 q 784 848 815 820 q 710 890 753 876 q 614 905 668 905 q 446 859 526 905 q 308 725 366 814 q 229 506 250 636 q 235 287 207 376 q 331 152 264 197 q 490 106 397 106 q 651 144 580 106 q 769 253 722 182 q 831 421 816 323 l 881 421 l 866 327 q 826 205 857 266 q 745 96 795 145 q 622 16 694 46 q 458 -14 551 -14 m 785 0 l 795 191 l 830 395 l 563 395 l 581 508 l 970 508 l 886 0 l 785 0 m 583 1309 l 661 1190 l 777 1309 l 899 1309 l 897 1303 l 707 1122 l 591 1122 l 462 1303 l 463 1309 l 583 1309 z "},"":{"ha":1036,"x_min":77,"x_max":994,"o":"m 458 -14 q 241 50 330 -14 q 114 229 152 113 q 103 505 77 345 q 171 721 123 625 q 290 884 220 817 q 448 988 361 952 q 633 1024 536 1024 q 780 1000 715 1024 q 893 932 846 976 q 966 827 941 888 q 994 694 992 766 l 861 694 q 834 781 854 743 q 784 848 815 820 q 710 890 753 876 q 614 905 668 905 q 446 859 526 905 q 308 725 366 814 q 229 506 250 636 q 235 287 207 376 q 331 152 264 197 q 490 106 397 106 q 651 144 580 106 q 769 253 722 182 q 831 421 816 323 l 881 421 l 866 327 q 826 205 857 266 q 745 96 795 145 q 622 16 694 46 q 458 -14 551 -14 m 785 0 l 795 191 l 830 395 l 563 395 l 581 508 l 970 508 l 886 0 l 785 0 m 591 1122 l 718 1309 l 854 1309 l 691 1122 l 591 1122 z "},"":{"ha":1036,"x_min":77,"x_max":994,"o":"m 458 -14 q 241 50 330 -14 q 114 229 152 113 q 103 505 77 345 q 171 721 123 625 q 290 884 220 817 q 448 988 361 952 q 633 1024 536 1024 q 780 1000 715 1024 q 893 932 846 976 q 966 827 941 888 q 994 694 992 766 l 861 694 q 834 781 854 743 q 784 848 815 820 q 710 890 753 876 q 614 905 668 905 q 446 859 526 905 q 308 725 366 814 q 229 506 250 636 q 235 287 207 376 q 331 152 264 197 q 490 106 397 106 q 651 144 580 106 q 769 253 722 182 q 831 421 816 323 l 881 421 l 866 327 q 826 205 857 266 q 745 96 795 145 q 622 16 694 46 q 458 -14 551 -14 m 785 0 l 795 191 l 830 395 l 563 395 l 581 508 l 970 508 l 886 0 l 785 0 m 862 1263 l 846 1167 l 470 1167 l 486 1263 l 862 1263 z "},"H":{"ha":1032,"x_min":59,"x_max":1015,"o":"m 59 0 l 227 1010 l 355 1010 l 283 574 l 813 574 l 886 1010 l 1015 1010 l 847 0 l 718 0 l 795 460 l 264 460 l 188 0 l 59 0 z "},"Ḩ":{"ha":1032,"x_min":3,"x_max":1015,"o":"m 59 0 l 227 1010 l 355 1010 l 283 574 l 813 574 l 886 1010 l 1015 1010 l 847 0 l 718 0 l 795 460 l 264 460 l 188 0 l 59 0 m 3 -283 l 14 -212 l 94 -212 q 148 -202 132 -212 q 168 -168 164 -193 q 160 -134 172 -144 q 109 -123 148 -123 l 54 -123 l 100 33 l 164 33 l 159 0 l 149 -58 q 241 -86 214 -61 q 259 -166 268 -112 q 208 -255 250 -227 q 83 -283 167 -283 l 3 -283 z "},"Ĥ":{"ha":1032,"x_min":59,"x_max":1015,"o":"m 59 0 l 227 1010 l 355 1010 l 283 574 l 813 574 l 886 1010 l 1015 1010 l 847 0 l 718 0 l 795 460 l 264 460 l 188 0 l 59 0 m 541 1122 l 420 1122 l 422 1128 l 611 1309 l 727 1309 l 857 1128 l 856 1122 l 734 1122 l 659 1240 l 541 1122 z "},"Ȟ":{"ha":1032,"x_min":59,"x_max":1015,"o":"m 59 0 l 227 1010 l 355 1010 l 283 574 l 813 574 l 886 1010 l 1015 1010 l 847 0 l 718 0 l 795 460 l 264 460 l 188 0 l 59 0 m 572 1309 l 650 1190 l 766 1309 l 887 1309 l 886 1303 l 695 1122 l 579 1122 l 450 1303 l 452 1309 l 572 1309 z "},"Ḣ":{"ha":1032,"x_min":59,"x_max":1015,"o":"m 59 0 l 227 1010 l 355 1010 l 283 574 l 813 574 l 886 1010 l 1015 1010 l 847 0 l 718 0 l 795 460 l 264 460 l 188 0 l 59 0 m 640 1135 q 585 1158 606 1135 q 569 1215 564 1182 q 604 1273 574 1249 q 667 1296 633 1296 q 724 1273 703 1296 q 739 1215 745 1249 q 705 1158 734 1182 q 640 1135 675 1135 z "},"Ḥ":{"ha":1032,"x_min":59,"x_max":1015,"o":"m 59 0 l 227 1010 l 355 1010 l 283 574 l 813 574 l 886 1010 l 1015 1010 l 847 0 l 718 0 l 795 460 l 264 460 l 188 0 l 59 0 m 408 -286 q 352 -262 373 -286 q 336 -205 331 -238 q 371 -148 342 -171 q 435 -124 400 -124 q 491 -148 470 -124 q 507 -205 512 -171 q 472 -262 501 -238 q 408 -286 443 -286 z "},"Ḧ":{"ha":1032,"x_min":59,"x_max":1015,"o":"m 59 0 l 227 1010 l 355 1010 l 283 574 l 813 574 l 886 1010 l 1015 1010 l 847 0 l 718 0 l 795 460 l 264 460 l 188 0 l 59 0 m 783 1135 q 730 1158 750 1135 q 716 1215 711 1182 q 749 1272 722 1249 q 810 1295 777 1295 q 863 1272 844 1295 q 877 1215 882 1249 q 844 1158 871 1182 q 783 1135 817 1135 m 498 1135 q 445 1158 465 1135 q 431 1215 425 1182 q 464 1272 436 1249 q 525 1295 492 1295 q 577 1272 558 1295 q 591 1215 597 1249 q 558 1158 586 1182 q 498 1135 531 1135 z "},"Ḫ":{"ha":1032,"x_min":59,"x_max":1015,"o":"m 59 0 l 227 1010 l 355 1010 l 283 574 l 813 574 l 886 1010 l 1015 1010 l 847 0 l 718 0 l 795 460 l 264 460 l 188 0 l 59 0 m 405 -301 q 310 -275 350 -301 q 251 -206 269 -250 q 241 -109 232 -163 l 330 -109 q 348 -185 323 -156 q 420 -214 373 -214 q 477 -201 451 -214 q 522 -164 504 -188 q 545 -109 540 -140 l 634 -109 q 592 -207 625 -163 q 509 -276 558 -250 q 405 -301 460 -301 z "},"Ħ":{"ha":1080,"x_min":86,"x_max":1082,"o":"m 1082 798 l 1066 694 l 122 694 l 137 798 l 1082 798 m 86 0 l 254 1010 l 382 1010 l 310 574 l 840 574 l 913 1010 l 1042 1010 l 874 0 l 745 0 l 822 460 l 291 460 l 215 0 l 86 0 z "},"Ӈ":{"ha":1032,"x_min":59,"x_max":1015,"o":"m 532 -283 l 550 -176 q 571 -178 561 -178 q 589 -179 582 -179 q 671 -162 648 -179 q 700 -111 694 -144 l 732 87 l 861 87 l 827 -116 q 755 -245 813 -201 q 602 -290 697 -290 q 561 -288 579 -290 q 532 -283 542 -286 m 59 0 l 227 1010 l 355 1010 l 283 574 l 813 574 l 886 1010 l 1015 1010 l 847 0 l 718 0 l 795 460 l 264 460 l 188 0 l 59 0 z "},"Ң":{"ha":1053,"x_min":59,"x_max":1015,"o":"m 59 0 l 227 1010 l 355 1010 l 283 574 l 813 574 l 886 1010 l 1015 1010 l 847 0 l 718 0 l 795 460 l 264 460 l 188 0 l 59 0 m 788 -217 l 824 0 l 773 0 l 791 113 l 965 113 l 910 -217 l 788 -217 z "},"Ӊ":{"ha":1032,"x_min":59,"x_max":1015,"o":"m 59 0 l 227 1010 l 355 1010 l 283 574 l 813 574 l 886 1010 l 1015 1010 l 847 0 l 718 0 l 795 460 l 264 460 l 188 0 l 59 0 m 723 -217 l 823 0 l 779 0 l 798 113 l 997 113 l 844 -217 l 723 -217 z "},"Ҥ":{"ha":1369,"x_min":59,"x_max":1407,"o":"m 1407 1010 l 1389 902 l 959 902 l 890 1010 l 1407 1010 m 59 0 l 227 1010 l 355 1010 l 283 574 l 813 574 l 886 1010 l 1015 1010 l 847 0 l 718 0 l 795 460 l 264 460 l 188 0 l 59 0 z "},"Ƕ":{"ha":1553,"x_min":59,"x_max":1508,"o":"m 1059 -14 q 887 25 958 -14 q 785 140 816 64 q 772 326 754 216 l 793 449 l 262 449 l 188 0 l 59 0 l 227 1010 l 355 1010 l 281 563 l 812 563 l 886 1010 l 1016 1010 l 901 317 q 926 154 882 205 q 1064 104 970 104 q 1181 128 1131 104 q 1264 201 1232 152 q 1308 326 1296 251 l 1379 757 l 1508 757 l 1436 317 q 1364 133 1417 206 q 1233 23 1311 59 q 1059 -14 1154 -14 z "},"Η":{"ha":1032,"x_min":59,"x_max":1015,"o":"m 59 0 l 227 1010 l 355 1010 l 283 574 l 813 574 l 886 1010 l 1015 1010 l 847 0 l 718 0 l 795 460 l 264 460 l 188 0 l 59 0 z "},"Ή":{"ha":1224,"x_min":139,"x_max":1206,"o":"m 251 0 l 418 1010 l 547 1010 l 475 574 l 1005 574 l 1078 1010 l 1206 1010 l 1039 0 l 910 0 l 987 460 l 456 460 l 380 0 l 251 0 m 139 811 l 195 1010 l 326 1010 l 224 811 l 139 811 z "},"Ἠ":{"ha":1267,"x_min":158,"x_max":1250,"o":"m 294 0 l 462 1010 l 591 1010 l 518 574 l 1048 574 l 1121 1010 l 1250 1010 l 1082 0 l 954 0 l 1030 460 l 499 460 l 423 0 l 294 0 m 167 827 l 158 827 l 166 876 l 175 876 q 229 888 210 876 q 252 924 248 900 q 240 956 256 945 q 190 966 224 966 l 165 966 l 177 1039 l 202 1039 q 318 1013 283 1039 q 345 935 354 987 q 292 854 336 881 q 167 827 248 827 z "},"Ἡ":{"ha":1274,"x_min":147,"x_max":1256,"o":"m 300 0 l 468 1010 l 597 1010 l 524 574 l 1055 574 l 1127 1010 l 1256 1010 l 1088 0 l 960 0 l 1036 460 l 505 460 l 429 0 l 300 0 m 299 805 q 183 832 219 805 q 156 913 147 859 q 210 991 165 966 q 334 1017 254 1017 l 359 1017 l 347 945 l 322 945 q 269 934 288 945 q 246 903 250 924 q 257 866 242 878 q 307 854 273 854 l 316 854 l 308 805 l 299 805 z "},"Ἢ":{"ha":1487,"x_min":155,"x_max":1470,"o":"m 514 0 l 682 1010 l 810 1010 l 738 574 l 1268 574 l 1341 1010 l 1470 1010 l 1302 0 l 1173 0 l 1250 460 l 719 460 l 643 0 l 514 0 m 163 805 l 155 805 l 163 854 l 172 854 q 225 866 206 854 q 249 903 245 878 q 237 934 252 924 q 186 945 221 945 l 161 945 l 174 1017 l 199 1017 q 315 991 279 1017 q 342 913 351 966 q 289 832 333 859 q 163 805 244 805 m 552 811 l 467 811 l 431 1010 l 562 1010 l 552 811 z "},"Ἣ":{"ha":1503,"x_min":147,"x_max":1485,"o":"m 530 0 l 697 1010 l 826 1010 l 753 574 l 1284 574 l 1356 1010 l 1485 1010 l 1318 0 l 1189 0 l 1265 460 l 734 460 l 659 0 l 530 0 m 299 805 q 183 832 219 805 q 156 913 147 859 q 210 991 165 966 q 334 1017 254 1017 l 359 1017 l 347 945 l 322 945 q 269 934 288 945 q 246 903 250 924 q 257 866 242 878 q 307 854 273 854 l 316 854 l 308 805 l 299 805 m 568 811 l 483 811 l 447 1010 l 578 1010 l 568 811 z "},"Ἤ":{"ha":1491,"x_min":155,"x_max":1474,"o":"m 518 0 l 686 1010 l 814 1010 l 742 574 l 1272 574 l 1345 1010 l 1474 1010 l 1306 0 l 1177 0 l 1254 460 l 723 460 l 647 0 l 518 0 m 163 805 l 155 805 l 163 854 l 172 854 q 225 866 206 854 q 249 903 245 878 q 237 934 252 924 q 186 945 221 945 l 161 945 l 174 1017 l 199 1017 q 315 991 279 1017 q 342 913 351 966 q 289 832 333 859 q 163 805 244 805 m 408 811 l 465 1010 l 595 1010 l 493 811 l 408 811 z "},"Ἥ":{"ha":1496,"x_min":147,"x_max":1478,"o":"m 523 0 l 690 1010 l 819 1010 l 747 574 l 1277 574 l 1350 1010 l 1478 1010 l 1311 0 l 1182 0 l 1259 460 l 728 460 l 652 0 l 523 0 m 299 805 q 183 832 219 805 q 156 913 147 859 q 210 991 165 966 q 334 1017 254 1017 l 359 1017 l 347 945 l 322 945 q 269 934 288 945 q 246 903 250 924 q 257 866 242 878 q 307 854 273 854 l 316 854 l 308 805 l 299 805 m 413 811 l 469 1010 l 600 1010 l 498 811 l 413 811 z "},"Ἦ":{"ha":1379,"x_min":186,"x_max":1361,"o":"m 406 0 l 573 1010 l 702 1010 l 629 574 l 1160 574 l 1232 1010 l 1361 1010 l 1194 0 l 1065 0 l 1141 460 l 610 460 l 534 0 l 406 0 m 269 814 l 260 814 l 269 863 l 277 863 q 331 876 312 863 q 355 912 351 888 q 342 944 358 933 q 292 954 327 954 l 267 954 l 279 1027 l 304 1027 q 421 1001 385 1027 q 448 923 456 975 q 394 842 439 869 q 269 814 350 814 m 473 1095 q 425 1104 448 1095 q 382 1123 402 1112 q 347 1143 363 1135 q 317 1152 330 1152 q 287 1134 298 1152 q 272 1098 276 1117 l 186 1098 q 233 1200 199 1160 q 320 1239 267 1239 q 368 1230 347 1239 q 407 1210 389 1221 q 441 1190 425 1199 q 474 1181 457 1181 q 502 1195 492 1181 q 521 1236 513 1208 l 604 1236 q 556 1133 591 1171 q 473 1095 522 1095 z "},"Ἧ":{"ha":1379,"x_min":185,"x_max":1361,"o":"m 406 0 l 573 1010 l 702 1010 l 629 574 l 1160 574 l 1232 1010 l 1361 1010 l 1194 0 l 1065 0 l 1141 460 l 610 460 l 534 0 l 406 0 m 404 804 q 288 831 324 804 q 261 912 252 858 q 315 990 270 964 q 439 1016 359 1016 l 465 1016 l 452 943 l 427 943 q 374 933 393 943 q 351 901 355 922 q 362 865 347 877 q 412 852 378 852 l 421 852 l 413 804 l 404 804 m 471 1084 q 424 1093 446 1084 q 381 1113 401 1101 q 345 1132 361 1124 q 316 1141 329 1141 q 286 1123 297 1141 q 271 1087 275 1106 l 185 1087 q 232 1189 198 1149 q 319 1228 265 1228 q 366 1219 345 1228 q 405 1199 387 1211 q 439 1179 423 1188 q 473 1171 456 1171 q 501 1184 490 1171 q 519 1225 511 1197 l 603 1225 q 555 1122 590 1160 q 471 1084 520 1084 z "},"Ὴ":{"ha":1320,"x_min":278,"x_max":1302,"o":"m 347 0 l 514 1010 l 643 1010 l 570 574 l 1101 574 l 1173 1010 l 1302 1010 l 1135 0 l 1006 0 l 1082 460 l 551 460 l 475 0 l 347 0 m 399 857 l 314 857 l 278 1057 l 409 1057 l 399 857 z "},"Ή":{"ha":1224,"x_min":139,"x_max":1206,"o":"m 251 0 l 418 1010 l 547 1010 l 475 574 l 1005 574 l 1078 1010 l 1206 1010 l 1039 0 l 910 0 l 987 460 l 456 460 l 380 0 l 251 0 m 139 811 l 195 1010 l 326 1010 l 224 811 l 139 811 z "},"Н":{"ha":1032,"x_min":59,"x_max":1015,"o":"m 59 0 l 227 1010 l 355 1010 l 283 574 l 813 574 l 886 1010 l 1015 1010 l 847 0 l 718 0 l 795 460 l 264 460 l 188 0 l 59 0 z "},"ᾘ":{"ha":1267,"x_min":158,"x_max":1250,"o":"m 294 0 l 462 1010 l 591 1010 l 518 574 l 1048 574 l 1121 1010 l 1250 1010 l 1082 0 l 954 0 l 1030 460 l 499 460 l 423 0 l 294 0 m 693 -335 q 612 -303 637 -335 q 598 -209 588 -271 l 619 -80 l 729 -80 l 708 -208 q 709 -248 703 -235 q 734 -260 715 -260 q 750 -259 744 -260 q 764 -257 756 -258 l 752 -327 q 724 -333 741 -331 q 693 -335 707 -335 m 167 827 l 158 827 l 166 876 l 175 876 q 229 888 210 876 q 252 924 248 900 q 240 956 256 945 q 190 966 224 966 l 165 966 l 177 1039 l 202 1039 q 318 1013 283 1039 q 345 935 354 987 q 292 854 336 881 q 167 827 248 827 z "},"ᾙ":{"ha":1274,"x_min":147,"x_max":1256,"o":"m 300 0 l 468 1010 l 597 1010 l 524 574 l 1055 574 l 1127 1010 l 1256 1010 l 1088 0 l 960 0 l 1036 460 l 505 460 l 429 0 l 300 0 m 699 -335 q 618 -303 643 -335 q 604 -209 594 -271 l 625 -80 l 735 -80 l 714 -208 q 715 -248 709 -235 q 740 -260 722 -260 q 756 -259 750 -260 q 770 -257 762 -258 l 758 -327 q 730 -333 747 -331 q 699 -335 713 -335 m 299 805 q 183 832 219 805 q 156 913 147 859 q 210 991 165 966 q 334 1017 254 1017 l 359 1017 l 347 945 l 322 945 q 269 934 288 945 q 246 903 250 924 q 257 866 242 878 q 307 854 273 854 l 316 854 l 308 805 l 299 805 z "},"ᾚ":{"ha":1487,"x_min":155,"x_max":1470,"o":"m 514 0 l 682 1010 l 810 1010 l 738 574 l 1268 574 l 1341 1010 l 1470 1010 l 1302 0 l 1173 0 l 1250 460 l 719 460 l 643 0 l 514 0 m 913 -335 q 832 -303 857 -335 q 818 -209 808 -271 l 839 -80 l 949 -80 l 928 -208 q 929 -248 923 -235 q 954 -260 935 -260 q 970 -259 964 -260 q 983 -257 976 -258 l 972 -327 q 944 -333 961 -331 q 913 -335 927 -335 m 163 805 l 155 805 l 163 854 l 172 854 q 225 866 206 854 q 249 903 245 878 q 237 934 252 924 q 186 945 221 945 l 161 945 l 174 1017 l 199 1017 q 315 991 279 1017 q 342 913 351 966 q 289 832 333 859 q 163 805 244 805 m 552 811 l 467 811 l 431 1010 l 562 1010 l 552 811 z "},"ᾛ":{"ha":1503,"x_min":147,"x_max":1485,"o":"m 530 0 l 697 1010 l 826 1010 l 753 574 l 1284 574 l 1356 1010 l 1485 1010 l 1318 0 l 1189 0 l 1265 460 l 734 460 l 659 0 l 530 0 m 928 -335 q 848 -303 872 -335 q 833 -209 823 -271 l 854 -80 l 964 -80 l 943 -208 q 945 -248 939 -235 q 969 -260 951 -260 q 985 -259 979 -260 q 999 -257 991 -258 l 987 -327 q 960 -333 977 -331 q 928 -335 943 -335 m 299 805 q 183 832 219 805 q 156 913 147 859 q 210 991 165 966 q 334 1017 254 1017 l 359 1017 l 347 945 l 322 945 q 269 934 288 945 q 246 903 250 924 q 257 866 242 878 q 307 854 273 854 l 316 854 l 308 805 l 299 805 m 568 811 l 483 811 l 447 1010 l 578 1010 l 568 811 z "},"ᾜ":{"ha":1491,"x_min":155,"x_max":1474,"o":"m 518 0 l 686 1010 l 814 1010 l 742 574 l 1272 574 l 1345 1010 l 1474 1010 l 1306 0 l 1177 0 l 1254 460 l 723 460 l 647 0 l 518 0 m 917 -335 q 836 -303 861 -335 q 822 -209 812 -271 l 843 -80 l 953 -80 l 932 -208 q 933 -248 927 -235 q 958 -260 939 -260 q 974 -259 968 -260 q 987 -257 980 -258 l 976 -327 q 948 -333 965 -331 q 917 -335 931 -335 m 163 805 l 155 805 l 163 854 l 172 854 q 225 866 206 854 q 249 903 245 878 q 237 934 252 924 q 186 945 221 945 l 161 945 l 174 1017 l 199 1017 q 315 991 279 1017 q 342 913 351 966 q 289 832 333 859 q 163 805 244 805 m 408 811 l 465 1010 l 595 1010 l 493 811 l 408 811 z "},"ᾝ":{"ha":1496,"x_min":147,"x_max":1478,"o":"m 523 0 l 690 1010 l 819 1010 l 747 574 l 1277 574 l 1350 1010 l 1478 1010 l 1311 0 l 1182 0 l 1259 460 l 728 460 l 652 0 l 523 0 m 922 -335 q 841 -303 865 -335 q 827 -209 817 -271 l 848 -80 l 958 -80 l 937 -208 q 938 -248 932 -235 q 962 -260 944 -260 q 979 -259 972 -260 q 992 -257 985 -258 l 981 -327 q 953 -333 970 -331 q 922 -335 936 -335 m 299 805 q 183 832 219 805 q 156 913 147 859 q 210 991 165 966 q 334 1017 254 1017 l 359 1017 l 347 945 l 322 945 q 269 934 288 945 q 246 903 250 924 q 257 866 242 878 q 307 854 273 854 l 316 854 l 308 805 l 299 805 m 413 811 l 469 1010 l 600 1010 l 498 811 l 413 811 z "},"ᾞ":{"ha":1379,"x_min":186,"x_max":1361,"o":"m 406 0 l 573 1010 l 702 1010 l 629 574 l 1160 574 l 1232 1010 l 1361 1010 l 1194 0 l 1065 0 l 1141 460 l 610 460 l 534 0 l 406 0 m 804 -335 q 724 -303 748 -335 q 709 -209 699 -271 l 730 -80 l 840 -80 l 819 -208 q 821 -248 814 -235 q 845 -260 827 -260 q 861 -259 855 -260 q 875 -257 867 -258 l 863 -327 q 836 -333 852 -331 q 804 -335 819 -335 m 269 814 l 260 814 l 269 863 l 277 863 q 331 876 312 863 q 355 912 351 888 q 342 944 358 933 q 292 954 327 954 l 267 954 l 279 1027 l 304 1027 q 421 1001 385 1027 q 448 923 456 975 q 394 842 439 869 q 269 814 350 814 m 473 1095 q 425 1104 448 1095 q 382 1123 402 1112 q 347 1143 363 1135 q 317 1152 330 1152 q 287 1134 298 1152 q 272 1098 276 1117 l 186 1098 q 233 1200 199 1160 q 320 1239 267 1239 q 368 1230 347 1239 q 407 1210 389 1221 q 441 1190 425 1199 q 474 1181 457 1181 q 502 1195 492 1181 q 521 1236 513 1208 l 604 1236 q 556 1133 591 1171 q 473 1095 522 1095 z "},"ᾟ":{"ha":1379,"x_min":185,"x_max":1361,"o":"m 406 0 l 573 1010 l 702 1010 l 629 574 l 1160 574 l 1232 1010 l 1361 1010 l 1194 0 l 1065 0 l 1141 460 l 610 460 l 534 0 l 406 0 m 804 -335 q 724 -303 748 -335 q 709 -209 699 -271 l 730 -80 l 840 -80 l 819 -208 q 821 -248 814 -235 q 845 -260 827 -260 q 861 -259 855 -260 q 875 -257 867 -258 l 863 -327 q 836 -333 852 -331 q 804 -335 819 -335 m 404 804 q 288 831 324 804 q 261 912 252 858 q 315 990 270 964 q 439 1016 359 1016 l 465 1016 l 452 943 l 427 943 q 374 933 393 943 q 351 901 355 922 q 362 865 347 877 q 412 852 378 852 l 421 852 l 413 804 l 404 804 m 471 1084 q 424 1093 446 1084 q 381 1113 401 1101 q 345 1132 361 1124 q 316 1141 329 1141 q 286 1123 297 1141 q 271 1087 275 1106 l 185 1087 q 232 1189 198 1149 q 319 1228 265 1228 q 366 1219 345 1228 q 405 1199 387 1211 q 439 1179 423 1188 q 473 1171 456 1171 q 501 1184 490 1171 q 519 1225 511 1197 l 603 1225 q 555 1122 590 1160 q 471 1084 520 1084 z "},"ῌ":{"ha":1032,"x_min":59,"x_max":1015,"o":"m 59 0 l 227 1010 l 355 1010 l 283 574 l 813 574 l 886 1010 l 1015 1010 l 847 0 l 718 0 l 795 460 l 264 460 l 188 0 l 59 0 m 458 -335 q 377 -303 401 -335 q 363 -209 353 -271 l 384 -80 l 494 -80 l 473 -208 q 474 -248 468 -235 q 498 -260 480 -260 q 515 -259 509 -260 q 528 -257 521 -258 l 517 -327 q 489 -333 506 -331 q 458 -335 472 -335 z "},"I":{"ha":373,"x_min":59,"x_max":355,"o":"m 355 1010 l 188 0 l 59 0 l 227 1010 l 355 1010 z "},"":{"ha":746,"x_min":59,"x_max":728,"o":"m 355 1010 l 188 0 l 59 0 l 227 1010 l 355 1010 m 728 1010 l 561 0 l 432 0 l 600 1010 l 728 1010 z "},"Ï":{"ha":373,"x_min":59,"x_max":553,"o":"m 355 1010 l 188 0 l 59 0 l 227 1010 l 355 1010 m 454 1135 q 401 1158 421 1135 q 387 1215 382 1182 q 420 1272 393 1249 q 481 1295 448 1295 q 534 1272 515 1295 q 548 1215 553 1249 q 515 1158 543 1182 q 454 1135 488 1135 m 169 1135 q 116 1158 136 1135 q 102 1215 96 1182 q 135 1272 107 1249 q 196 1295 163 1295 q 249 1272 229 1295 q 262 1215 268 1249 q 230 1158 257 1182 q 169 1135 202 1135 z "},"Ḯ":{"ha":373,"x_min":59,"x_max":560,"o":"m 355 1010 l 188 0 l 59 0 l 227 1010 l 355 1010 m 455 1116 q 402 1139 422 1116 q 388 1196 382 1163 q 421 1253 393 1230 q 482 1276 449 1276 q 535 1253 515 1276 q 549 1196 554 1230 q 516 1139 543 1163 q 455 1116 488 1116 m 170 1116 q 117 1139 136 1116 q 102 1196 97 1163 q 136 1253 108 1230 q 197 1276 163 1276 q 249 1253 230 1276 q 263 1196 269 1230 q 230 1139 258 1163 q 170 1116 203 1116 m 298 1348 l 424 1535 l 560 1535 l 397 1348 l 298 1348 z "},"Ɨ":{"ha":468,"x_min":31,"x_max":484,"o":"m 403 1010 l 235 0 l 106 0 l 274 1010 l 403 1010 m 31 476 l 45 567 l 484 567 l 469 476 l 31 476 z "},"Ḭ":{"ha":373,"x_min":-116,"x_max":355,"o":"m 355 1010 l 188 0 l 59 0 l 227 1010 l 355 1010 m 170 -277 q 122 -269 145 -277 q 80 -249 100 -260 q 44 -230 60 -238 q 15 -221 28 -221 q -15 -238 -4 -221 q -31 -275 -26 -256 l -116 -275 q -70 -173 -103 -212 q 18 -134 -36 -134 q 65 -142 44 -134 q 104 -162 86 -151 q 138 -182 122 -174 q 172 -191 155 -191 q 200 -178 189 -191 q 218 -136 210 -165 l 302 -136 q 254 -240 289 -202 q 170 -277 219 -277 z "},"Ì":{"ha":373,"x_min":59,"x_max":359,"o":"m 355 1010 l 188 0 l 59 0 l 227 1010 l 355 1010 m 259 1109 l 161 1309 l 298 1309 l 359 1109 l 259 1109 z "},"Í":{"ha":373,"x_min":59,"x_max":513,"o":"m 355 1010 l 188 0 l 59 0 l 227 1010 l 355 1010 m 251 1122 l 377 1309 l 513 1309 l 351 1122 l 251 1122 z "},"Î":{"ha":373,"x_min":59,"x_max":528,"o":"m 355 1010 l 188 0 l 59 0 l 227 1010 l 355 1010 m 212 1122 l 92 1122 l 93 1128 l 282 1309 l 398 1309 l 528 1128 l 527 1122 l 406 1122 l 330 1240 l 212 1122 z "},"Ĩ":{"ha":373,"x_min":59,"x_max":534,"o":"m 355 1010 l 188 0 l 59 0 l 227 1010 l 355 1010 m 402 1143 q 354 1151 377 1143 q 312 1171 332 1160 q 276 1191 292 1182 q 247 1199 260 1199 q 217 1182 228 1199 q 201 1145 205 1164 l 116 1145 q 162 1247 129 1208 q 250 1286 196 1286 q 297 1278 276 1286 q 336 1258 318 1269 q 370 1238 354 1246 q 404 1229 387 1229 q 432 1242 421 1229 q 450 1284 442 1255 l 534 1284 q 486 1180 521 1218 q 402 1143 451 1143 z "},"Ī":{"ha":373,"x_min":59,"x_max":522,"o":"m 355 1010 l 188 0 l 59 0 l 227 1010 l 355 1010 m 522 1263 l 505 1167 l 130 1167 l 146 1263 l 522 1263 z "},"Ĭ":{"ha":373,"x_min":59,"x_max":537,"o":"m 355 1010 l 188 0 l 59 0 l 227 1010 l 355 1010 m 308 1117 q 213 1143 253 1117 q 154 1212 172 1168 q 144 1309 135 1255 l 233 1309 q 251 1233 226 1262 q 323 1204 276 1204 q 380 1217 354 1204 q 425 1254 407 1230 q 448 1309 443 1278 l 537 1309 q 495 1212 528 1255 q 412 1142 461 1168 q 308 1117 363 1117 z "},"Į":{"ha":373,"x_min":-86,"x_max":355,"o":"m 355 1010 l 188 0 l 59 0 l 227 1010 l 355 1010 m 62 -296 q -45 -262 -3 -296 q -75 -164 -86 -228 q -30 -71 -67 -116 q 70 11 8 -26 l 188 0 q 97 -66 136 -33 q 51 -140 58 -98 q 59 -180 47 -166 q 98 -193 71 -193 q 134 -188 117 -193 q 165 -174 151 -182 l 191 -262 q 136 -284 168 -273 q 62 -296 104 -296 z "},"İ":{"ha":373,"x_min":59,"x_max":416,"o":"m 355 1010 l 188 0 l 59 0 l 227 1010 l 355 1010 m 311 1135 q 256 1158 277 1135 q 240 1215 235 1182 q 275 1273 245 1249 q 338 1296 304 1296 q 395 1273 374 1296 q 410 1215 416 1249 q 376 1158 405 1182 q 311 1135 347 1135 z "},"Ǐ":{"ha":373,"x_min":59,"x_max":558,"o":"m 355 1010 l 188 0 l 59 0 l 227 1010 l 355 1010 m 243 1309 l 321 1190 l 437 1309 l 558 1309 l 557 1303 l 366 1122 l 250 1122 l 121 1303 l 123 1309 l 243 1309 z "},"Ȉ":{"ha":373,"x_min":31,"x_max":469,"o":"m 355 1010 l 188 0 l 59 0 l 227 1010 l 355 1010 m 369 1109 l 288 1309 l 423 1309 l 469 1109 l 369 1109 m 147 1109 l 31 1309 l 167 1309 l 248 1109 l 147 1109 z "},"Ȋ":{"ha":373,"x_min":59,"x_max":526,"o":"m 355 1010 l 188 0 l 59 0 l 227 1010 l 355 1010 m 343 1326 q 445 1299 403 1326 q 507 1225 488 1272 q 516 1122 526 1179 l 427 1122 q 405 1203 435 1172 q 328 1235 375 1235 q 241 1203 281 1235 q 192 1122 201 1172 l 102 1122 q 146 1225 112 1179 q 232 1299 181 1272 q 343 1326 283 1326 z "},"Ỉ":{"ha":373,"x_min":59,"x_max":431,"o":"m 355 1010 l 188 0 l 59 0 l 227 1010 l 355 1010 m 347 1109 l 256 1109 l 319 1202 q 325 1223 328 1217 q 309 1229 322 1229 l 214 1229 l 227 1309 l 321 1309 q 388 1298 362 1309 q 422 1268 413 1287 q 425 1223 431 1249 q 394 1168 418 1198 l 347 1109 z "},"Ị":{"ha":373,"x_min":2,"x_max":355,"o":"m 355 1010 l 188 0 l 59 0 l 227 1010 l 355 1010 m 79 -286 q 23 -262 44 -286 q 7 -205 2 -238 q 42 -148 13 -171 q 106 -124 71 -124 q 162 -148 141 -124 q 178 -205 183 -171 q 143 -262 172 -238 q 79 -286 114 -286 z "},"Ɩ":{"ha":382,"x_min":59,"x_max":334,"o":"m 214 -5 q 94 40 129 -5 q 73 168 59 86 l 212 1010 l 334 1010 l 200 199 q 200 125 191 146 q 247 104 209 104 q 277 105 267 104 q 297 109 288 106 l 304 6 q 263 -2 287 1 q 214 -5 239 -5 z "},"Ι":{"ha":373,"x_min":59,"x_max":355,"o":"m 355 1010 l 188 0 l 59 0 l 227 1010 l 355 1010 z "},"Ί":{"ha":565,"x_min":139,"x_max":547,"o":"m 547 1010 l 380 0 l 251 0 l 418 1010 l 547 1010 m 139 811 l 195 1010 l 326 1010 l 224 811 l 139 811 z "},"Ϊ":{"ha":373,"x_min":59,"x_max":553,"o":"m 355 1010 l 188 0 l 59 0 l 227 1010 l 355 1010 m 454 1135 q 401 1158 421 1135 q 387 1215 382 1182 q 420 1272 393 1249 q 481 1295 448 1295 q 534 1272 515 1295 q 548 1215 553 1249 q 515 1158 543 1182 q 454 1135 488 1135 m 169 1135 q 116 1158 136 1135 q 102 1215 96 1182 q 135 1272 107 1249 q 196 1295 163 1295 q 249 1272 229 1295 q 262 1215 268 1249 q 230 1158 257 1182 q 169 1135 202 1135 z "},"Ἰ":{"ha":608,"x_min":158,"x_max":591,"o":"m 591 1010 l 423 0 l 294 0 l 462 1010 l 591 1010 m 167 827 l 158 827 l 166 876 l 175 876 q 229 888 210 876 q 252 924 248 900 q 240 956 256 945 q 190 966 224 966 l 165 966 l 177 1039 l 202 1039 q 318 1013 283 1039 q 345 935 354 987 q 292 854 336 881 q 167 827 248 827 z "},"Ἱ":{"ha":614,"x_min":147,"x_max":597,"o":"m 597 1010 l 429 0 l 300 0 l 468 1010 l 597 1010 m 299 805 q 183 832 219 805 q 156 913 147 859 q 210 991 165 966 q 334 1017 254 1017 l 359 1017 l 347 945 l 322 945 q 269 934 288 945 q 246 903 250 924 q 257 866 242 878 q 307 854 273 854 l 316 854 l 308 805 l 299 805 z "},"Ἲ":{"ha":828,"x_min":155,"x_max":810,"o":"m 810 1010 l 643 0 l 514 0 l 682 1010 l 810 1010 m 163 805 l 155 805 l 163 854 l 172 854 q 225 866 206 854 q 249 903 245 878 q 237 934 252 924 q 186 945 221 945 l 161 945 l 174 1017 l 199 1017 q 315 991 279 1017 q 342 913 351 966 q 289 832 333 859 q 163 805 244 805 m 552 811 l 467 811 l 431 1010 l 562 1010 l 552 811 z "},"Ἳ":{"ha":844,"x_min":147,"x_max":826,"o":"m 826 1010 l 659 0 l 530 0 l 697 1010 l 826 1010 m 299 805 q 183 832 219 805 q 156 913 147 859 q 210 991 165 966 q 334 1017 254 1017 l 359 1017 l 347 945 l 322 945 q 269 934 288 945 q 246 903 250 924 q 257 866 242 878 q 307 854 273 854 l 316 854 l 308 805 l 299 805 m 568 811 l 483 811 l 447 1010 l 578 1010 l 568 811 z "},"Ἴ":{"ha":832,"x_min":155,"x_max":814,"o":"m 814 1010 l 647 0 l 518 0 l 686 1010 l 814 1010 m 163 805 l 155 805 l 163 854 l 172 854 q 225 866 206 854 q 249 903 245 878 q 237 934 252 924 q 186 945 221 945 l 161 945 l 174 1017 l 199 1017 q 315 991 279 1017 q 342 913 351 966 q 289 832 333 859 q 163 805 244 805 m 408 811 l 465 1010 l 595 1010 l 493 811 l 408 811 z "},"Ἵ":{"ha":837,"x_min":147,"x_max":819,"o":"m 819 1010 l 652 0 l 523 0 l 690 1010 l 819 1010 m 299 805 q 183 832 219 805 q 156 913 147 859 q 210 991 165 966 q 334 1017 254 1017 l 359 1017 l 347 945 l 322 945 q 269 934 288 945 q 246 903 250 924 q 257 866 242 878 q 307 854 273 854 l 316 854 l 308 805 l 299 805 m 413 811 l 469 1010 l 600 1010 l 498 811 l 413 811 z "},"Ἶ":{"ha":720,"x_min":186,"x_max":702,"o":"m 702 1010 l 534 0 l 406 0 l 573 1010 l 702 1010 m 269 814 l 260 814 l 269 863 l 277 863 q 331 876 312 863 q 355 912 351 888 q 342 944 358 933 q 292 954 327 954 l 267 954 l 279 1027 l 304 1027 q 421 1001 385 1027 q 448 923 456 975 q 394 842 439 869 q 269 814 350 814 m 473 1095 q 425 1104 448 1095 q 382 1123 402 1112 q 347 1143 363 1135 q 317 1152 330 1152 q 287 1134 298 1152 q 272 1098 276 1117 l 186 1098 q 233 1200 199 1160 q 320 1239 267 1239 q 368 1230 347 1239 q 407 1210 389 1221 q 441 1190 425 1199 q 474 1181 457 1181 q 502 1195 492 1181 q 521 1236 513 1208 l 604 1236 q 556 1133 591 1171 q 473 1095 522 1095 z "},"Ἷ":{"ha":720,"x_min":185,"x_max":702,"o":"m 702 1010 l 534 0 l 406 0 l 573 1010 l 702 1010 m 404 804 q 288 831 324 804 q 261 912 252 858 q 315 990 270 964 q 439 1016 359 1016 l 465 1016 l 452 943 l 427 943 q 374 933 393 943 q 351 901 355 922 q 362 865 347 877 q 412 852 378 852 l 421 852 l 413 804 l 404 804 m 471 1084 q 424 1093 446 1084 q 381 1113 401 1101 q 345 1132 361 1124 q 316 1141 329 1141 q 286 1123 297 1141 q 271 1087 275 1106 l 185 1087 q 232 1189 198 1149 q 319 1228 265 1228 q 366 1219 345 1228 q 405 1199 387 1211 q 439 1179 423 1188 q 473 1171 456 1171 q 501 1184 490 1171 q 519 1225 511 1197 l 603 1225 q 555 1122 590 1160 q 471 1084 520 1084 z "},"Ῐ":{"ha":373,"x_min":59,"x_max":537,"o":"m 355 1010 l 188 0 l 59 0 l 227 1010 l 355 1010 m 308 1117 q 213 1143 253 1117 q 154 1212 172 1168 q 144 1309 135 1255 l 233 1309 q 251 1233 226 1262 q 323 1204 276 1204 q 380 1217 354 1204 q 425 1254 407 1230 q 448 1309 443 1278 l 537 1309 q 495 1212 528 1255 q 412 1142 461 1168 q 308 1117 363 1117 z "},"Ῑ":{"ha":373,"x_min":59,"x_max":522,"o":"m 355 1010 l 188 0 l 59 0 l 227 1010 l 355 1010 m 522 1263 l 505 1167 l 130 1167 l 146 1263 l 522 1263 z "},"Ὶ":{"ha":628,"x_min":251,"x_max":616,"o":"m 616 1010 l 448 0 l 319 0 l 487 1010 l 616 1010 m 372 857 l 287 857 l 251 1057 l 382 1057 l 372 857 z "},"Ί":{"ha":565,"x_min":139,"x_max":547,"o":"m 547 1010 l 380 0 l 251 0 l 418 1010 l 547 1010 m 139 811 l 195 1010 l 326 1010 l 224 811 l 139 811 z "},"І":{"ha":373,"x_min":59,"x_max":355,"o":"m 355 1010 l 188 0 l 59 0 l 227 1010 l 355 1010 z "},"Ї":{"ha":373,"x_min":59,"x_max":553,"o":"m 355 1010 l 188 0 l 59 0 l 227 1010 l 355 1010 m 454 1135 q 401 1158 421 1135 q 387 1215 382 1182 q 420 1272 393 1249 q 481 1295 448 1295 q 534 1272 515 1295 q 548 1215 553 1249 q 515 1158 543 1182 q 454 1135 488 1135 m 169 1135 q 116 1158 136 1135 q 102 1215 96 1182 q 135 1272 107 1249 q 196 1295 163 1295 q 249 1272 229 1295 q 262 1215 268 1249 q 230 1158 257 1182 q 169 1135 202 1135 z "},"":{"ha":612,"x_min":-1,"x_max":654,"o":"m -1 0 l 18 114 l 198 114 l 328 897 l 148 897 l 167 1010 l 654 1010 l 635 897 l 456 897 l 327 114 l 506 114 l 487 0 l -1 0 z "},"":{"ha":612,"x_min":-1,"x_max":673,"o":"m -1 0 l 18 114 l 198 114 l 328 897 l 148 897 l 167 1010 l 654 1010 l 635 897 l 456 897 l 327 114 l 506 114 l 487 0 l -1 0 m 574 1135 q 522 1158 541 1135 q 507 1215 502 1182 q 541 1272 513 1249 q 602 1295 568 1295 q 654 1272 635 1295 q 668 1215 673 1249 q 635 1158 663 1182 q 574 1135 608 1135 m 289 1135 q 236 1158 256 1135 q 222 1215 216 1182 q 255 1272 227 1249 q 316 1295 283 1295 q 369 1272 349 1295 q 382 1215 388 1249 q 350 1158 377 1182 q 289 1135 322 1135 z "},"":{"ha":612,"x_min":-1,"x_max":680,"o":"m -1 0 l 18 114 l 198 114 l 328 897 l 148 897 l 167 1010 l 654 1010 l 635 897 l 456 897 l 327 114 l 506 114 l 487 0 l -1 0 m 575 1116 q 522 1139 542 1116 q 508 1196 503 1163 q 541 1253 513 1230 q 602 1276 569 1276 q 655 1253 635 1276 q 669 1196 674 1230 q 636 1139 663 1163 q 575 1116 608 1116 m 290 1116 q 237 1139 256 1116 q 222 1196 217 1163 q 256 1253 228 1230 q 317 1276 283 1276 q 369 1253 350 1276 q 383 1196 389 1230 q 350 1139 378 1163 q 290 1116 323 1116 m 418 1348 l 544 1535 l 680 1535 l 517 1348 l 418 1348 z "},"":{"ha":612,"x_min":-1,"x_max":654,"o":"m -1 0 l 18 114 l 198 114 l 328 897 l 148 897 l 167 1010 l 654 1010 l 635 897 l 456 897 l 327 114 l 506 114 l 487 0 l -1 0 m 103 476 l 118 567 l 556 567 l 541 476 l 103 476 z "},"":{"ha":612,"x_min":-1,"x_max":654,"o":"m -1 0 l 18 114 l 198 114 l 328 897 l 148 897 l 167 1010 l 654 1010 l 635 897 l 456 897 l 327 114 l 506 114 l 487 0 l -1 0 m 290 -277 q 242 -269 265 -277 q 200 -249 220 -260 q 164 -230 180 -238 q 135 -221 148 -221 q 105 -238 116 -221 q 90 -275 94 -256 l 4 -275 q 51 -173 17 -212 q 138 -134 84 -134 q 185 -142 164 -134 q 224 -162 206 -151 q 258 -182 242 -174 q 292 -191 275 -191 q 320 -178 309 -191 q 338 -136 330 -165 l 422 -136 q 374 -240 409 -202 q 290 -277 339 -277 z "},"":{"ha":612,"x_min":-1,"x_max":654,"o":"m -1 0 l 18 114 l 198 114 l 328 897 l 148 897 l 167 1010 l 654 1010 l 635 897 l 456 897 l 327 114 l 506 114 l 487 0 l -1 0 m 379 1109 l 281 1309 l 418 1309 l 479 1109 l 379 1109 z "},"":{"ha":612,"x_min":-1,"x_max":654,"o":"m -1 0 l 18 114 l 198 114 l 328 897 l 148 897 l 167 1010 l 654 1010 l 635 897 l 456 897 l 327 114 l 506 114 l 487 0 l -1 0 m 371 1122 l 497 1309 l 633 1309 l 471 1122 l 371 1122 z "},"":{"ha":612,"x_min":-1,"x_max":654,"o":"m -1 0 l 18 114 l 198 114 l 328 897 l 148 897 l 167 1010 l 654 1010 l 635 897 l 456 897 l 327 114 l 506 114 l 487 0 l -1 0 m 332 1122 l 212 1122 l 213 1128 l 402 1309 l 518 1309 l 648 1128 l 647 1122 l 526 1122 l 450 1240 l 332 1122 z "},"":{"ha":612,"x_min":-1,"x_max":654,"o":"m -1 0 l 18 114 l 198 114 l 328 897 l 148 897 l 167 1010 l 654 1010 l 635 897 l 456 897 l 327 114 l 506 114 l 487 0 l -1 0 m 522 1143 q 474 1151 497 1143 q 432 1171 452 1160 q 396 1191 412 1182 q 367 1199 380 1199 q 337 1182 348 1199 q 321 1145 326 1164 l 236 1145 q 282 1247 249 1208 q 370 1286 316 1286 q 417 1278 396 1286 q 456 1258 438 1269 q 490 1238 474 1246 q 524 1229 507 1229 q 552 1242 541 1229 q 570 1284 562 1255 l 654 1284 q 606 1180 641 1218 q 522 1143 571 1143 z "},"":{"ha":612,"x_min":-1,"x_max":654,"o":"m -1 0 l 18 114 l 198 114 l 328 897 l 148 897 l 167 1010 l 654 1010 l 635 897 l 456 897 l 327 114 l 506 114 l 487 0 l -1 0 m 642 1263 l 625 1167 l 250 1167 l 266 1263 l 642 1263 z "},"":{"ha":612,"x_min":-1,"x_max":657,"o":"m -1 0 l 18 114 l 198 114 l 328 897 l 148 897 l 167 1010 l 654 1010 l 635 897 l 456 897 l 327 114 l 506 114 l 487 0 l -1 0 m 428 1117 q 333 1143 373 1117 q 274 1212 292 1168 q 264 1309 255 1255 l 353 1309 q 371 1233 346 1262 q 443 1204 396 1204 q 500 1217 474 1204 q 545 1254 527 1230 q 568 1309 563 1278 l 657 1309 q 615 1212 648 1255 q 532 1142 581 1168 q 428 1117 484 1117 z "},"":{"ha":612,"x_min":-1,"x_max":654,"o":"m -1 0 l 18 114 l 198 114 l 328 897 l 148 897 l 167 1010 l 654 1010 l 635 897 l 456 897 l 327 114 l 506 114 l 487 0 l -1 0 m 361 -296 q 254 -262 296 -296 q 224 -164 213 -228 q 270 -71 232 -116 q 369 11 307 -26 l 487 0 q 396 -66 435 -33 q 350 -140 357 -98 q 358 -180 346 -166 q 397 -193 370 -193 q 433 -188 416 -193 q 464 -174 450 -182 l 490 -262 q 435 -284 467 -273 q 361 -296 404 -296 z "},"":{"ha":612,"x_min":-1,"x_max":654,"o":"m -1 0 l 18 114 l 198 114 l 328 897 l 148 897 l 167 1010 l 654 1010 l 635 897 l 456 897 l 327 114 l 506 114 l 487 0 l -1 0 m 431 1135 q 376 1158 397 1135 q 360 1215 355 1182 q 395 1273 366 1249 q 458 1296 424 1296 q 515 1273 494 1296 q 530 1215 536 1249 q 496 1158 525 1182 q 431 1135 467 1135 z "},"":{"ha":612,"x_min":-1,"x_max":678,"o":"m -1 0 l 18 114 l 198 114 l 328 897 l 148 897 l 167 1010 l 654 1010 l 635 897 l 456 897 l 327 114 l 506 114 l 487 0 l -1 0 m 363 1309 l 441 1190 l 557 1309 l 678 1309 l 677 1303 l 486 1122 l 370 1122 l 241 1303 l 243 1309 l 363 1309 z "},"":{"ha":612,"x_min":-1,"x_max":654,"o":"m -1 0 l 18 114 l 198 114 l 328 897 l 148 897 l 167 1010 l 654 1010 l 635 897 l 456 897 l 327 114 l 506 114 l 487 0 l -1 0 m 489 1109 l 408 1309 l 543 1309 l 589 1109 l 489 1109 m 267 1109 l 151 1309 l 287 1309 l 368 1109 l 267 1109 z "},"":{"ha":612,"x_min":-1,"x_max":654,"o":"m -1 0 l 18 114 l 198 114 l 328 897 l 148 897 l 167 1010 l 654 1010 l 635 897 l 456 897 l 327 114 l 506 114 l 487 0 l -1 0 m 463 1326 q 565 1299 523 1326 q 627 1225 608 1272 q 636 1122 646 1179 l 547 1122 q 525 1203 555 1172 q 448 1235 495 1235 q 361 1203 401 1235 q 312 1122 321 1172 l 222 1122 q 267 1225 232 1179 q 352 1299 301 1272 q 463 1326 404 1326 z "},"":{"ha":612,"x_min":-1,"x_max":654,"o":"m -1 0 l 18 114 l 198 114 l 328 897 l 148 897 l 167 1010 l 654 1010 l 635 897 l 456 897 l 327 114 l 506 114 l 487 0 l -1 0 m 467 1109 l 376 1109 l 439 1202 q 445 1223 448 1217 q 429 1229 442 1229 l 334 1229 l 347 1309 l 441 1309 q 508 1298 482 1309 q 542 1268 533 1287 q 545 1223 551 1249 q 514 1168 538 1198 l 467 1109 z "},"":{"ha":612,"x_min":-1,"x_max":654,"o":"m -1 0 l 18 114 l 198 114 l 328 897 l 148 897 l 167 1010 l 654 1010 l 635 897 l 456 897 l 327 114 l 506 114 l 487 0 l -1 0 m 199 -286 q 143 -262 164 -286 q 127 -205 122 -238 q 162 -148 133 -171 q 226 -124 191 -124 q 282 -148 261 -124 q 298 -205 303 -171 q 263 -262 292 -238 q 199 -286 234 -286 z "},"":{"ha":897,"x_min":158,"x_max":939,"o":"m 283 0 l 302 114 l 482 114 l 612 897 l 432 897 l 451 1010 l 939 1010 l 920 897 l 741 897 l 611 114 l 790 114 l 771 0 l 283 0 m 167 827 l 158 827 l 166 876 l 175 876 q 229 888 210 876 q 252 924 248 900 q 240 956 256 945 q 190 966 224 966 l 165 966 l 177 1039 l 202 1039 q 318 1013 283 1039 q 345 935 354 987 q 292 854 336 881 q 167 827 248 827 z "},"":{"ha":903,"x_min":147,"x_max":945,"o":"m 290 0 l 309 114 l 488 114 l 618 897 l 438 897 l 457 1010 l 945 1010 l 926 897 l 747 897 l 617 114 l 796 114 l 777 0 l 290 0 m 299 805 q 183 832 219 805 q 156 913 147 859 q 210 991 165 966 q 334 1017 254 1017 l 359 1017 l 347 945 l 322 945 q 269 934 288 945 q 246 903 250 924 q 257 866 242 878 q 307 854 273 854 l 316 854 l 308 805 l 299 805 z "},"":{"ha":1116,"x_min":155,"x_max":1158,"o":"m 503 0 l 522 114 l 702 114 l 831 897 l 652 897 l 671 1010 l 1158 1010 l 1139 897 l 960 897 l 831 114 l 1010 114 l 991 0 l 503 0 m 163 805 l 155 805 l 163 854 l 172 854 q 225 866 206 854 q 249 903 245 878 q 237 934 252 924 q 186 945 221 945 l 161 945 l 174 1017 l 199 1017 q 315 991 279 1017 q 342 913 351 966 q 289 832 333 859 q 163 805 244 805 m 552 811 l 467 811 l 431 1010 l 562 1010 l 552 811 z "},"":{"ha":1132,"x_min":147,"x_max":1174,"o":"m 519 0 l 538 114 l 718 114 l 847 897 l 667 897 l 686 1010 l 1174 1010 l 1155 897 l 976 897 l 846 114 l 1025 114 l 1006 0 l 519 0 m 299 805 q 183 832 219 805 q 156 913 147 859 q 210 991 165 966 q 334 1017 254 1017 l 359 1017 l 347 945 l 322 945 q 269 934 288 945 q 246 903 250 924 q 257 866 242 878 q 307 854 273 854 l 316 854 l 308 805 l 299 805 m 568 811 l 483 811 l 447 1010 l 578 1010 l 568 811 z "},"":{"ha":1120,"x_min":155,"x_max":1162,"o":"m 507 0 l 526 114 l 706 114 l 836 897 l 656 897 l 675 1010 l 1162 1010 l 1143 897 l 964 897 l 835 114 l 1014 114 l 995 0 l 507 0 m 163 805 l 155 805 l 163 854 l 172 854 q 225 866 206 854 q 249 903 245 878 q 237 934 252 924 q 186 945 221 945 l 161 945 l 174 1017 l 199 1017 q 315 991 279 1017 q 342 913 351 966 q 289 832 333 859 q 163 805 244 805 m 408 811 l 465 1010 l 595 1010 l 493 811 l 408 811 z "},"":{"ha":1125,"x_min":147,"x_max":1167,"o":"m 512 0 l 531 114 l 711 114 l 840 897 l 661 897 l 680 1010 l 1167 1010 l 1148 897 l 969 897 l 840 114 l 1019 114 l 1000 0 l 512 0 m 299 805 q 183 832 219 805 q 156 913 147 859 q 210 991 165 966 q 334 1017 254 1017 l 359 1017 l 347 945 l 322 945 q 269 934 288 945 q 246 903 250 924 q 257 866 242 878 q 307 854 273 854 l 316 854 l 308 805 l 299 805 m 413 811 l 469 1010 l 600 1010 l 498 811 l 413 811 z "},"":{"ha":1008,"x_min":186,"x_max":1050,"o":"m 395 0 l 414 114 l 593 114 l 723 897 l 543 897 l 562 1010 l 1050 1010 l 1031 897 l 852 897 l 722 114 l 901 114 l 882 0 l 395 0 m 269 814 l 260 814 l 269 863 l 277 863 q 331 876 312 863 q 355 912 351 888 q 342 944 358 933 q 292 954 327 954 l 267 954 l 279 1027 l 304 1027 q 421 1001 385 1027 q 448 923 456 975 q 394 842 439 869 q 269 814 350 814 m 473 1095 q 425 1104 448 1095 q 382 1123 402 1112 q 347 1143 363 1135 q 317 1152 330 1152 q 287 1134 298 1152 q 272 1098 276 1117 l 186 1098 q 233 1200 199 1160 q 320 1239 267 1239 q 368 1230 347 1239 q 407 1210 389 1221 q 441 1190 425 1199 q 474 1181 457 1181 q 502 1195 492 1181 q 521 1236 513 1208 l 604 1236 q 556 1133 591 1171 q 473 1095 522 1095 z "},"":{"ha":1008,"x_min":185,"x_max":1050,"o":"m 395 0 l 414 114 l 593 114 l 723 897 l 543 897 l 562 1010 l 1050 1010 l 1031 897 l 852 897 l 722 114 l 901 114 l 882 0 l 395 0 m 404 804 q 288 831 324 804 q 261 912 252 858 q 315 990 270 964 q 439 1016 359 1016 l 465 1016 l 452 943 l 427 943 q 374 933 393 943 q 351 901 355 922 q 362 865 347 877 q 412 852 378 852 l 421 852 l 413 804 l 404 804 m 471 1084 q 424 1093 446 1084 q 381 1113 401 1101 q 345 1132 361 1124 q 316 1141 329 1141 q 286 1123 297 1141 q 271 1087 275 1106 l 185 1087 q 232 1189 198 1149 q 319 1228 265 1228 q 366 1219 345 1228 q 405 1199 387 1211 q 439 1179 423 1188 q 473 1171 456 1171 q 501 1184 490 1171 q 519 1225 511 1197 l 603 1225 q 555 1122 590 1160 q 471 1084 520 1084 z "},"":{"ha":612,"x_min":-1,"x_max":657,"o":"m -1 0 l 18 114 l 198 114 l 328 897 l 148 897 l 167 1010 l 654 1010 l 635 897 l 456 897 l 327 114 l 506 114 l 487 0 l -1 0 m 428 1117 q 333 1143 373 1117 q 274 1212 292 1168 q 264 1309 255 1255 l 353 1309 q 371 1233 346 1262 q 443 1204 396 1204 q 500 1217 474 1204 q 545 1254 527 1230 q 568 1309 563 1278 l 657 1309 q 615 1212 648 1255 q 532 1142 581 1168 q 428 1117 484 1117 z "},"":{"ha":612,"x_min":-1,"x_max":654,"o":"m -1 0 l 18 114 l 198 114 l 328 897 l 148 897 l 167 1010 l 654 1010 l 635 897 l 456 897 l 327 114 l 506 114 l 487 0 l -1 0 m 642 1263 l 625 1167 l 250 1167 l 266 1263 l 642 1263 z "},"":{"ha":734,"x_min":64,"x_max":777,"o":"m 121 0 l 140 114 l 320 114 l 450 897 l 270 897 l 289 1010 l 777 1010 l 758 897 l 578 897 l 449 114 l 628 114 l 609 0 l 121 0 m 184 857 l 100 857 l 64 1057 l 195 1057 l 184 857 z "},"":{"ha":853,"x_min":139,"x_max":895,"o":"m 240 0 l 259 114 l 439 114 l 568 897 l 389 897 l 408 1010 l 895 1010 l 876 897 l 697 897 l 568 114 l 747 114 l 728 0 l 240 0 m 139 811 l 195 1010 l 326 1010 l 224 811 l 139 811 z "},"":{"ha":612,"x_min":-1,"x_max":654,"o":"m -1 0 l 18 114 l 198 114 l 328 897 l 148 897 l 167 1010 l 654 1010 l 635 897 l 456 897 l 327 114 l 506 114 l 487 0 l -1 0 z "},"":{"ha":612,"x_min":-1,"x_max":673,"o":"m -1 0 l 18 114 l 198 114 l 328 897 l 148 897 l 167 1010 l 654 1010 l 635 897 l 456 897 l 327 114 l 506 114 l 487 0 l -1 0 m 574 1135 q 522 1158 541 1135 q 507 1215 502 1182 q 541 1272 513 1249 q 602 1295 568 1295 q 654 1272 635 1295 q 668 1215 673 1249 q 635 1158 663 1182 q 574 1135 608 1135 m 289 1135 q 236 1158 256 1135 q 222 1215 216 1182 q 255 1272 227 1249 q 316 1295 283 1295 q 369 1272 349 1295 q 382 1215 388 1249 q 350 1158 377 1182 q 289 1135 322 1135 z "},"J":{"ha":793,"x_min":47,"x_max":776,"o":"m 311 -14 q 120 48 192 -14 q 47 225 47 111 q 48 248 47 235 q 53 283 50 260 q 62 343 56 305 l 191 343 q 182 289 185 308 q 178 259 179 269 q 178 242 178 250 q 217 136 178 173 q 323 100 256 100 q 455 147 399 100 q 527 289 511 195 l 647 1010 l 776 1010 l 656 289 q 539 66 632 145 q 311 -14 446 -14 z "},"Ĵ":{"ha":793,"x_min":47,"x_max":949,"o":"m 311 -14 q 120 48 192 -14 q 47 225 47 111 q 48 248 47 235 q 53 283 50 260 q 62 343 56 305 l 191 343 q 182 289 185 308 q 178 259 179 269 q 178 242 178 250 q 217 136 178 173 q 323 100 256 100 q 455 147 399 100 q 527 289 511 195 l 647 1010 l 776 1010 l 656 289 q 539 66 632 145 q 311 -14 446 -14 m 632 1122 l 512 1122 l 513 1128 l 703 1309 l 819 1309 l 949 1128 l 947 1122 l 826 1122 l 750 1240 l 632 1122 z "},"Ɉ":{"ha":840,"x_min":47,"x_max":869,"o":"m 311 -14 q 120 48 192 -14 q 47 225 47 111 q 48 248 47 235 q 53 283 50 260 q 62 343 56 305 l 191 343 q 182 289 185 308 q 178 259 179 269 q 178 242 178 250 q 217 136 178 173 q 323 100 256 100 q 455 147 399 100 q 527 289 511 195 l 647 1010 l 776 1010 l 656 289 q 539 66 632 145 q 311 -14 446 -14 m 416 554 l 431 645 l 869 645 l 854 554 l 416 554 z "},"Ϳ":{"ha":793,"x_min":47,"x_max":776,"o":"m 311 -14 q 120 48 192 -14 q 47 225 47 111 q 48 248 47 235 q 53 283 50 260 q 62 343 56 305 l 191 343 q 182 289 185 308 q 178 259 179 269 q 178 242 178 250 q 217 136 178 173 q 323 100 256 100 q 455 147 399 100 q 527 289 511 195 l 647 1010 l 776 1010 l 656 289 q 539 66 632 145 q 311 -14 446 -14 z "},"Ј":{"ha":793,"x_min":47,"x_max":776,"o":"m 311 -14 q 120 48 192 -14 q 47 225 47 111 q 48 248 47 235 q 53 283 50 260 q 62 343 56 305 l 191 343 q 182 289 185 308 q 178 259 179 269 q 178 242 178 250 q 217 136 178 173 q 323 100 256 100 q 455 147 399 100 q 527 289 511 195 l 647 1010 l 776 1010 l 656 289 q 539 66 632 145 q 311 -14 446 -14 z "},"K":{"ha":933,"x_min":59,"x_max":998,"o":"m 195 289 l 212 427 q 296 517 254 474 q 380 602 338 561 q 467 684 423 644 l 823 1010 l 998 1010 l 490 548 l 483 549 l 195 289 m 59 0 l 227 1010 l 356 1010 l 298 665 l 260 447 l 252 384 l 189 0 l 59 0 m 690 0 l 410 514 l 495 614 l 831 0 l 690 0 z "},"Ķ":{"ha":933,"x_min":59,"x_max":998,"o":"m 195 289 l 212 427 q 296 517 254 474 q 380 602 338 561 q 467 684 423 644 l 823 1010 l 998 1010 l 490 548 l 483 549 l 195 289 m 59 0 l 227 1010 l 356 1010 l 298 665 l 260 447 l 252 384 l 189 0 l 59 0 m 690 0 l 410 514 l 495 614 l 831 0 l 690 0 m 241 -334 l 338 -80 l 464 -80 l 336 -334 l 241 -334 z "},"Ǩ":{"ha":933,"x_min":59,"x_max":998,"o":"m 195 289 l 212 427 q 296 517 254 474 q 380 602 338 561 q 467 684 423 644 l 823 1010 l 998 1010 l 490 548 l 483 549 l 195 289 m 59 0 l 227 1010 l 356 1010 l 298 665 l 260 447 l 252 384 l 189 0 l 59 0 m 690 0 l 410 514 l 495 614 l 831 0 l 690 0 m 534 1309 l 612 1190 l 728 1309 l 849 1309 l 848 1303 l 657 1122 l 541 1122 l 412 1303 l 414 1309 l 534 1309 z "},"Ḱ":{"ha":933,"x_min":59,"x_max":998,"o":"m 195 289 l 212 427 q 296 517 254 474 q 380 602 338 561 q 467 684 423 644 l 823 1010 l 998 1010 l 490 548 l 483 549 l 195 289 m 59 0 l 227 1010 l 356 1010 l 298 665 l 260 447 l 252 384 l 189 0 l 59 0 m 690 0 l 410 514 l 495 614 l 831 0 l 690 0 m 542 1122 l 668 1309 l 804 1309 l 642 1122 l 542 1122 z "},"Ḳ":{"ha":933,"x_min":59,"x_max":998,"o":"m 195 289 l 212 427 q 296 517 254 474 q 380 602 338 561 q 467 684 423 644 l 823 1010 l 998 1010 l 490 548 l 483 549 l 195 289 m 59 0 l 227 1010 l 356 1010 l 298 665 l 260 447 l 252 384 l 189 0 l 59 0 m 690 0 l 410 514 l 495 614 l 831 0 l 690 0 m 370 -286 q 314 -262 335 -286 q 298 -205 293 -238 q 333 -148 304 -171 q 397 -124 362 -124 q 453 -148 432 -124 q 469 -205 474 -171 q 434 -262 463 -238 q 370 -286 405 -286 z "},"Ḵ":{"ha":933,"x_min":59,"x_max":998,"o":"m 195 289 l 212 427 q 296 517 254 474 q 380 602 338 561 q 467 684 423 644 l 823 1010 l 998 1010 l 490 548 l 483 549 l 195 289 m 59 0 l 227 1010 l 356 1010 l 298 665 l 260 447 l 252 384 l 189 0 l 59 0 m 690 0 l 410 514 l 495 614 l 831 0 l 690 0 m 577 -157 l 561 -253 l 185 -253 l 201 -157 l 577 -157 z "},"Ҡ":{"ha":1167,"x_min":155,"x_max":1217,"o":"m 522 1010 l 503 902 l 155 902 l 173 1010 l 522 1010 m 293 0 l 460 1010 l 589 1010 l 517 570 l 658 570 l 1061 1010 l 1217 1010 l 759 521 l 1065 0 l 911 0 l 645 458 l 497 458 l 422 0 l 293 0 z "},"Қ":{"ha":960,"x_min":59,"x_max":983,"o":"m 59 0 l 227 1010 l 355 1010 l 283 570 l 424 570 l 827 1010 l 983 1010 l 525 521 l 831 0 l 677 0 l 411 458 l 263 458 l 188 0 l 59 0 m 732 -217 l 768 0 l 718 0 l 736 113 l 909 113 l 854 -217 l 732 -217 z "},"Ƙ":{"ha":942,"x_min":60,"x_max":1030,"o":"m 60 0 l 227 1010 l 355 1010 l 273 513 l 286 513 l 753 949 q 848 1009 798 991 q 944 1021 897 1027 q 1030 984 991 1015 l 963 889 q 901 904 936 909 q 822 859 867 899 l 487 554 l 818 0 l 662 0 l 392 464 l 243 322 l 189 0 l 60 0 z "},"Κ":{"ha":933,"x_min":59,"x_max":998,"o":"m 195 289 l 212 427 q 296 517 254 474 q 380 602 338 561 q 467 684 423 644 l 823 1010 l 998 1010 l 490 548 l 483 549 l 195 289 m 59 0 l 227 1010 l 356 1010 l 298 665 l 260 447 l 252 384 l 189 0 l 59 0 m 690 0 l 410 514 l 495 614 l 831 0 l 690 0 z "},"L":{"ha":785,"x_min":59,"x_max":675,"o":"m 59 0 l 227 1010 l 355 1010 l 207 114 l 675 114 l 656 0 l 59 0 z "},"Ĺ":{"ha":785,"x_min":59,"x_max":675,"o":"m 59 0 l 227 1010 l 355 1010 l 207 114 l 675 114 l 656 0 l 59 0 m 251 1122 l 377 1309 l 513 1309 l 351 1122 l 251 1122 z "},"Ļ":{"ha":785,"x_min":59,"x_max":675,"o":"m 59 0 l 227 1010 l 355 1010 l 207 114 l 675 114 l 656 0 l 59 0 m 183 -334 l 281 -80 l 406 -80 l 278 -334 l 183 -334 z "},"Ľ":{"ha":785,"x_min":59,"x_max":675,"o":"m 59 0 l 227 1010 l 355 1010 l 207 114 l 675 114 l 656 0 l 59 0 m 492 802 l 534 1058 l 656 1058 l 579 802 l 492 802 z "},"Ḷ":{"ha":785,"x_min":59,"x_max":675,"o":"m 59 0 l 227 1010 l 355 1010 l 207 114 l 675 114 l 656 0 l 59 0 m 312 -286 q 256 -262 277 -286 q 241 -205 235 -238 q 275 -148 246 -171 q 339 -124 304 -124 q 395 -148 374 -124 q 411 -205 416 -171 q 376 -262 406 -238 q 312 -286 347 -286 z "},"Ḹ":{"ha":785,"x_min":59,"x_max":675,"o":"m 59 0 l 227 1010 l 355 1010 l 207 114 l 675 114 l 656 0 l 59 0 m 312 -286 q 256 -262 277 -286 q 241 -205 235 -238 q 275 -148 246 -171 q 339 -124 304 -124 q 395 -148 374 -124 q 411 -205 416 -171 q 376 -262 406 -238 q 312 -286 347 -286 m 522 1263 l 505 1167 l 130 1167 l 146 1263 l 522 1263 z "},"Ḻ":{"ha":785,"x_min":59,"x_max":675,"o":"m 59 0 l 227 1010 l 355 1010 l 207 114 l 675 114 l 656 0 l 59 0 m 519 -157 l 503 -253 l 127 -253 l 144 -157 l 519 -157 z "},"Ḽ":{"ha":785,"x_min":59,"x_max":675,"o":"m 59 0 l 227 1010 l 355 1010 l 207 114 l 675 114 l 656 0 l 59 0 m 214 -298 l 94 -298 l 96 -292 l 285 -111 l 401 -111 l 531 -292 l 530 -298 l 408 -298 l 332 -180 l 214 -298 z "},"Ł":{"ha":785,"x_min":59,"x_max":675,"o":"m 59 0 l 227 1010 l 355 1010 l 207 114 l 675 114 l 656 0 l 59 0 m 90 347 l 111 475 l 664 766 l 643 638 l 90 347 z "},"Ƚ":{"ha":804,"x_min":26,"x_max":693,"o":"m 77 0 l 245 1010 l 374 1010 l 225 114 l 693 114 l 674 0 l 77 0 m 26 453 l 43 557 l 567 557 l 550 453 l 26 453 z "},"ǈ":{"ha":1122,"x_min":59,"x_max":1141,"o":"m 59 0 l 227 1010 l 355 1010 l 207 114 l 675 114 l 656 0 l 59 0 m 955 758 l 1078 758 l 943 -54 q 898 -177 931 -126 q 811 -256 865 -229 q 683 -283 757 -283 l 659 -283 l 677 -171 l 699 -171 q 782 -141 751 -171 q 821 -54 812 -111 l 955 758 m 1037 882 q 981 906 1002 882 q 966 963 960 930 q 1000 1020 971 997 q 1064 1044 1029 1044 q 1120 1020 1099 1044 q 1136 963 1141 997 q 1101 906 1131 930 q 1037 882 1072 882 z "},"M":{"ha":1255,"x_min":59,"x_max":1237,"o":"m 59 0 l 227 1010 l 410 1010 l 553 373 q 564 316 558 350 q 575 242 570 281 q 586 164 581 203 q 595 94 591 125 l 566 94 q 600 167 582 127 q 637 245 618 206 q 672 317 656 284 q 701 373 689 351 l 1053 1010 l 1237 1010 l 1069 0 l 943 0 l 1038 577 q 1050 653 1043 611 q 1066 740 1058 695 q 1083 828 1075 785 q 1099 910 1092 872 l 1109 910 q 1063 814 1087 863 q 1016 720 1039 765 q 974 638 994 675 q 941 577 955 602 l 620 0 l 508 0 l 374 577 q 358 661 368 608 q 337 779 348 713 q 313 910 326 844 l 326 910 q 314 825 321 869 q 301 735 308 780 q 288 650 294 691 q 277 577 282 610 l 182 0 l 59 0 z "},"Ḿ":{"ha":1255,"x_min":59,"x_max":1237,"o":"m 59 0 l 227 1010 l 410 1010 l 553 373 q 564 316 558 350 q 575 242 570 281 q 586 164 581 203 q 595 94 591 125 l 566 94 q 600 167 582 127 q 637 245 618 206 q 672 317 656 284 q 701 373 689 351 l 1053 1010 l 1237 1010 l 1069 0 l 943 0 l 1038 577 q 1050 653 1043 611 q 1066 740 1058 695 q 1083 828 1075 785 q 1099 910 1092 872 l 1109 910 q 1063 814 1087 863 q 1016 720 1039 765 q 974 638 994 675 q 941 577 955 602 l 620 0 l 508 0 l 374 577 q 358 661 368 608 q 337 779 348 713 q 313 910 326 844 l 326 910 q 314 825 321 869 q 301 735 308 780 q 288 650 294 691 q 277 577 282 610 l 182 0 l 59 0 m 689 1122 l 815 1309 l 951 1309 l 789 1122 l 689 1122 z "},"Ṁ":{"ha":1255,"x_min":59,"x_max":1237,"o":"m 59 0 l 227 1010 l 410 1010 l 553 373 q 564 316 558 350 q 575 242 570 281 q 586 164 581 203 q 595 94 591 125 l 566 94 q 600 167 582 127 q 637 245 618 206 q 672 317 656 284 q 701 373 689 351 l 1053 1010 l 1237 1010 l 1069 0 l 943 0 l 1038 577 q 1050 653 1043 611 q 1066 740 1058 695 q 1083 828 1075 785 q 1099 910 1092 872 l 1109 910 q 1063 814 1087 863 q 1016 720 1039 765 q 974 638 994 675 q 941 577 955 602 l 620 0 l 508 0 l 374 577 q 358 661 368 608 q 337 779 348 713 q 313 910 326 844 l 326 910 q 314 825 321 869 q 301 735 308 780 q 288 650 294 691 q 277 577 282 610 l 182 0 l 59 0 m 749 1135 q 694 1158 715 1135 q 678 1215 673 1182 q 713 1273 684 1249 q 777 1296 742 1296 q 833 1273 812 1296 q 848 1215 854 1249 q 814 1158 843 1182 q 749 1135 785 1135 z "},"Ṃ":{"ha":1255,"x_min":59,"x_max":1237,"o":"m 59 0 l 227 1010 l 410 1010 l 553 373 q 564 316 558 350 q 575 242 570 281 q 586 164 581 203 q 595 94 591 125 l 566 94 q 600 167 582 127 q 637 245 618 206 q 672 317 656 284 q 701 373 689 351 l 1053 1010 l 1237 1010 l 1069 0 l 943 0 l 1038 577 q 1050 653 1043 611 q 1066 740 1058 695 q 1083 828 1075 785 q 1099 910 1092 872 l 1109 910 q 1063 814 1087 863 q 1016 720 1039 765 q 974 638 994 675 q 941 577 955 602 l 620 0 l 508 0 l 374 577 q 358 661 368 608 q 337 779 348 713 q 313 910 326 844 l 326 910 q 314 825 321 869 q 301 735 308 780 q 288 650 294 691 q 277 577 282 610 l 182 0 l 59 0 m 517 -286 q 461 -262 482 -286 q 446 -205 440 -238 q 480 -148 451 -171 q 544 -124 509 -124 q 600 -148 579 -124 q 616 -205 621 -171 q 581 -262 610 -238 q 517 -286 552 -286 z "},"Ӎ":{"ha":1255,"x_min":59,"x_max":1237,"o":"m 59 0 l 227 1010 l 410 1010 l 553 373 q 564 316 558 350 q 575 242 570 281 q 586 164 581 203 q 595 94 591 125 l 566 94 q 600 167 582 127 q 637 245 618 206 q 672 317 656 284 q 701 373 689 351 l 1053 1010 l 1237 1010 l 1069 0 l 943 0 l 1038 577 q 1050 653 1043 611 q 1066 740 1058 695 q 1083 828 1075 785 q 1099 910 1092 872 l 1109 910 q 1063 814 1087 863 q 1016 720 1039 765 q 974 638 994 675 q 941 577 955 602 l 620 0 l 508 0 l 374 577 q 358 661 368 608 q 337 779 348 713 q 313 910 326 844 l 326 910 q 314 825 321 869 q 301 735 308 780 q 288 650 294 691 q 277 577 282 610 l 182 0 l 59 0 m 943 -217 l 1043 0 l 999 0 l 1017 113 l 1217 113 l 1064 -217 l 943 -217 z "},"Μ":{"ha":1255,"x_min":59,"x_max":1237,"o":"m 59 0 l 227 1010 l 410 1010 l 553 373 q 564 316 558 350 q 575 242 570 281 q 586 164 581 203 q 595 94 591 125 l 566 94 q 600 167 582 127 q 637 245 618 206 q 672 317 656 284 q 701 373 689 351 l 1053 1010 l 1237 1010 l 1069 0 l 943 0 l 1038 577 q 1050 653 1043 611 q 1066 740 1058 695 q 1083 828 1075 785 q 1099 910 1092 872 l 1109 910 q 1063 814 1087 863 q 1016 720 1039 765 q 974 638 994 675 q 941 577 955 602 l 620 0 l 508 0 l 374 577 q 358 661 368 608 q 337 779 348 713 q 313 910 326 844 l 326 910 q 314 825 321 869 q 301 735 308 780 q 288 650 294 691 q 277 577 282 610 l 182 0 l 59 0 z "},"Ϻ":{"ha":1255,"x_min":59,"x_max":1237,"o":"m 59 0 l 227 1010 l 410 1010 l 553 373 q 564 316 558 350 q 575 242 570 281 q 586 164 581 203 q 595 94 591 125 l 566 94 q 600 167 582 127 q 637 245 618 206 q 672 317 656 284 q 701 373 689 351 l 1053 1010 l 1237 1010 l 1069 0 l 943 0 l 1038 577 q 1050 653 1043 611 q 1066 740 1058 695 q 1083 828 1075 785 q 1099 910 1092 872 l 1109 910 q 1063 814 1087 863 q 1016 720 1039 765 q 974 638 994 675 q 941 577 955 602 l 620 0 l 508 0 l 374 577 q 358 661 368 608 q 337 779 348 713 q 313 910 326 844 l 326 910 q 314 825 321 869 q 301 735 308 780 q 288 650 294 691 q 277 577 282 610 l 182 0 l 59 0 z "},"М":{"ha":1255,"x_min":59,"x_max":1237,"o":"m 59 0 l 227 1010 l 410 1010 l 553 373 q 564 316 558 350 q 575 242 570 281 q 586 164 581 203 q 595 94 591 125 l 566 94 q 600 167 582 127 q 637 245 618 206 q 672 317 656 284 q 701 373 689 351 l 1053 1010 l 1237 1010 l 1069 0 l 943 0 l 1038 577 q 1050 653 1043 611 q 1066 740 1058 695 q 1083 828 1075 785 q 1099 910 1092 872 l 1109 910 q 1063 814 1087 863 q 1016 720 1039 765 q 974 638 994 675 q 941 577 955 602 l 620 0 l 508 0 l 374 577 q 358 661 368 608 q 337 779 348 713 q 313 910 326 844 l 326 910 q 314 825 321 869 q 301 735 308 780 q 288 650 294 691 q 277 577 282 610 l 182 0 l 59 0 z "},"N":{"ha":1046,"x_min":59,"x_max":1029,"o":"m 59 0 l 227 1010 l 374 1010 l 678 364 q 704 306 688 344 q 740 216 721 267 q 777 105 760 165 l 763 105 q 772 216 766 163 q 785 313 779 269 q 798 391 792 358 l 900 1010 l 1029 1010 l 861 0 l 713 0 l 441 575 q 407 653 425 612 q 365 754 389 695 q 307 901 342 813 l 326 901 q 308 756 315 819 q 294 648 300 693 q 283 576 288 604 l 189 0 l 59 0 z "},"Ñ":{"ha":1046,"x_min":59,"x_max":1029,"o":"m 59 0 l 227 1010 l 374 1010 l 678 364 q 704 306 688 344 q 740 216 721 267 q 777 105 760 165 l 763 105 q 772 216 766 163 q 785 313 779 269 q 798 391 792 358 l 900 1010 l 1029 1010 l 861 0 l 713 0 l 441 575 q 407 653 425 612 q 365 754 389 695 q 307 901 342 813 l 326 901 q 308 756 315 819 q 294 648 300 693 q 283 576 288 604 l 189 0 l 59 0 m 739 1143 q 691 1151 714 1143 q 649 1171 669 1160 q 613 1191 629 1182 q 584 1199 597 1199 q 554 1182 565 1199 q 538 1145 543 1164 l 453 1145 q 499 1247 466 1208 q 587 1286 533 1286 q 634 1278 613 1286 q 673 1258 655 1269 q 707 1238 691 1246 q 741 1229 724 1229 q 769 1242 758 1229 q 787 1284 779 1255 l 871 1284 q 823 1180 858 1218 q 739 1143 788 1143 z "},"Ń":{"ha":1046,"x_min":59,"x_max":1029,"o":"m 59 0 l 227 1010 l 374 1010 l 678 364 q 704 306 688 344 q 740 216 721 267 q 777 105 760 165 l 763 105 q 772 216 766 163 q 785 313 779 269 q 798 391 792 358 l 900 1010 l 1029 1010 l 861 0 l 713 0 l 441 575 q 407 653 425 612 q 365 754 389 695 q 307 901 342 813 l 326 901 q 308 756 315 819 q 294 648 300 693 q 283 576 288 604 l 189 0 l 59 0 m 588 1122 l 714 1309 l 850 1309 l 688 1122 l 588 1122 z "},"Ņ":{"ha":1046,"x_min":59,"x_max":1029,"o":"m 59 0 l 227 1010 l 374 1010 l 678 364 q 704 306 688 344 q 740 216 721 267 q 777 105 760 165 l 763 105 q 772 216 766 163 q 785 313 779 269 q 798 391 792 358 l 900 1010 l 1029 1010 l 861 0 l 713 0 l 441 575 q 407 653 425 612 q 365 754 389 695 q 307 901 342 813 l 326 901 q 308 756 315 819 q 294 648 300 693 q 283 576 288 604 l 189 0 l 59 0 m 287 -334 l 385 -80 l 510 -80 l 382 -334 l 287 -334 z "},"Ň":{"ha":1046,"x_min":59,"x_max":1029,"o":"m 59 0 l 227 1010 l 374 1010 l 678 364 q 704 306 688 344 q 740 216 721 267 q 777 105 760 165 l 763 105 q 772 216 766 163 q 785 313 779 269 q 798 391 792 358 l 900 1010 l 1029 1010 l 861 0 l 713 0 l 441 575 q 407 653 425 612 q 365 754 389 695 q 307 901 342 813 l 326 901 q 308 756 315 819 q 294 648 300 693 q 283 576 288 604 l 189 0 l 59 0 m 580 1309 l 658 1190 l 774 1309 l 895 1309 l 894 1303 l 703 1122 l 587 1122 l 458 1303 l 460 1309 l 580 1309 z "},"Ǹ":{"ha":1046,"x_min":59,"x_max":1029,"o":"m 59 0 l 227 1010 l 374 1010 l 678 364 q 704 306 688 344 q 740 216 721 267 q 777 105 760 165 l 763 105 q 772 216 766 163 q 785 313 779 269 q 798 391 792 358 l 900 1010 l 1029 1010 l 861 0 l 713 0 l 441 575 q 407 653 425 612 q 365 754 389 695 q 307 901 342 813 l 326 901 q 308 756 315 819 q 294 648 300 693 q 283 576 288 604 l 189 0 l 59 0 m 596 1109 l 498 1309 l 635 1309 l 696 1109 l 596 1109 z "},"Ṅ":{"ha":1046,"x_min":59,"x_max":1029,"o":"m 59 0 l 227 1010 l 374 1010 l 678 364 q 704 306 688 344 q 740 216 721 267 q 777 105 760 165 l 763 105 q 772 216 766 163 q 785 313 779 269 q 798 391 792 358 l 900 1010 l 1029 1010 l 861 0 l 713 0 l 441 575 q 407 653 425 612 q 365 754 389 695 q 307 901 342 813 l 326 901 q 308 756 315 819 q 294 648 300 693 q 283 576 288 604 l 189 0 l 59 0 m 648 1135 q 593 1158 614 1135 q 577 1215 572 1182 q 612 1273 583 1249 q 675 1296 641 1296 q 732 1273 711 1296 q 747 1215 753 1249 q 713 1158 742 1182 q 648 1135 684 1135 z "},"Ṇ":{"ha":1046,"x_min":59,"x_max":1029,"o":"m 59 0 l 227 1010 l 374 1010 l 678 364 q 704 306 688 344 q 740 216 721 267 q 777 105 760 165 l 763 105 q 772 216 766 163 q 785 313 779 269 q 798 391 792 358 l 900 1010 l 1029 1010 l 861 0 l 713 0 l 441 575 q 407 653 425 612 q 365 754 389 695 q 307 901 342 813 l 326 901 q 308 756 315 819 q 294 648 300 693 q 283 576 288 604 l 189 0 l 59 0 m 416 -286 q 360 -262 381 -286 q 345 -205 339 -238 q 379 -148 350 -171 q 443 -124 408 -124 q 499 -148 478 -124 q 515 -205 520 -171 q 480 -262 509 -238 q 416 -286 451 -286 z "},"Ṉ":{"ha":1046,"x_min":59,"x_max":1029,"o":"m 59 0 l 227 1010 l 374 1010 l 678 364 q 704 306 688 344 q 740 216 721 267 q 777 105 760 165 l 763 105 q 772 216 766 163 q 785 313 779 269 q 798 391 792 358 l 900 1010 l 1029 1010 l 861 0 l 713 0 l 441 575 q 407 653 425 612 q 365 754 389 695 q 307 901 342 813 l 326 901 q 308 756 315 819 q 294 648 300 693 q 283 576 288 604 l 189 0 l 59 0 m 623 -157 l 607 -253 l 231 -253 l 248 -157 l 623 -157 z "},"Ṋ":{"ha":1046,"x_min":59,"x_max":1029,"o":"m 59 0 l 227 1010 l 374 1010 l 678 364 q 704 306 688 344 q 740 216 721 267 q 777 105 760 165 l 763 105 q 772 216 766 163 q 785 313 779 269 q 798 391 792 358 l 900 1010 l 1029 1010 l 861 0 l 713 0 l 441 575 q 407 653 425 612 q 365 754 389 695 q 307 901 342 813 l 326 901 q 308 756 315 819 q 294 648 300 693 q 283 576 288 604 l 189 0 l 59 0 m 318 -298 l 198 -298 l 199 -292 l 389 -111 l 505 -111 l 635 -292 l 633 -298 l 512 -298 l 436 -180 l 318 -298 z "},"Ɲ":{"ha":1046,"x_min":-127,"x_max":1029,"o":"m -127 -283 l -109 -176 q -88 -178 -98 -178 q -70 -179 -77 -179 q 12 -162 -12 -179 q 41 -111 35 -144 l 73 87 l 202 87 l 168 -116 q 96 -245 154 -201 q -58 -290 38 -290 q -99 -288 -80 -290 q -127 -283 -117 -286 m 59 0 l 227 1010 l 374 1010 l 678 364 q 704 306 688 344 q 740 216 721 267 q 777 105 760 165 l 763 105 q 772 216 766 163 q 785 313 779 269 q 798 391 792 358 l 900 1010 l 1029 1010 l 861 0 l 713 0 l 441 575 q 407 653 425 612 q 365 754 389 695 q 307 901 342 813 l 326 901 q 308 756 315 819 q 294 648 300 693 q 283 576 288 604 l 189 0 l 59 0 z "},"Ŋ":{"ha":1046,"x_min":59,"x_max":1029,"o":"m 554 -283 l 572 -176 q 593 -178 583 -178 q 611 -179 604 -179 q 693 -162 669 -179 q 722 -111 716 -144 l 754 87 l 883 87 l 849 -116 q 777 -245 835 -201 q 623 -290 719 -290 q 582 -288 601 -290 q 554 -283 564 -286 m 59 0 l 227 1010 l 374 1010 l 678 364 q 704 306 688 344 q 740 216 721 267 q 777 105 760 165 l 763 105 q 772 216 766 163 q 785 313 779 269 q 798 391 792 358 l 900 1010 l 1029 1010 l 861 0 l 713 0 l 441 575 q 407 653 425 612 q 365 754 389 695 q 307 901 342 813 l 326 901 q 308 756 315 819 q 294 648 300 693 q 283 576 288 604 l 189 0 l 59 0 z "},"И":{"ha":1046,"x_min":59,"x_max":1029,"o":"m 861 0 l 732 0 l 828 576 q 842 649 833 603 q 864 760 851 696 q 894 901 878 823 l 917 901 q 811 756 854 814 q 736 655 768 697 q 674 575 705 613 l 212 0 l 59 0 l 227 1010 l 356 1010 l 253 391 q 239 311 248 356 q 220 215 231 267 q 193 105 208 163 l 174 105 q 245 212 210 161 q 310 301 280 262 q 359 364 340 340 l 877 1010 l 1029 1010 l 861 0 z "},"Ѝ":{"ha":1046,"x_min":59,"x_max":1029,"o":"m 861 0 l 732 0 l 828 576 q 842 649 833 603 q 864 760 851 696 q 894 901 878 823 l 917 901 q 811 756 854 814 q 736 655 768 697 q 674 575 705 613 l 212 0 l 59 0 l 227 1010 l 356 1010 l 253 391 q 239 311 248 356 q 220 215 231 267 q 193 105 208 163 l 174 105 q 245 212 210 161 q 310 301 280 262 q 359 364 340 340 l 877 1010 l 1029 1010 l 861 0 m 597 1109 l 500 1309 l 636 1309 l 697 1109 l 597 1109 z "},"Й":{"ha":1046,"x_min":59,"x_max":1029,"o":"m 861 0 l 732 0 l 828 576 q 842 649 833 603 q 864 760 851 696 q 894 901 878 823 l 917 901 q 811 756 854 814 q 736 655 768 697 q 674 575 705 613 l 212 0 l 59 0 l 227 1010 l 356 1010 l 253 391 q 239 311 248 356 q 220 215 231 267 q 193 105 208 163 l 174 105 q 245 212 210 161 q 310 301 280 262 q 359 364 340 340 l 877 1010 l 1029 1010 l 861 0 m 646 1117 q 551 1143 591 1117 q 492 1212 511 1168 q 482 1309 473 1255 l 572 1309 q 589 1233 564 1262 q 661 1204 614 1204 q 719 1217 692 1204 q 763 1254 745 1230 q 786 1309 781 1278 l 876 1309 q 833 1212 867 1255 q 751 1142 800 1168 q 646 1117 702 1117 z "},"Ӣ":{"ha":1046,"x_min":59,"x_max":1029,"o":"m 861 0 l 732 0 l 828 576 q 842 649 833 603 q 864 760 851 696 q 894 901 878 823 l 917 901 q 811 756 854 814 q 736 655 768 697 q 674 575 705 613 l 212 0 l 59 0 l 227 1010 l 356 1010 l 253 391 q 239 311 248 356 q 220 215 231 267 q 193 105 208 163 l 174 105 q 245 212 210 161 q 310 301 280 262 q 359 364 340 340 l 877 1010 l 1029 1010 l 861 0 m 860 1263 l 844 1167 l 468 1167 l 484 1263 l 860 1263 z "},"Ӥ":{"ha":1046,"x_min":59,"x_max":1029,"o":"m 861 0 l 732 0 l 828 576 q 842 649 833 603 q 864 760 851 696 q 894 901 878 823 l 917 901 q 811 756 854 814 q 736 655 768 697 q 674 575 705 613 l 212 0 l 59 0 l 227 1010 l 356 1010 l 253 391 q 239 311 248 356 q 220 215 231 267 q 193 105 208 163 l 174 105 q 245 212 210 161 q 310 301 280 262 q 359 364 340 340 l 877 1010 l 1029 1010 l 861 0 m 793 1135 q 740 1158 760 1135 q 726 1215 720 1182 q 759 1272 731 1249 q 820 1295 787 1295 q 872 1272 853 1295 q 886 1215 892 1249 q 853 1158 881 1182 q 793 1135 826 1135 m 507 1135 q 454 1158 474 1135 q 440 1215 435 1182 q 473 1272 446 1249 q 534 1295 501 1295 q 587 1272 568 1295 q 601 1215 606 1249 q 568 1158 595 1182 q 507 1135 541 1135 z "},"Ҋ":{"ha":1046,"x_min":59,"x_max":1029,"o":"m 861 0 l 732 0 l 828 576 q 842 649 833 603 q 864 760 851 696 q 894 901 878 823 l 917 901 q 811 756 854 814 q 736 655 768 697 q 674 575 705 613 l 212 0 l 59 0 l 227 1010 l 356 1010 l 253 391 q 239 311 248 356 q 220 215 231 267 q 193 105 208 163 l 174 105 q 245 212 210 161 q 310 301 280 262 q 359 364 340 340 l 877 1010 l 1029 1010 l 861 0 m 646 1117 q 551 1143 591 1117 q 492 1212 511 1168 q 482 1309 473 1255 l 572 1309 q 589 1233 564 1262 q 661 1204 614 1204 q 719 1217 692 1204 q 763 1254 745 1230 q 786 1309 781 1278 l 876 1309 q 833 1212 867 1255 q 751 1142 800 1168 q 646 1117 702 1117 m 741 -217 l 842 0 l 798 0 l 816 113 l 1015 113 l 863 -217 l 741 -217 z "},"Ͷ":{"ha":1046,"x_min":59,"x_max":1029,"o":"m 861 0 l 732 0 l 828 576 q 842 649 833 603 q 864 760 851 696 q 894 901 878 823 l 917 901 q 811 756 854 814 q 736 655 768 697 q 674 575 705 613 l 212 0 l 59 0 l 227 1010 l 356 1010 l 253 391 q 239 311 248 356 q 220 215 231 267 q 193 105 208 163 l 174 105 q 245 212 210 161 q 310 301 280 262 q 359 364 340 340 l 877 1010 l 1029 1010 l 861 0 z "},"Ν":{"ha":1046,"x_min":59,"x_max":1029,"o":"m 59 0 l 227 1010 l 374 1010 l 678 364 q 704 306 688 344 q 740 216 721 267 q 777 105 760 165 l 763 105 q 772 216 766 163 q 785 313 779 269 q 798 391 792 358 l 900 1010 l 1029 1010 l 861 0 l 713 0 l 441 575 q 407 653 425 612 q 365 754 389 695 q 307 901 342 813 l 326 901 q 308 756 315 819 q 294 648 300 693 q 283 576 288 604 l 189 0 l 59 0 z "},"ǋ":{"ha":1383,"x_min":59,"x_max":1402,"o":"m 59 0 l 227 1010 l 374 1010 l 678 364 q 704 306 688 344 q 740 216 721 267 q 777 105 760 165 l 763 105 q 772 216 766 163 q 785 313 779 269 q 798 391 792 358 l 900 1010 l 1029 1010 l 861 0 l 713 0 l 441 575 q 407 653 425 612 q 365 754 389 695 q 307 901 342 813 l 326 901 q 308 756 315 819 q 294 648 300 693 q 283 576 288 604 l 189 0 l 59 0 m 1216 758 l 1339 758 l 1204 -54 q 1159 -177 1192 -126 q 1072 -256 1126 -229 q 944 -283 1018 -283 l 920 -283 l 938 -171 l 960 -171 q 1043 -141 1013 -171 q 1082 -54 1073 -111 l 1216 758 m 1298 882 q 1242 906 1263 882 q 1227 963 1221 930 q 1261 1020 1232 997 q 1325 1044 1291 1044 q 1381 1020 1360 1044 q 1397 963 1402 997 q 1362 906 1392 930 q 1298 882 1333 882 z "},"O":{"ha":1062,"x_min":94,"x_max":1009,"o":"m 474 -14 q 274 35 359 -14 q 141 175 189 84 q 94 393 94 267 q 132 626 94 513 q 239 829 169 739 q 409 971 310 918 q 631 1024 508 1024 q 830 975 745 1024 q 962 836 915 926 q 1009 618 1009 745 q 972 384 1009 497 q 864 181 935 271 q 695 39 794 92 q 474 -14 597 -14 m 479 106 q 649 149 574 106 q 777 266 724 193 q 857 430 829 339 q 884 614 884 520 q 851 774 884 709 q 760 872 819 839 q 626 905 702 905 q 456 861 531 905 q 328 745 380 818 q 247 581 275 671 q 219 397 219 491 q 252 237 219 302 q 344 139 286 172 q 479 106 403 106 z "},"Ö":{"ha":1062,"x_min":94,"x_max":1009,"o":"m 474 -14 q 274 35 359 -14 q 141 175 189 84 q 94 393 94 267 q 132 626 94 513 q 239 829 169 739 q 409 971 310 918 q 631 1024 508 1024 q 830 975 745 1024 q 962 836 915 926 q 1009 618 1009 745 q 972 384 1009 497 q 864 181 935 271 q 695 39 794 92 q 474 -14 597 -14 m 479 106 q 649 149 574 106 q 777 266 724 193 q 857 430 829 339 q 884 614 884 520 q 851 774 884 709 q 760 872 819 839 q 626 905 702 905 q 456 861 531 905 q 328 745 380 818 q 247 581 275 671 q 219 397 219 491 q 252 237 219 302 q 344 139 286 172 q 479 106 403 106 m 800 1135 q 747 1158 766 1135 q 732 1215 727 1182 q 766 1272 738 1249 q 827 1295 793 1295 q 879 1272 860 1295 q 893 1215 899 1249 q 860 1158 888 1182 q 800 1135 833 1135 m 514 1135 q 461 1158 481 1135 q 447 1215 441 1182 q 480 1272 452 1249 q 541 1295 508 1295 q 594 1272 574 1295 q 608 1215 613 1249 q 575 1158 602 1182 q 514 1135 547 1135 z "},"Õ":{"ha":1062,"x_min":94,"x_max":1009,"o":"m 474 -14 q 274 35 359 -14 q 141 175 189 84 q 94 393 94 267 q 132 626 94 513 q 239 829 169 739 q 409 971 310 918 q 631 1024 508 1024 q 830 975 745 1024 q 962 836 915 926 q 1009 618 1009 745 q 972 384 1009 497 q 864 181 935 271 q 695 39 794 92 q 474 -14 597 -14 m 479 106 q 649 149 574 106 q 777 266 724 193 q 857 430 829 339 q 884 614 884 520 q 851 774 884 709 q 760 872 819 839 q 626 905 702 905 q 456 861 531 905 q 328 745 380 818 q 247 581 275 671 q 219 397 219 491 q 252 237 219 302 q 344 139 286 172 q 479 106 403 106 m 747 1143 q 700 1151 722 1143 q 657 1171 677 1160 q 621 1191 637 1182 q 592 1199 605 1199 q 562 1182 573 1199 q 547 1145 551 1164 l 461 1145 q 508 1247 474 1208 q 595 1286 541 1286 q 642 1278 621 1286 q 681 1258 663 1269 q 715 1238 699 1246 q 749 1229 732 1229 q 777 1242 766 1229 q 795 1284 787 1255 l 879 1284 q 831 1180 866 1218 q 747 1143 796 1143 z "},"Ø":{"ha":1062,"x_min":78,"x_max":1027,"o":"m 474 -14 q 274 35 359 -14 q 141 175 189 84 q 94 393 94 267 q 132 626 94 513 q 239 829 169 739 q 409 971 310 918 q 631 1024 508 1024 q 830 975 745 1024 q 962 836 915 926 q 1009 618 1009 745 q 972 384 1009 497 q 864 181 935 271 q 695 39 794 92 q 474 -14 597 -14 m 479 106 q 649 149 574 106 q 777 266 724 193 q 857 430 829 339 q 884 614 884 520 q 851 774 884 709 q 760 872 819 839 q 626 905 702 905 q 456 861 531 905 q 328 745 380 818 q 247 581 275 671 q 219 397 219 491 q 252 237 219 302 q 344 139 286 172 q 479 106 403 106 m 156 -31 l 78 30 l 950 1042 l 1027 980 l 156 -31 z "},"Ơ":{"ha":1058,"x_min":94,"x_max":1103,"o":"m 621 940 l 635 1024 q 688 1023 667 1024 q 727 1019 708 1021 q 771 1015 745 1017 q 840 1012 798 1013 q 952 1010 883 1010 q 966 1023 964 1010 l 987 1152 l 1103 1152 l 1082 1028 q 1040 942 1073 970 q 948 913 1006 913 q 900 917 922 913 q 846 926 878 921 q 761 936 814 932 q 621 940 709 940 m 474 -14 q 274 35 359 -14 q 141 175 189 84 q 94 393 94 267 q 132 626 94 513 q 239 829 169 739 q 409 971 310 918 q 631 1024 508 1024 q 830 975 745 1024 q 962 836 915 926 q 1009 618 1009 745 q 972 384 1009 497 q 864 181 935 271 q 695 39 794 92 q 474 -14 597 -14 m 479 106 q 649 149 574 106 q 777 266 724 193 q 857 430 829 339 q 884 614 884 520 q 851 774 884 709 q 760 872 819 839 q 626 905 702 905 q 456 861 531 905 q 328 745 380 818 q 247 581 275 671 q 219 397 219 491 q 252 237 219 302 q 344 139 286 172 q 479 106 403 106 z "},"Ò":{"ha":1062,"x_min":94,"x_max":1009,"o":"m 474 -14 q 274 35 359 -14 q 141 175 189 84 q 94 393 94 267 q 132 626 94 513 q 239 829 169 739 q 409 971 310 918 q 631 1024 508 1024 q 830 975 745 1024 q 962 836 915 926 q 1009 618 1009 745 q 972 384 1009 497 q 864 181 935 271 q 695 39 794 92 q 474 -14 597 -14 m 479 106 q 649 149 574 106 q 777 266 724 193 q 857 430 829 339 q 884 614 884 520 q 851 774 884 709 q 760 872 819 839 q 626 905 702 905 q 456 861 531 905 q 328 745 380 818 q 247 581 275 671 q 219 397 219 491 q 252 237 219 302 q 344 139 286 172 q 479 106 403 106 m 604 1109 l 507 1309 l 643 1309 l 704 1109 l 604 1109 z "},"Ó":{"ha":1062,"x_min":94,"x_max":1009,"o":"m 474 -14 q 274 35 359 -14 q 141 175 189 84 q 94 393 94 267 q 132 626 94 513 q 239 829 169 739 q 409 971 310 918 q 631 1024 508 1024 q 830 975 745 1024 q 962 836 915 926 q 1009 618 1009 745 q 972 384 1009 497 q 864 181 935 271 q 695 39 794 92 q 474 -14 597 -14 m 479 106 q 649 149 574 106 q 777 266 724 193 q 857 430 829 339 q 884 614 884 520 q 851 774 884 709 q 760 872 819 839 q 626 905 702 905 q 456 861 531 905 q 328 745 380 818 q 247 581 275 671 q 219 397 219 491 q 252 237 219 302 q 344 139 286 172 q 479 106 403 106 m 596 1122 l 722 1309 l 859 1309 l 696 1122 l 596 1122 z "},"Ô":{"ha":1062,"x_min":94,"x_max":1009,"o":"m 474 -14 q 274 35 359 -14 q 141 175 189 84 q 94 393 94 267 q 132 626 94 513 q 239 829 169 739 q 409 971 310 918 q 631 1024 508 1024 q 830 975 745 1024 q 962 836 915 926 q 1009 618 1009 745 q 972 384 1009 497 q 864 181 935 271 q 695 39 794 92 q 474 -14 597 -14 m 479 106 q 649 149 574 106 q 777 266 724 193 q 857 430 829 339 q 884 614 884 520 q 851 774 884 709 q 760 872 819 839 q 626 905 702 905 q 456 861 531 905 q 328 745 380 818 q 247 581 275 671 q 219 397 219 491 q 252 237 219 302 q 344 139 286 172 q 479 106 403 106 m 557 1122 l 437 1122 l 438 1128 l 627 1309 l 743 1309 l 873 1128 l 872 1122 l 751 1122 l 675 1240 l 557 1122 z "},"Ō":{"ha":1062,"x_min":94,"x_max":1009,"o":"m 474 -14 q 274 35 359 -14 q 141 175 189 84 q 94 393 94 267 q 132 626 94 513 q 239 829 169 739 q 409 971 310 918 q 631 1024 508 1024 q 830 975 745 1024 q 962 836 915 926 q 1009 618 1009 745 q 972 384 1009 497 q 864 181 935 271 q 695 39 794 92 q 474 -14 597 -14 m 479 106 q 649 149 574 106 q 777 266 724 193 q 857 430 829 339 q 884 614 884 520 q 851 774 884 709 q 760 872 819 839 q 626 905 702 905 q 456 861 531 905 q 328 745 380 818 q 247 581 275 671 q 219 397 219 491 q 252 237 219 302 q 344 139 286 172 q 479 106 403 106 m 867 1263 l 850 1167 l 475 1167 l 491 1263 l 867 1263 z "},"Ŏ":{"ha":1062,"x_min":94,"x_max":1009,"o":"m 474 -14 q 274 35 359 -14 q 141 175 189 84 q 94 393 94 267 q 132 626 94 513 q 239 829 169 739 q 409 971 310 918 q 631 1024 508 1024 q 830 975 745 1024 q 962 836 915 926 q 1009 618 1009 745 q 972 384 1009 497 q 864 181 935 271 q 695 39 794 92 q 474 -14 597 -14 m 479 106 q 649 149 574 106 q 777 266 724 193 q 857 430 829 339 q 884 614 884 520 q 851 774 884 709 q 760 872 819 839 q 626 905 702 905 q 456 861 531 905 q 328 745 380 818 q 247 581 275 671 q 219 397 219 491 q 252 237 219 302 q 344 139 286 172 q 479 106 403 106 m 653 1117 q 558 1143 598 1117 q 499 1212 517 1168 q 489 1309 480 1255 l 578 1309 q 596 1233 571 1262 q 668 1204 621 1204 q 726 1217 699 1204 q 770 1254 752 1230 q 793 1309 788 1278 l 882 1309 q 840 1212 873 1255 q 758 1142 806 1168 q 653 1117 709 1117 z "},"Ő":{"ha":1062,"x_min":94,"x_max":1009,"o":"m 474 -14 q 274 35 359 -14 q 141 175 189 84 q 94 393 94 267 q 132 626 94 513 q 239 829 169 739 q 409 971 310 918 q 631 1024 508 1024 q 830 975 745 1024 q 962 836 915 926 q 1009 618 1009 745 q 972 384 1009 497 q 864 181 935 271 q 695 39 794 92 q 474 -14 597 -14 m 479 106 q 649 149 574 106 q 777 266 724 193 q 857 430 829 339 q 884 614 884 520 q 851 774 884 709 q 760 872 819 839 q 626 905 702 905 q 456 861 531 905 q 328 745 380 818 q 247 581 275 671 q 219 397 219 491 q 252 237 219 302 q 344 139 286 172 q 479 106 403 106 m 536 1109 l 437 1109 l 549 1309 l 685 1309 l 536 1109 m 759 1109 l 659 1109 l 806 1309 l 942 1309 l 759 1109 z "},"Ǒ":{"ha":1062,"x_min":94,"x_max":1009,"o":"m 474 -14 q 274 35 359 -14 q 141 175 189 84 q 94 393 94 267 q 132 626 94 513 q 239 829 169 739 q 409 971 310 918 q 631 1024 508 1024 q 830 975 745 1024 q 962 836 915 926 q 1009 618 1009 745 q 972 384 1009 497 q 864 181 935 271 q 695 39 794 92 q 474 -14 597 -14 m 479 106 q 649 149 574 106 q 777 266 724 193 q 857 430 829 339 q 884 614 884 520 q 851 774 884 709 q 760 872 819 839 q 626 905 702 905 q 456 861 531 905 q 328 745 380 818 q 247 581 275 671 q 219 397 219 491 q 252 237 219 302 q 344 139 286 172 q 479 106 403 106 m 588 1309 l 666 1190 l 782 1309 l 903 1309 l 902 1303 l 711 1122 l 595 1122 l 467 1303 l 468 1309 l 588 1309 z "},"Ǫ":{"ha":1062,"x_min":94,"x_max":1009,"o":"m 474 -14 q 274 35 359 -14 q 141 175 189 84 q 94 393 94 267 q 132 626 94 513 q 239 829 169 739 q 409 971 310 918 q 631 1024 508 1024 q 830 975 745 1024 q 962 836 915 926 q 1009 618 1009 745 q 972 384 1009 497 q 864 181 935 271 q 695 39 794 92 q 474 -14 597 -14 m 479 106 q 649 149 574 106 q 777 266 724 193 q 857 430 829 339 q 884 614 884 520 q 851 774 884 709 q 760 872 819 839 q 626 905 702 905 q 456 861 531 905 q 328 745 380 818 q 247 581 275 671 q 219 397 219 491 q 252 237 219 302 q 344 139 286 172 q 479 106 403 106 m 460 -296 q 353 -261 395 -296 q 323 -161 311 -227 q 371 -66 334 -106 q 463 5 408 -27 q 581 72 517 38 q 706 151 644 106 q 821 257 768 195 q 909 407 874 319 q 950 618 944 495 l 1009 618 q 969 384 1002 482 q 887 216 936 285 q 781 100 838 147 q 668 22 724 54 q 564 -35 612 -10 q 485 -84 516 -60 q 449 -140 454 -108 q 457 -180 445 -166 q 496 -193 469 -193 q 534 -187 517 -193 q 563 -174 551 -181 l 589 -262 q 534 -284 566 -273 q 460 -296 503 -296 z "},"Ǭ":{"ha":1062,"x_min":94,"x_max":1009,"o":"m 474 -14 q 274 35 359 -14 q 141 175 189 84 q 94 393 94 267 q 132 626 94 513 q 239 829 169 739 q 409 971 310 918 q 631 1024 508 1024 q 830 975 745 1024 q 962 836 915 926 q 1009 618 1009 745 q 972 384 1009 497 q 864 181 935 271 q 695 39 794 92 q 474 -14 597 -14 m 479 106 q 649 149 574 106 q 777 266 724 193 q 857 430 829 339 q 884 614 884 520 q 851 774 884 709 q 760 872 819 839 q 626 905 702 905 q 456 861 531 905 q 328 745 380 818 q 247 581 275 671 q 219 397 219 491 q 252 237 219 302 q 344 139 286 172 q 479 106 403 106 m 460 -296 q 353 -261 395 -296 q 323 -161 311 -227 q 371 -66 334 -106 q 463 5 408 -27 q 581 72 517 38 q 706 151 644 106 q 821 257 768 195 q 909 407 874 319 q 950 618 944 495 l 1009 618 q 969 384 1002 482 q 887 216 936 285 q 781 100 838 147 q 668 22 724 54 q 564 -35 612 -10 q 485 -84 516 -60 q 449 -140 454 -108 q 457 -180 445 -166 q 496 -193 469 -193 q 534 -187 517 -193 q 563 -174 551 -181 l 589 -262 q 534 -284 566 -273 q 460 -296 503 -296 m 867 1263 l 850 1167 l 475 1167 l 491 1263 l 867 1263 z "},"Ȍ":{"ha":1062,"x_min":94,"x_max":1009,"o":"m 474 -14 q 274 35 359 -14 q 141 175 189 84 q 94 393 94 267 q 132 626 94 513 q 239 829 169 739 q 409 971 310 918 q 631 1024 508 1024 q 830 975 745 1024 q 962 836 915 926 q 1009 618 1009 745 q 972 384 1009 497 q 864 181 935 271 q 695 39 794 92 q 474 -14 597 -14 m 479 106 q 649 149 574 106 q 777 266 724 193 q 857 430 829 339 q 884 614 884 520 q 851 774 884 709 q 760 872 819 839 q 626 905 702 905 q 456 861 531 905 q 328 745 380 818 q 247 581 275 671 q 219 397 219 491 q 252 237 219 302 q 344 139 286 172 q 479 106 403 106 m 714 1109 l 633 1309 l 768 1309 l 814 1109 l 714 1109 m 492 1109 l 376 1309 l 512 1309 l 593 1109 l 492 1109 z "},"Ȏ":{"ha":1062,"x_min":94,"x_max":1009,"o":"m 474 -14 q 274 35 359 -14 q 141 175 189 84 q 94 393 94 267 q 132 626 94 513 q 239 829 169 739 q 409 971 310 918 q 631 1024 508 1024 q 830 975 745 1024 q 962 836 915 926 q 1009 618 1009 745 q 972 384 1009 497 q 864 181 935 271 q 695 39 794 92 q 474 -14 597 -14 m 479 106 q 649 149 574 106 q 777 266 724 193 q 857 430 829 339 q 884 614 884 520 q 851 774 884 709 q 760 872 819 839 q 626 905 702 905 q 456 861 531 905 q 328 745 380 818 q 247 581 275 671 q 219 397 219 491 q 252 237 219 302 q 344 139 286 172 q 479 106 403 106 m 688 1326 q 790 1299 748 1326 q 852 1225 833 1272 q 861 1122 871 1179 l 772 1122 q 750 1203 781 1172 q 673 1235 720 1235 q 586 1203 627 1235 q 537 1122 546 1172 l 448 1122 q 492 1225 457 1179 q 577 1299 526 1272 q 688 1326 629 1326 z "},"Ȫ":{"ha":1062,"x_min":94,"x_max":1009,"o":"m 474 -14 q 274 35 359 -14 q 141 175 189 84 q 94 393 94 267 q 132 626 94 513 q 239 829 169 739 q 409 971 310 918 q 631 1024 508 1024 q 830 975 745 1024 q 962 836 915 926 q 1009 618 1009 745 q 972 384 1009 497 q 864 181 935 271 q 695 39 794 92 q 474 -14 597 -14 m 479 106 q 649 149 574 106 q 777 266 724 193 q 857 430 829 339 q 884 614 884 520 q 851 774 884 709 q 760 872 819 839 q 626 905 702 905 q 456 861 531 905 q 328 745 380 818 q 247 581 275 671 q 219 397 219 491 q 252 237 219 302 q 344 139 286 172 q 479 106 403 106 m 800 1116 q 747 1139 767 1116 q 733 1196 728 1163 q 766 1253 739 1230 q 827 1276 794 1276 q 880 1253 861 1276 q 894 1196 899 1230 q 861 1139 888 1163 q 800 1116 833 1116 m 515 1116 q 462 1139 481 1116 q 448 1196 442 1163 q 481 1253 453 1230 q 542 1276 509 1276 q 594 1253 575 1276 q 608 1196 614 1230 q 575 1139 603 1163 q 515 1116 548 1116 m 916 1460 l 900 1373 l 524 1373 l 541 1460 l 916 1460 z "},"Ȭ":{"ha":1062,"x_min":94,"x_max":1009,"o":"m 474 -14 q 274 35 359 -14 q 141 175 189 84 q 94 393 94 267 q 132 626 94 513 q 239 829 169 739 q 409 971 310 918 q 631 1024 508 1024 q 830 975 745 1024 q 962 836 915 926 q 1009 618 1009 745 q 972 384 1009 497 q 864 181 935 271 q 695 39 794 92 q 474 -14 597 -14 m 479 106 q 649 149 574 106 q 777 266 724 193 q 857 430 829 339 q 884 614 884 520 q 851 774 884 709 q 760 872 819 839 q 626 905 702 905 q 456 861 531 905 q 328 745 380 818 q 247 581 275 671 q 219 397 219 491 q 252 237 219 302 q 344 139 286 172 q 479 106 403 106 m 748 1124 q 700 1133 723 1124 q 658 1153 677 1141 q 622 1172 638 1164 q 593 1181 606 1181 q 563 1163 574 1181 q 547 1127 551 1146 l 462 1127 q 508 1229 475 1190 q 595 1268 542 1268 q 643 1259 622 1268 q 682 1239 664 1251 q 716 1219 700 1228 q 749 1211 732 1211 q 778 1224 767 1211 q 796 1265 788 1237 l 880 1265 q 832 1162 867 1200 q 748 1124 797 1124 m 916 1460 l 900 1373 l 524 1373 l 541 1460 l 916 1460 z "},"Ȯ":{"ha":1062,"x_min":94,"x_max":1009,"o":"m 474 -14 q 274 35 359 -14 q 141 175 189 84 q 94 393 94 267 q 132 626 94 513 q 239 829 169 739 q 409 971 310 918 q 631 1024 508 1024 q 830 975 745 1024 q 962 836 915 926 q 1009 618 1009 745 q 972 384 1009 497 q 864 181 935 271 q 695 39 794 92 q 474 -14 597 -14 m 479 106 q 649 149 574 106 q 777 266 724 193 q 857 430 829 339 q 884 614 884 520 q 851 774 884 709 q 760 872 819 839 q 626 905 702 905 q 456 861 531 905 q 328 745 380 818 q 247 581 275 671 q 219 397 219 491 q 252 237 219 302 q 344 139 286 172 q 479 106 403 106 m 656 1135 q 601 1158 622 1135 q 585 1215 580 1182 q 620 1273 591 1249 q 684 1296 649 1296 q 740 1273 719 1296 q 755 1215 761 1249 q 721 1158 750 1182 q 656 1135 692 1135 z "},"Ȱ":{"ha":1062,"x_min":94,"x_max":1009,"o":"m 474 -14 q 274 35 359 -14 q 141 175 189 84 q 94 393 94 267 q 132 626 94 513 q 239 829 169 739 q 409 971 310 918 q 631 1024 508 1024 q 830 975 745 1024 q 962 836 915 926 q 1009 618 1009 745 q 972 384 1009 497 q 864 181 935 271 q 695 39 794 92 q 474 -14 597 -14 m 479 106 q 649 149 574 106 q 777 266 724 193 q 857 430 829 339 q 884 614 884 520 q 851 774 884 709 q 760 872 819 839 q 626 905 702 905 q 456 861 531 905 q 328 745 380 818 q 247 581 275 671 q 219 397 219 491 q 252 237 219 302 q 344 139 286 172 q 479 106 403 106 m 656 1116 q 600 1139 621 1116 q 585 1196 579 1163 q 619 1254 590 1230 q 683 1277 648 1277 q 739 1254 718 1277 q 755 1196 760 1230 q 720 1139 749 1163 q 656 1116 691 1116 m 916 1460 l 900 1373 l 524 1373 l 541 1460 l 916 1460 z "},"Ṍ":{"ha":1062,"x_min":94,"x_max":1009,"o":"m 474 -14 q 274 35 359 -14 q 141 175 189 84 q 94 393 94 267 q 132 626 94 513 q 239 829 169 739 q 409 971 310 918 q 631 1024 508 1024 q 830 975 745 1024 q 962 836 915 926 q 1009 618 1009 745 q 972 384 1009 497 q 864 181 935 271 q 695 39 794 92 q 474 -14 597 -14 m 479 106 q 649 149 574 106 q 777 266 724 193 q 857 430 829 339 q 884 614 884 520 q 851 774 884 709 q 760 872 819 839 q 626 905 702 905 q 456 861 531 905 q 328 745 380 818 q 247 581 275 671 q 219 397 219 491 q 252 237 219 302 q 344 139 286 172 q 479 106 403 106 m 748 1124 q 700 1133 723 1124 q 658 1153 677 1141 q 622 1172 638 1164 q 593 1181 606 1181 q 563 1163 574 1181 q 547 1127 551 1146 l 462 1127 q 508 1229 475 1190 q 595 1268 542 1268 q 643 1259 622 1268 q 682 1239 664 1251 q 716 1219 700 1228 q 749 1211 732 1211 q 778 1224 767 1211 q 796 1265 788 1237 l 880 1265 q 832 1162 867 1200 q 748 1124 797 1124 m 637 1348 l 764 1535 l 900 1535 l 737 1348 l 637 1348 z "},"Ṏ":{"ha":1062,"x_min":94,"x_max":1009,"o":"m 474 -14 q 274 35 359 -14 q 141 175 189 84 q 94 393 94 267 q 132 626 94 513 q 239 829 169 739 q 409 971 310 918 q 631 1024 508 1024 q 830 975 745 1024 q 962 836 915 926 q 1009 618 1009 745 q 972 384 1009 497 q 864 181 935 271 q 695 39 794 92 q 474 -14 597 -14 m 479 106 q 649 149 574 106 q 777 266 724 193 q 857 430 829 339 q 884 614 884 520 q 851 774 884 709 q 760 872 819 839 q 626 905 702 905 q 456 861 531 905 q 328 745 380 818 q 247 581 275 671 q 219 397 219 491 q 252 237 219 302 q 344 139 286 172 q 479 106 403 106 m 748 1124 q 700 1133 723 1124 q 658 1153 677 1141 q 622 1172 638 1164 q 593 1181 606 1181 q 563 1163 574 1181 q 547 1127 551 1146 l 462 1127 q 508 1229 475 1190 q 595 1268 542 1268 q 643 1259 622 1268 q 682 1239 664 1251 q 716 1219 700 1228 q 749 1211 732 1211 q 778 1224 767 1211 q 796 1265 788 1237 l 880 1265 q 832 1162 867 1200 q 748 1124 797 1124 m 837 1336 q 784 1360 804 1336 q 770 1417 764 1383 q 803 1473 775 1450 q 864 1497 831 1497 q 917 1473 897 1497 q 930 1417 936 1450 q 898 1360 925 1383 q 837 1336 870 1336 m 551 1336 q 498 1360 518 1336 q 484 1417 479 1383 q 517 1473 490 1450 q 578 1497 545 1497 q 631 1473 612 1497 q 645 1417 650 1450 q 612 1360 640 1383 q 551 1336 585 1336 z "},"Ṑ":{"ha":1062,"x_min":94,"x_max":1009,"o":"m 474 -14 q 274 35 359 -14 q 141 175 189 84 q 94 393 94 267 q 132 626 94 513 q 239 829 169 739 q 409 971 310 918 q 631 1024 508 1024 q 830 975 745 1024 q 962 836 915 926 q 1009 618 1009 745 q 972 384 1009 497 q 864 181 935 271 q 695 39 794 92 q 474 -14 597 -14 m 479 106 q 649 149 574 106 q 777 266 724 193 q 857 430 829 339 q 884 614 884 520 q 851 774 884 709 q 760 872 819 839 q 626 905 702 905 q 456 861 531 905 q 328 745 380 818 q 247 581 275 671 q 219 397 219 491 q 252 237 219 302 q 344 139 286 172 q 479 106 403 106 m 864 1244 l 848 1148 l 472 1148 l 488 1244 l 864 1244 m 648 1348 l 548 1535 l 684 1535 l 747 1348 l 648 1348 z "},"Ṓ":{"ha":1062,"x_min":94,"x_max":1009,"o":"m 474 -14 q 274 35 359 -14 q 141 175 189 84 q 94 393 94 267 q 132 626 94 513 q 239 829 169 739 q 409 971 310 918 q 631 1024 508 1024 q 830 975 745 1024 q 962 836 915 926 q 1009 618 1009 745 q 972 384 1009 497 q 864 181 935 271 q 695 39 794 92 q 474 -14 597 -14 m 479 106 q 649 149 574 106 q 777 266 724 193 q 857 430 829 339 q 884 614 884 520 q 851 774 884 709 q 760 872 819 839 q 626 905 702 905 q 456 861 531 905 q 328 745 380 818 q 247 581 275 671 q 219 397 219 491 q 252 237 219 302 q 344 139 286 172 q 479 106 403 106 m 864 1244 l 848 1148 l 472 1148 l 488 1244 l 864 1244 m 645 1348 l 771 1535 l 907 1535 l 745 1348 l 645 1348 z "},"Ọ":{"ha":1062,"x_min":94,"x_max":1009,"o":"m 474 -14 q 274 35 359 -14 q 141 175 189 84 q 94 393 94 267 q 132 626 94 513 q 239 829 169 739 q 409 971 310 918 q 631 1024 508 1024 q 830 975 745 1024 q 962 836 915 926 q 1009 618 1009 745 q 972 384 1009 497 q 864 181 935 271 q 695 39 794 92 q 474 -14 597 -14 m 479 106 q 649 149 574 106 q 777 266 724 193 q 857 430 829 339 q 884 614 884 520 q 851 774 884 709 q 760 872 819 839 q 626 905 702 905 q 456 861 531 905 q 328 745 380 818 q 247 581 275 671 q 219 397 219 491 q 252 237 219 302 q 344 139 286 172 q 479 106 403 106 m 424 -286 q 368 -262 389 -286 q 353 -205 347 -238 q 387 -148 358 -171 q 451 -124 416 -124 q 507 -148 486 -124 q 523 -205 528 -171 q 488 -262 517 -238 q 424 -286 459 -286 z "},"Ỏ":{"ha":1062,"x_min":94,"x_max":1009,"o":"m 474 -14 q 274 35 359 -14 q 141 175 189 84 q 94 393 94 267 q 132 626 94 513 q 239 829 169 739 q 409 971 310 918 q 631 1024 508 1024 q 830 975 745 1024 q 962 836 915 926 q 1009 618 1009 745 q 972 384 1009 497 q 864 181 935 271 q 695 39 794 92 q 474 -14 597 -14 m 479 106 q 649 149 574 106 q 777 266 724 193 q 857 430 829 339 q 884 614 884 520 q 851 774 884 709 q 760 872 819 839 q 626 905 702 905 q 456 861 531 905 q 328 745 380 818 q 247 581 275 671 q 219 397 219 491 q 252 237 219 302 q 344 139 286 172 q 479 106 403 106 m 692 1109 l 601 1109 l 664 1202 q 670 1223 673 1217 q 654 1229 667 1229 l 559 1229 l 572 1309 l 667 1309 q 733 1298 707 1309 q 767 1268 758 1287 q 770 1223 777 1249 q 739 1168 763 1198 l 692 1109 z "},"Ố":{"ha":1062,"x_min":94,"x_max":1051,"o":"m 474 -14 q 274 35 359 -14 q 141 175 189 84 q 94 393 94 267 q 132 626 94 513 q 239 829 169 739 q 409 971 310 918 q 631 1024 508 1024 q 830 975 745 1024 q 962 836 915 926 q 1009 618 1009 745 q 972 384 1009 497 q 864 181 935 271 q 695 39 794 92 q 474 -14 597 -14 m 479 106 q 649 149 574 106 q 777 266 724 193 q 857 430 829 339 q 884 614 884 520 q 851 774 884 709 q 760 872 819 839 q 626 905 702 905 q 456 861 531 905 q 328 745 380 818 q 247 581 275 671 q 219 397 219 491 q 252 237 219 302 q 344 139 286 172 q 479 106 403 106 m 559 1103 l 439 1103 l 440 1109 l 629 1290 l 745 1290 l 876 1109 l 874 1103 l 753 1103 l 677 1221 l 559 1103 m 789 1348 l 915 1535 l 1051 1535 l 888 1348 l 789 1348 z "},"Ồ":{"ha":1062,"x_min":94,"x_max":1009,"o":"m 474 -14 q 274 35 359 -14 q 141 175 189 84 q 94 393 94 267 q 132 626 94 513 q 239 829 169 739 q 409 971 310 918 q 631 1024 508 1024 q 830 975 745 1024 q 962 836 915 926 q 1009 618 1009 745 q 972 384 1009 497 q 864 181 935 271 q 695 39 794 92 q 474 -14 597 -14 m 479 106 q 649 149 574 106 q 777 266 724 193 q 857 430 829 339 q 884 614 884 520 q 851 774 884 709 q 760 872 819 839 q 626 905 702 905 q 456 861 531 905 q 328 745 380 818 q 247 581 275 671 q 219 397 219 491 q 252 237 219 302 q 344 139 286 172 q 479 106 403 106 m 559 1103 l 439 1103 l 440 1109 l 629 1290 l 745 1290 l 876 1109 l 874 1103 l 753 1103 l 677 1221 l 559 1103 m 821 1348 l 722 1535 l 858 1535 l 921 1348 l 821 1348 z "},"Ổ":{"ha":1062,"x_min":94,"x_max":1009,"o":"m 474 -14 q 274 35 359 -14 q 141 175 189 84 q 94 393 94 267 q 132 626 94 513 q 239 829 169 739 q 409 971 310 918 q 631 1024 508 1024 q 830 975 745 1024 q 962 836 915 926 q 1009 618 1009 745 q 972 384 1009 497 q 864 181 935 271 q 695 39 794 92 q 474 -14 597 -14 m 479 106 q 649 149 574 106 q 777 266 724 193 q 857 430 829 339 q 884 614 884 520 q 851 774 884 709 q 760 872 819 839 q 626 905 702 905 q 456 861 531 905 q 328 745 380 818 q 247 581 275 671 q 219 397 219 491 q 252 237 219 302 q 344 139 286 172 q 479 106 403 106 m 559 1103 l 439 1103 l 440 1109 l 629 1290 l 745 1290 l 876 1109 l 874 1103 l 753 1103 l 677 1221 l 559 1103 m 869 1335 l 778 1335 l 841 1428 q 847 1449 850 1442 q 831 1455 844 1455 l 736 1455 l 749 1535 l 844 1535 q 910 1524 884 1535 q 944 1494 935 1513 q 947 1449 954 1474 q 916 1394 940 1423 l 869 1335 z "},"Ỗ":{"ha":1062,"x_min":94,"x_max":1009,"o":"m 474 -14 q 274 35 359 -14 q 141 175 189 84 q 94 393 94 267 q 132 626 94 513 q 239 829 169 739 q 409 971 310 918 q 631 1024 508 1024 q 830 975 745 1024 q 962 836 915 926 q 1009 618 1009 745 q 972 384 1009 497 q 864 181 935 271 q 695 39 794 92 q 474 -14 597 -14 m 479 106 q 649 149 574 106 q 777 266 724 193 q 857 430 829 339 q 884 614 884 520 q 851 774 884 709 q 760 872 819 839 q 626 905 702 905 q 456 861 531 905 q 328 745 380 818 q 247 581 275 671 q 219 397 219 491 q 252 237 219 302 q 344 139 286 172 q 479 106 403 106 m 559 1103 l 439 1103 l 440 1109 l 629 1290 l 745 1290 l 876 1109 l 874 1103 l 753 1103 l 677 1221 l 559 1103 m 788 1367 q 740 1375 763 1367 q 698 1395 718 1383 q 662 1414 678 1406 q 633 1423 646 1423 q 603 1406 614 1423 q 587 1369 591 1388 l 502 1369 q 548 1471 515 1432 q 635 1510 582 1510 q 683 1501 662 1510 q 722 1481 704 1493 q 756 1461 740 1470 q 789 1453 772 1453 q 818 1466 807 1453 q 836 1508 828 1479 l 920 1508 q 872 1404 907 1442 q 788 1367 837 1367 z "},"Ộ":{"ha":1062,"x_min":94,"x_max":1009,"o":"m 474 -14 q 274 35 359 -14 q 141 175 189 84 q 94 393 94 267 q 132 626 94 513 q 239 829 169 739 q 409 971 310 918 q 631 1024 508 1024 q 830 975 745 1024 q 962 836 915 926 q 1009 618 1009 745 q 972 384 1009 497 q 864 181 935 271 q 695 39 794 92 q 474 -14 597 -14 m 479 106 q 649 149 574 106 q 777 266 724 193 q 857 430 829 339 q 884 614 884 520 q 851 774 884 709 q 760 872 819 839 q 626 905 702 905 q 456 861 531 905 q 328 745 380 818 q 247 581 275 671 q 219 397 219 491 q 252 237 219 302 q 344 139 286 172 q 479 106 403 106 m 557 1122 l 437 1122 l 438 1128 l 627 1309 l 743 1309 l 873 1128 l 872 1122 l 751 1122 l 675 1240 l 557 1122 m 424 -286 q 368 -262 389 -286 q 353 -205 347 -238 q 387 -148 358 -171 q 451 -124 416 -124 q 507 -148 486 -124 q 523 -205 528 -171 q 488 -262 517 -238 q 424 -286 459 -286 z "},"Ớ":{"ha":1058,"x_min":94,"x_max":1103,"o":"m 621 940 l 635 1024 q 688 1023 667 1024 q 727 1019 708 1021 q 771 1015 745 1017 q 840 1012 798 1013 q 952 1010 883 1010 q 966 1023 964 1010 l 987 1152 l 1103 1152 l 1082 1028 q 1040 942 1073 970 q 948 913 1006 913 q 900 917 922 913 q 846 926 878 921 q 761 936 814 932 q 621 940 709 940 m 474 -14 q 274 35 359 -14 q 141 175 189 84 q 94 393 94 267 q 132 626 94 513 q 239 829 169 739 q 409 971 310 918 q 631 1024 508 1024 q 830 975 745 1024 q 962 836 915 926 q 1009 618 1009 745 q 972 384 1009 497 q 864 181 935 271 q 695 39 794 92 q 474 -14 597 -14 m 479 106 q 649 149 574 106 q 777 266 724 193 q 857 430 829 339 q 884 614 884 520 q 851 774 884 709 q 760 872 819 839 q 626 905 702 905 q 456 861 531 905 q 328 745 380 818 q 247 581 275 671 q 219 397 219 491 q 252 237 219 302 q 344 139 286 172 q 479 106 403 106 m 596 1122 l 722 1309 l 859 1309 l 696 1122 l 596 1122 z "},"Ờ":{"ha":1058,"x_min":94,"x_max":1103,"o":"m 621 940 l 635 1024 q 688 1023 667 1024 q 727 1019 708 1021 q 771 1015 745 1017 q 840 1012 798 1013 q 952 1010 883 1010 q 966 1023 964 1010 l 987 1152 l 1103 1152 l 1082 1028 q 1040 942 1073 970 q 948 913 1006 913 q 900 917 922 913 q 846 926 878 921 q 761 936 814 932 q 621 940 709 940 m 474 -14 q 274 35 359 -14 q 141 175 189 84 q 94 393 94 267 q 132 626 94 513 q 239 829 169 739 q 409 971 310 918 q 631 1024 508 1024 q 830 975 745 1024 q 962 836 915 926 q 1009 618 1009 745 q 972 384 1009 497 q 864 181 935 271 q 695 39 794 92 q 474 -14 597 -14 m 479 106 q 649 149 574 106 q 777 266 724 193 q 857 430 829 339 q 884 614 884 520 q 851 774 884 709 q 760 872 819 839 q 626 905 702 905 q 456 861 531 905 q 328 745 380 818 q 247 581 275 671 q 219 397 219 491 q 252 237 219 302 q 344 139 286 172 q 479 106 403 106 m 604 1109 l 507 1309 l 643 1309 l 704 1109 l 604 1109 z "},"Ở":{"ha":1058,"x_min":94,"x_max":1103,"o":"m 621 940 l 635 1024 q 688 1023 667 1024 q 727 1019 708 1021 q 771 1015 745 1017 q 840 1012 798 1013 q 952 1010 883 1010 q 966 1023 964 1010 l 987 1152 l 1103 1152 l 1082 1028 q 1040 942 1073 970 q 948 913 1006 913 q 900 917 922 913 q 846 926 878 921 q 761 936 814 932 q 621 940 709 940 m 474 -14 q 274 35 359 -14 q 141 175 189 84 q 94 393 94 267 q 132 626 94 513 q 239 829 169 739 q 409 971 310 918 q 631 1024 508 1024 q 830 975 745 1024 q 962 836 915 926 q 1009 618 1009 745 q 972 384 1009 497 q 864 181 935 271 q 695 39 794 92 q 474 -14 597 -14 m 479 106 q 649 149 574 106 q 777 266 724 193 q 857 430 829 339 q 884 614 884 520 q 851 774 884 709 q 760 872 819 839 q 626 905 702 905 q 456 861 531 905 q 328 745 380 818 q 247 581 275 671 q 219 397 219 491 q 252 237 219 302 q 344 139 286 172 q 479 106 403 106 m 692 1109 l 601 1109 l 664 1202 q 670 1223 673 1217 q 654 1229 667 1229 l 559 1229 l 572 1309 l 667 1309 q 733 1298 707 1309 q 767 1268 758 1287 q 770 1223 777 1249 q 739 1168 763 1198 l 692 1109 z "},"Ỡ":{"ha":1058,"x_min":94,"x_max":1103,"o":"m 621 940 l 635 1024 q 688 1023 667 1024 q 727 1019 708 1021 q 771 1015 745 1017 q 840 1012 798 1013 q 952 1010 883 1010 q 966 1023 964 1010 l 987 1152 l 1103 1152 l 1082 1028 q 1040 942 1073 970 q 948 913 1006 913 q 900 917 922 913 q 846 926 878 921 q 761 936 814 932 q 621 940 709 940 m 474 -14 q 274 35 359 -14 q 141 175 189 84 q 94 393 94 267 q 132 626 94 513 q 239 829 169 739 q 409 971 310 918 q 631 1024 508 1024 q 830 975 745 1024 q 962 836 915 926 q 1009 618 1009 745 q 972 384 1009 497 q 864 181 935 271 q 695 39 794 92 q 474 -14 597 -14 m 479 106 q 649 149 574 106 q 777 266 724 193 q 857 430 829 339 q 884 614 884 520 q 851 774 884 709 q 760 872 819 839 q 626 905 702 905 q 456 861 531 905 q 328 745 380 818 q 247 581 275 671 q 219 397 219 491 q 252 237 219 302 q 344 139 286 172 q 479 106 403 106 m 747 1143 q 700 1151 722 1143 q 657 1171 677 1160 q 621 1191 637 1182 q 592 1199 605 1199 q 562 1182 573 1199 q 547 1145 551 1164 l 461 1145 q 508 1247 474 1208 q 595 1286 541 1286 q 642 1278 621 1286 q 681 1258 663 1269 q 715 1238 699 1246 q 749 1229 732 1229 q 777 1242 766 1229 q 795 1284 787 1255 l 879 1284 q 831 1180 866 1218 q 747 1143 796 1143 z "},"Ợ":{"ha":1058,"x_min":94,"x_max":1103,"o":"m 621 940 l 635 1024 q 688 1023 667 1024 q 727 1019 708 1021 q 771 1015 745 1017 q 840 1012 798 1013 q 952 1010 883 1010 q 966 1023 964 1010 l 987 1152 l 1103 1152 l 1082 1028 q 1040 942 1073 970 q 948 913 1006 913 q 900 917 922 913 q 846 926 878 921 q 761 936 814 932 q 621 940 709 940 m 474 -14 q 274 35 359 -14 q 141 175 189 84 q 94 393 94 267 q 132 626 94 513 q 239 829 169 739 q 409 971 310 918 q 631 1024 508 1024 q 830 975 745 1024 q 962 836 915 926 q 1009 618 1009 745 q 972 384 1009 497 q 864 181 935 271 q 695 39 794 92 q 474 -14 597 -14 m 479 106 q 649 149 574 106 q 777 266 724 193 q 857 430 829 339 q 884 614 884 520 q 851 774 884 709 q 760 872 819 839 q 626 905 702 905 q 456 861 531 905 q 328 745 380 818 q 247 581 275 671 q 219 397 219 491 q 252 237 219 302 q 344 139 286 172 q 479 106 403 106 m 424 -286 q 368 -262 389 -286 q 353 -205 347 -238 q 387 -148 358 -171 q 451 -124 416 -124 q 507 -148 486 -124 q 523 -205 528 -171 q 488 -262 517 -238 q 424 -286 459 -286 z "},"Ǿ":{"ha":1062,"x_min":78,"x_max":1027,"o":"m 474 -14 q 274 35 359 -14 q 141 175 189 84 q 94 393 94 267 q 132 626 94 513 q 239 829 169 739 q 409 971 310 918 q 631 1024 508 1024 q 830 975 745 1024 q 962 836 915 926 q 1009 618 1009 745 q 972 384 1009 497 q 864 181 935 271 q 695 39 794 92 q 474 -14 597 -14 m 479 106 q 649 149 574 106 q 777 266 724 193 q 857 430 829 339 q 884 614 884 520 q 851 774 884 709 q 760 872 819 839 q 626 905 702 905 q 456 861 531 905 q 328 745 380 818 q 247 581 275 671 q 219 397 219 491 q 252 237 219 302 q 344 139 286 172 q 479 106 403 106 m 156 -31 l 78 30 l 950 1042 l 1027 980 l 156 -31 m 596 1122 l 722 1309 l 859 1309 l 696 1122 l 596 1122 z "},"Ο":{"ha":1062,"x_min":94,"x_max":1009,"o":"m 474 -14 q 274 35 359 -14 q 141 175 189 84 q 94 393 94 267 q 132 626 94 513 q 239 829 169 739 q 409 971 310 918 q 631 1024 508 1024 q 830 975 745 1024 q 962 836 915 926 q 1009 618 1009 745 q 972 384 1009 497 q 864 181 935 271 q 695 39 794 92 q 474 -14 597 -14 m 479 106 q 649 149 574 106 q 777 266 724 193 q 857 430 829 339 q 884 614 884 520 q 851 774 884 709 q 760 872 819 839 q 626 905 702 905 q 456 861 531 905 q 328 745 380 818 q 247 581 275 671 q 219 397 219 491 q 252 237 219 302 q 344 139 286 172 q 479 106 403 106 z "},"Ό":{"ha":1204,"x_min":139,"x_max":1151,"o":"m 616 -14 q 416 35 501 -14 q 283 175 330 84 q 236 393 236 267 q 273 626 236 513 q 381 829 311 739 q 551 971 452 918 q 772 1024 650 1024 q 972 975 887 1024 q 1104 836 1057 926 q 1151 618 1151 745 q 1114 384 1151 497 q 1006 181 1076 271 q 837 39 936 92 q 616 -14 739 -14 m 621 106 q 791 149 715 106 q 919 266 866 193 q 999 430 971 339 q 1026 614 1026 520 q 993 774 1026 709 q 902 872 960 839 q 768 905 844 905 q 597 861 673 905 q 469 745 522 818 q 389 581 416 671 q 361 397 361 491 q 394 237 361 302 q 486 139 427 172 q 621 106 545 106 m 139 811 l 195 1010 l 326 1010 l 224 811 l 139 811 z "},"Ὀ":{"ha":1248,"x_min":158,"x_max":1194,"o":"m 659 -14 q 459 35 545 -14 q 327 175 374 84 q 279 393 279 267 q 317 626 279 513 q 425 829 354 739 q 594 971 495 918 q 816 1024 693 1024 q 1015 975 930 1024 q 1147 836 1100 926 q 1194 618 1194 745 q 1157 384 1194 497 q 1049 181 1120 271 q 881 39 979 92 q 659 -14 782 -14 m 664 106 q 834 149 759 106 q 962 266 909 193 q 1042 430 1015 339 q 1069 614 1069 520 q 1037 774 1069 709 q 945 872 1004 839 q 811 905 887 905 q 641 861 716 905 q 513 745 566 818 q 432 581 460 671 q 404 397 404 491 q 437 237 404 302 q 529 139 471 172 q 664 106 588 106 m 167 827 l 158 827 l 166 876 l 175 876 q 229 888 210 876 q 252 924 248 900 q 240 956 256 945 q 190 966 224 966 l 165 966 l 177 1039 l 202 1039 q 318 1013 283 1039 q 345 935 354 987 q 292 854 336 881 q 167 827 248 827 z "},"Ὁ":{"ha":1254,"x_min":147,"x_max":1200,"o":"m 665 -14 q 465 35 551 -14 q 333 175 380 84 q 286 393 286 267 q 323 626 286 513 q 431 829 360 739 q 600 971 501 918 q 822 1024 699 1024 q 1021 975 937 1024 q 1153 836 1106 926 q 1200 618 1200 745 q 1163 384 1200 497 q 1056 181 1126 271 q 887 39 985 92 q 665 -14 788 -14 m 670 106 q 840 149 765 106 q 968 266 916 193 q 1048 430 1021 339 q 1076 614 1076 520 q 1043 774 1076 709 q 951 872 1010 839 q 817 905 893 905 q 647 861 722 905 q 519 745 572 818 q 438 581 466 671 q 410 397 410 491 q 444 237 410 302 q 535 139 477 172 q 670 106 594 106 m 299 805 q 183 832 219 805 q 156 913 147 859 q 210 991 165 966 q 334 1017 254 1017 l 359 1017 l 347 945 l 322 945 q 269 934 288 945 q 246 903 250 924 q 257 866 242 878 q 307 854 273 854 l 316 854 l 308 805 l 299 805 z "},"Ὂ":{"ha":1468,"x_min":155,"x_max":1414,"o":"m 879 -14 q 679 35 764 -14 q 546 175 593 84 q 499 393 499 267 q 536 626 499 513 q 644 829 574 739 q 814 971 715 918 q 1036 1024 913 1024 q 1235 975 1150 1024 q 1367 836 1320 926 q 1414 618 1414 745 q 1377 384 1414 497 q 1269 181 1339 271 q 1100 39 1199 92 q 879 -14 1002 -14 m 884 106 q 1054 149 979 106 q 1182 266 1129 193 q 1262 430 1234 339 q 1289 614 1289 520 q 1256 774 1289 709 q 1165 872 1223 839 q 1031 905 1107 905 q 861 861 936 905 q 732 745 785 818 q 652 581 680 671 q 624 397 624 491 q 657 237 624 302 q 749 139 690 172 q 884 106 808 106 m 163 805 l 155 805 l 163 854 l 172 854 q 225 866 206 854 q 249 903 245 878 q 237 934 252 924 q 186 945 221 945 l 161 945 l 174 1017 l 199 1017 q 315 991 279 1017 q 342 913 351 966 q 289 832 333 859 q 163 805 244 805 m 552 811 l 467 811 l 431 1010 l 562 1010 l 552 811 z "},"Ὃ":{"ha":1483,"x_min":147,"x_max":1430,"o":"m 895 -14 q 694 35 780 -14 q 562 175 609 84 q 515 393 515 267 q 552 626 515 513 q 660 829 589 739 q 829 971 730 918 q 1051 1024 928 1024 q 1251 975 1166 1024 q 1382 836 1335 926 q 1430 618 1430 745 q 1392 384 1430 497 q 1285 181 1355 271 q 1116 39 1215 92 q 895 -14 1017 -14 m 899 106 q 1069 149 994 106 q 1197 266 1145 193 q 1277 430 1250 339 q 1305 614 1305 520 q 1272 774 1305 709 q 1181 872 1239 839 q 1046 905 1122 905 q 876 861 951 905 q 748 745 801 818 q 667 581 695 671 q 640 397 640 491 q 673 237 640 302 q 765 139 706 172 q 899 106 823 106 m 299 805 q 183 832 219 805 q 156 913 147 859 q 210 991 165 966 q 334 1017 254 1017 l 359 1017 l 347 945 l 322 945 q 269 934 288 945 q 246 903 250 924 q 257 866 242 878 q 307 854 273 854 l 316 854 l 308 805 l 299 805 m 568 811 l 483 811 l 447 1010 l 578 1010 l 568 811 z "},"Ὄ":{"ha":1472,"x_min":155,"x_max":1418,"o":"m 883 -14 q 683 35 768 -14 q 550 175 597 84 q 503 393 503 267 q 541 626 503 513 q 648 829 578 739 q 818 971 719 918 q 1040 1024 917 1024 q 1239 975 1154 1024 q 1371 836 1324 926 q 1418 618 1418 745 q 1381 384 1418 497 q 1273 181 1343 271 q 1104 39 1203 92 q 883 -14 1006 -14 m 888 106 q 1058 149 983 106 q 1186 266 1133 193 q 1266 430 1238 339 q 1293 614 1293 520 q 1260 774 1293 709 q 1169 872 1227 839 q 1035 905 1111 905 q 865 861 940 905 q 736 745 789 818 q 656 581 684 671 q 628 397 628 491 q 661 237 628 302 q 753 139 694 172 q 888 106 812 106 m 163 805 l 155 805 l 163 854 l 172 854 q 225 866 206 854 q 249 903 245 878 q 237 934 252 924 q 186 945 221 945 l 161 945 l 174 1017 l 199 1017 q 315 991 279 1017 q 342 913 351 966 q 289 832 333 859 q 163 805 244 805 m 408 811 l 465 1010 l 595 1010 l 493 811 l 408 811 z "},"Ὅ":{"ha":1476,"x_min":147,"x_max":1423,"o":"m 888 -14 q 688 35 773 -14 q 555 175 602 84 q 508 393 508 267 q 545 626 508 513 q 653 829 583 739 q 823 971 724 918 q 1044 1024 922 1024 q 1244 975 1159 1024 q 1376 836 1329 926 q 1423 618 1423 745 q 1385 384 1423 497 q 1278 181 1348 271 q 1109 39 1208 92 q 888 -14 1010 -14 m 892 106 q 1063 149 987 106 q 1191 266 1138 193 q 1271 430 1243 339 q 1298 614 1298 520 q 1265 774 1298 709 q 1174 872 1232 839 q 1040 905 1116 905 q 869 861 945 905 q 741 745 794 818 q 661 581 688 671 q 633 397 633 491 q 666 237 633 302 q 758 139 699 172 q 892 106 817 106 m 299 805 q 183 832 219 805 q 156 913 147 859 q 210 991 165 966 q 334 1017 254 1017 l 359 1017 l 347 945 l 322 945 q 269 934 288 945 q 246 903 250 924 q 257 866 242 878 q 307 854 273 854 l 316 854 l 308 805 l 299 805 m 413 811 l 469 1010 l 600 1010 l 498 811 l 413 811 z "},"Ὸ":{"ha":1202,"x_min":180,"x_max":1148,"o":"m 613 -14 q 413 35 498 -14 q 280 175 328 84 q 233 393 233 267 q 271 626 233 513 q 378 829 308 739 q 548 971 449 918 q 770 1024 647 1024 q 969 975 884 1024 q 1101 836 1054 926 q 1148 618 1148 745 q 1111 384 1148 497 q 1003 181 1074 271 q 834 39 933 92 q 613 -14 736 -14 m 618 106 q 788 149 713 106 q 916 266 863 193 q 996 430 968 339 q 1023 614 1023 520 q 990 774 1023 709 q 899 872 958 839 q 765 905 841 905 q 595 861 670 905 q 467 745 519 818 q 386 581 414 671 q 358 397 358 491 q 391 237 358 302 q 483 139 425 172 q 618 106 542 106 m 300 857 l 216 857 l 180 1057 l 311 1057 l 300 857 z "},"ϴ":{"ha":1062,"x_min":94,"x_max":1009,"o":"m 895 559 l 895 450 l 201 450 l 201 559 l 895 559 m 474 -14 q 274 35 359 -14 q 141 175 189 84 q 94 393 94 267 q 132 626 94 513 q 239 829 169 739 q 409 971 310 918 q 631 1024 508 1024 q 830 975 745 1024 q 962 836 915 926 q 1009 618 1009 745 q 972 384 1009 497 q 864 181 935 271 q 695 39 794 92 q 474 -14 597 -14 m 479 106 q 649 149 574 106 q 777 266 724 193 q 857 430 829 339 q 884 614 884 520 q 851 774 884 709 q 760 872 819 839 q 626 905 702 905 q 456 861 531 905 q 328 745 380 818 q 247 581 275 671 q 219 397 219 491 q 252 237 219 302 q 344 139 286 172 q 479 106 403 106 z "},"Ό":{"ha":1204,"x_min":139,"x_max":1151,"o":"m 616 -14 q 416 35 501 -14 q 283 175 330 84 q 236 393 236 267 q 273 626 236 513 q 381 829 311 739 q 551 971 452 918 q 772 1024 650 1024 q 972 975 887 1024 q 1104 836 1057 926 q 1151 618 1151 745 q 1114 384 1151 497 q 1006 181 1076 271 q 837 39 936 92 q 616 -14 739 -14 m 621 106 q 791 149 715 106 q 919 266 866 193 q 999 430 971 339 q 1026 614 1026 520 q 993 774 1026 709 q 902 872 960 839 q 768 905 844 905 q 597 861 673 905 q 469 745 522 818 q 389 581 416 671 q 361 397 361 491 q 394 237 361 302 q 486 139 427 172 q 621 106 545 106 m 139 811 l 195 1010 l 326 1010 l 224 811 l 139 811 z "},"О":{"ha":1062,"x_min":94,"x_max":1009,"o":"m 474 -14 q 274 35 359 -14 q 141 175 189 84 q 94 393 94 267 q 132 626 94 513 q 239 829 169 739 q 409 971 310 918 q 631 1024 508 1024 q 830 975 745 1024 q 962 836 915 926 q 1009 618 1009 745 q 972 384 1009 497 q 864 181 935 271 q 695 39 794 92 q 474 -14 597 -14 m 479 106 q 649 149 574 106 q 777 266 724 193 q 857 430 829 339 q 884 614 884 520 q 851 774 884 709 q 760 872 819 839 q 626 905 702 905 q 456 861 531 905 q 328 745 380 818 q 247 581 275 671 q 219 397 219 491 q 252 237 219 302 q 344 139 286 172 q 479 106 403 106 z "},"Ӧ":{"ha":1062,"x_min":94,"x_max":1009,"o":"m 474 -14 q 274 35 359 -14 q 141 175 189 84 q 94 393 94 267 q 132 626 94 513 q 239 829 169 739 q 409 971 310 918 q 631 1024 508 1024 q 830 975 745 1024 q 962 836 915 926 q 1009 618 1009 745 q 972 384 1009 497 q 864 181 935 271 q 695 39 794 92 q 474 -14 597 -14 m 479 106 q 649 149 574 106 q 777 266 724 193 q 857 430 829 339 q 884 614 884 520 q 851 774 884 709 q 760 872 819 839 q 626 905 702 905 q 456 861 531 905 q 328 745 380 818 q 247 581 275 671 q 219 397 219 491 q 252 237 219 302 q 344 139 286 172 q 479 106 403 106 m 800 1135 q 747 1158 766 1135 q 732 1215 727 1182 q 766 1272 738 1249 q 827 1295 793 1295 q 879 1272 860 1295 q 893 1215 899 1249 q 860 1158 888 1182 q 800 1135 833 1135 m 514 1135 q 461 1158 481 1135 q 447 1215 441 1182 q 480 1272 452 1249 q 541 1295 508 1295 q 594 1272 574 1295 q 608 1215 613 1249 q 575 1158 602 1182 q 514 1135 547 1135 z "},"Ɵ":{"ha":1062,"x_min":94,"x_max":1009,"o":"m 895 559 l 895 450 l 201 450 l 201 559 l 895 559 m 474 -14 q 274 35 359 -14 q 141 175 189 84 q 94 393 94 267 q 132 626 94 513 q 239 829 169 739 q 409 971 310 918 q 631 1024 508 1024 q 830 975 745 1024 q 962 836 915 926 q 1009 618 1009 745 q 972 384 1009 497 q 864 181 935 271 q 695 39 794 92 q 474 -14 597 -14 m 479 106 q 649 149 574 106 q 777 266 724 193 q 857 430 829 339 q 884 614 884 520 q 851 774 884 709 q 760 872 819 839 q 626 905 702 905 q 456 861 531 905 q 328 745 380 818 q 247 581 275 671 q 219 397 219 491 q 252 237 219 302 q 344 139 286 172 q 479 106 403 106 z "},"Ө":{"ha":1062,"x_min":94,"x_max":1009,"o":"m 895 559 l 895 450 l 201 450 l 201 559 l 895 559 m 474 -14 q 274 35 359 -14 q 141 175 189 84 q 94 393 94 267 q 132 626 94 513 q 239 829 169 739 q 409 971 310 918 q 631 1024 508 1024 q 830 975 745 1024 q 962 836 915 926 q 1009 618 1009 745 q 972 384 1009 497 q 864 181 935 271 q 695 39 794 92 q 474 -14 597 -14 m 479 106 q 649 149 574 106 q 777 266 724 193 q 857 430 829 339 q 884 614 884 520 q 851 774 884 709 q 760 872 819 839 q 626 905 702 905 q 456 861 531 905 q 328 745 380 818 q 247 581 275 671 q 219 397 219 491 q 252 237 219 302 q 344 139 286 172 q 479 106 403 106 z "},"Ӫ":{"ha":1062,"x_min":94,"x_max":1009,"o":"m 895 559 l 895 450 l 201 450 l 201 559 l 895 559 m 474 -14 q 274 35 359 -14 q 141 175 189 84 q 94 393 94 267 q 132 626 94 513 q 239 829 169 739 q 409 971 310 918 q 631 1024 508 1024 q 830 975 745 1024 q 962 836 915 926 q 1009 618 1009 745 q 972 384 1009 497 q 864 181 935 271 q 695 39 794 92 q 474 -14 597 -14 m 479 106 q 649 149 574 106 q 777 266 724 193 q 857 430 829 339 q 884 614 884 520 q 851 774 884 709 q 760 872 819 839 q 626 905 702 905 q 456 861 531 905 q 328 745 380 818 q 247 581 275 671 q 219 397 219 491 q 252 237 219 302 q 344 139 286 172 q 479 106 403 106 m 800 1135 q 747 1158 766 1135 q 732 1215 727 1182 q 766 1272 738 1249 q 827 1295 793 1295 q 879 1272 860 1295 q 893 1215 899 1249 q 860 1158 888 1182 q 800 1135 833 1135 m 514 1135 q 461 1158 481 1135 q 447 1215 441 1182 q 480 1272 452 1249 q 541 1295 508 1295 q 594 1272 574 1295 q 608 1215 613 1249 q 575 1158 602 1182 q 514 1135 547 1135 z "},"Œ":{"ha":1326,"x_min":78,"x_max":1333,"o":"m 464 0 q 241 63 331 0 q 115 240 151 127 q 103 505 78 354 q 203 771 128 657 q 388 947 277 884 q 631 1010 498 1010 l 768 1010 l 750 902 l 613 902 q 434 852 516 902 q 297 714 353 803 q 221 505 241 625 q 228 297 201 387 q 319 158 254 208 q 483 109 385 109 l 620 109 l 600 0 l 464 0 m 550 0 l 718 1010 l 1333 1010 l 1314 897 l 827 897 l 773 567 l 1227 567 l 1208 454 l 753 454 l 697 113 l 1190 113 l 1172 0 l 550 0 z "},"P":{"ha":887,"x_min":59,"x_max":879,"o":"m 59 0 l 227 1010 l 572 1010 q 759 968 690 1010 q 853 853 828 926 q 864 690 879 781 q 801 527 850 600 q 668 409 751 453 q 467 366 585 366 l 222 366 l 241 479 l 479 479 q 614 507 561 479 q 697 583 667 535 q 736 690 726 631 q 731 795 745 749 q 672 870 717 842 q 547 897 628 897 l 336 897 l 188 0 l 59 0 z "},"Ṕ":{"ha":887,"x_min":59,"x_max":879,"o":"m 59 0 l 227 1010 l 572 1010 q 759 968 690 1010 q 853 853 828 926 q 864 690 879 781 q 801 527 850 600 q 668 409 751 453 q 467 366 585 366 l 222 366 l 241 479 l 479 479 q 614 507 561 479 q 697 583 667 535 q 736 690 726 631 q 731 795 745 749 q 672 870 717 842 q 547 897 628 897 l 336 897 l 188 0 l 59 0 m 507 1122 l 633 1309 l 769 1309 l 606 1122 l 507 1122 z "},"Ṗ":{"ha":887,"x_min":59,"x_max":879,"o":"m 59 0 l 227 1010 l 572 1010 q 759 968 690 1010 q 853 853 828 926 q 864 690 879 781 q 801 527 850 600 q 668 409 751 453 q 467 366 585 366 l 222 366 l 241 479 l 479 479 q 614 507 561 479 q 697 583 667 535 q 736 690 726 631 q 731 795 745 749 q 672 870 717 842 q 547 897 628 897 l 336 897 l 188 0 l 59 0 m 567 1135 q 511 1158 532 1135 q 496 1215 490 1182 q 530 1273 501 1249 q 594 1296 559 1296 q 650 1273 629 1296 q 666 1215 671 1249 q 631 1158 661 1182 q 567 1135 602 1135 z "},"Ҏ":{"ha":880,"x_min":59,"x_max":879,"o":"m 590 650 l 768 335 l 673 277 l 495 591 l 590 650 m 59 0 l 227 1010 l 572 1010 q 759 968 690 1010 q 853 853 828 926 q 864 690 879 781 q 801 527 850 600 q 668 409 751 453 q 467 366 585 366 l 222 366 l 241 479 l 479 479 q 614 507 561 479 q 697 583 667 535 q 736 690 726 631 q 731 795 745 749 q 672 870 717 842 q 547 897 628 897 l 336 897 l 188 0 l 59 0 z "},"Ƥ":{"ha":1077,"x_min":102,"x_max":1069,"o":"m 102 755 l 111 806 q 186 958 127 906 q 353 1010 246 1010 l 416 1010 l 397 897 l 335 897 q 264 875 290 897 q 231 804 239 853 l 223 755 l 102 755 m 249 0 l 416 1010 l 762 1010 q 949 968 880 1010 q 1043 853 1018 926 q 1054 690 1069 781 q 990 527 1040 600 q 858 409 941 453 q 656 366 774 366 l 412 366 l 431 479 l 669 479 q 804 507 751 479 q 887 583 857 535 q 926 690 916 631 q 921 795 935 749 q 862 870 907 842 q 736 897 818 897 l 526 897 l 378 0 l 249 0 z "},"Ρ":{"ha":887,"x_min":59,"x_max":879,"o":"m 59 0 l 227 1010 l 572 1010 q 759 968 690 1010 q 853 853 828 926 q 864 690 879 781 q 801 527 850 600 q 668 409 751 453 q 467 366 585 366 l 222 366 l 241 479 l 479 479 q 614 507 561 479 q 697 583 667 535 q 736 690 726 631 q 731 795 745 749 q 672 870 717 842 q 547 897 628 897 l 336 897 l 188 0 l 59 0 z "},"Ῥ":{"ha":1151,"x_min":147,"x_max":1143,"o":"m 323 0 l 490 1010 l 836 1010 q 1023 968 954 1010 q 1117 853 1092 926 q 1128 690 1143 781 q 1064 527 1114 600 q 932 409 1015 453 q 730 366 848 366 l 486 366 l 505 479 l 743 479 q 878 507 825 479 q 961 583 931 535 q 1000 690 990 631 q 995 795 1009 749 q 936 870 981 842 q 810 897 892 897 l 600 897 l 452 0 l 323 0 m 299 805 q 183 832 219 805 q 156 913 147 859 q 210 991 165 966 q 334 1017 254 1017 l 359 1017 l 347 945 l 322 945 q 269 934 288 945 q 246 903 250 924 q 257 866 242 878 q 307 854 273 854 l 316 854 l 308 805 l 299 805 z "},"Q":{"ha":1062,"x_min":94,"x_max":1009,"o":"m 502 316 l 625 316 l 713 168 l 735 129 l 867 -95 l 743 -95 l 658 53 l 635 91 l 502 316 m 474 -14 q 274 35 359 -14 q 141 175 189 84 q 94 393 94 267 q 132 626 94 513 q 239 829 169 739 q 409 971 310 918 q 631 1024 508 1024 q 830 975 745 1024 q 962 836 915 926 q 1009 618 1009 745 q 972 384 1009 497 q 864 181 935 271 q 695 39 794 92 q 474 -14 597 -14 m 479 106 q 649 149 574 106 q 777 266 724 193 q 857 430 829 339 q 884 614 884 520 q 851 774 884 709 q 760 872 819 839 q 626 905 702 905 q 456 861 531 905 q 328 745 380 818 q 247 581 275 671 q 219 397 219 491 q 252 237 219 302 q 344 139 286 172 q 479 106 403 106 z "},"Ɋ":{"ha":1062,"x_min":85,"x_max":1044,"o":"m 1044 1010 l 877 0 l 755 0 l 781 159 l 773 159 q 634 30 721 75 q 446 -16 547 -16 q 280 21 352 -16 q 163 128 209 59 q 101 291 117 197 q 102 500 85 386 q 166 710 120 614 q 281 876 212 806 q 436 985 350 947 q 618 1024 522 1024 q 793 979 722 1024 q 888 855 865 934 l 897 855 l 922 1010 l 1044 1010 m 469 106 q 653 158 577 106 q 774 302 728 211 q 840 506 821 393 q 841 707 858 616 q 765 853 823 798 q 603 907 707 907 q 434 856 511 907 q 303 713 356 804 q 231 505 250 623 q 235 293 212 382 q 319 155 259 203 q 469 106 380 106 m 903 -290 q 765 -246 810 -290 q 735 -116 721 -203 l 754 0 l 877 0 l 857 -116 q 873 -168 851 -152 q 951 -184 896 -184 q 971 -184 960 -184 q 992 -182 981 -183 l 975 -283 q 945 -288 964 -286 q 903 -290 925 -290 z "},"R":{"ha":894,"x_min":59,"x_max":880,"o":"m 59 0 l 227 1010 l 572 1010 q 761 970 692 1010 q 856 859 831 929 q 865 699 880 788 q 802 540 850 609 q 671 431 754 471 q 471 392 589 392 l 196 392 l 215 507 l 483 507 q 616 530 564 507 q 699 597 669 553 q 737 699 728 640 q 708 845 753 793 q 547 897 663 897 l 336 897 l 188 0 l 59 0 m 640 0 l 471 455 l 616 455 l 789 0 l 640 0 z "},"Ŕ":{"ha":894,"x_min":59,"x_max":880,"o":"m 59 0 l 227 1010 l 572 1010 q 761 970 692 1010 q 856 859 831 929 q 865 699 880 788 q 802 540 850 609 q 671 431 754 471 q 471 392 589 392 l 196 392 l 215 507 l 483 507 q 616 530 564 507 q 699 597 669 553 q 737 699 728 640 q 708 845 753 793 q 547 897 663 897 l 336 897 l 188 0 l 59 0 m 640 0 l 471 455 l 616 455 l 789 0 l 640 0 m 506 1122 l 632 1309 l 768 1309 l 606 1122 l 506 1122 z "},"Ŗ":{"ha":894,"x_min":59,"x_max":880,"o":"m 59 0 l 227 1010 l 572 1010 q 761 970 692 1010 q 856 859 831 929 q 865 699 880 788 q 802 540 850 609 q 671 431 754 471 q 471 392 589 392 l 196 392 l 215 507 l 483 507 q 616 530 564 507 q 699 597 669 553 q 737 699 728 640 q 708 845 753 793 q 547 897 663 897 l 336 897 l 188 0 l 59 0 m 640 0 l 471 455 l 616 455 l 789 0 l 640 0 m 222 -334 l 320 -80 l 446 -80 l 317 -334 l 222 -334 z "}}}
